M48
; DRILL file {KiCad (6.0.9)} date Thu Jan 25 22:48:02 2024
; FORMAT={-:-/ absolute / metric / decimal}
; #@! TF.CreationDate,2024-01-25T22:48:02-06:00
; #@! TF.GenerationSoftware,Kicad,Pcbnew,(6.0.9)
; #@! TF.FileFunction,MixedPlating,1,2
FMAT,2
METRIC
; #@! TA.AperFunction,Plated,PTH,ViaDrill
T1C0.400
; #@! TA.AperFunction,Plated,PTH,ComponentDrill
T2C0.500
; #@! TA.AperFunction,Plated,PTH,ComponentDrill
T3C1.000
; #@! TA.AperFunction,Plated,PTH,ComponentDrill
T4C2.200
%
G90
G05
T1
X99.695Y-78.74
X100.965Y-69.85
X100.965Y-78.74
X100.965Y-82.55
X104.14Y-81.28
X106.045Y-67.945
X107.315Y-74.93
X107.315Y-77.47
X107.789Y-76.361
X107.95Y-86.36
X110.49Y-69.215
X111.125Y-82.55
X111.76Y-86.995
X113.03Y-79.375
X113.559Y-68.622
X114.3Y-83.185
X114.3Y-86.995
X114.935Y-72.348
X116.205Y-67.945
X117.475Y-69.215
X117.517Y-72.39
X118.11Y-83.185
X118.745Y-73.702
X118.745Y-81.915
X119.38Y-71.755
X119.38Y-86.36
X119.38Y-87.63
X119.38Y-92.075
X120.523Y-103.505
X120.65Y-81.28
X121.92Y-78.74
X123.698Y-103.505
X123.825Y-83.185
X124.206Y-92.964
X126.238Y-106.045
X126.365Y-67.31
X126.746Y-76.454
X127.0Y-78.105
X128.27Y-70.485
X128.27Y-90.763
X128.905Y-85.725
X128.905Y-88.265
X130.81Y-81.915
X130.81Y-83.185
X131.445Y-72.39
X132.715Y-68.58
X133.35Y-80.01
X133.985Y-73.66
X133.985Y-75.607
X135.932Y-90.17
X136.525Y-79.333
X136.567Y-88.265
X137.16Y-73.66
X137.795Y-92.71
X138.43Y-80.01
X139.065Y-74.972
X139.065Y-84.455
X140.97Y-101.092
X141.585Y-92.095
X142.24Y-81.915
X143.51Y-73.66
X143.51Y-79.375
X144.145Y-89.535
X145.288Y-67.818
X146.05Y-83.185
X147.828Y-70.358
X150.876Y-101.092
T2
X130.81Y-88.265
T3
X97.155Y-71.12
X97.155Y-76.835
X97.155Y-83.82
X97.155Y-88.9
X117.983Y-96.012
X117.983Y-111.252
X120.523Y-96.012
X120.523Y-111.252
X123.063Y-96.012
X125.603Y-96.012
X128.143Y-96.012
X130.683Y-96.012
X130.683Y-111.252
X133.223Y-96.012
X133.223Y-111.252
X135.763Y-96.012
X135.763Y-111.252
X138.303Y-96.012
X138.303Y-111.252
X140.843Y-96.012
X140.843Y-111.252
X143.383Y-96.012
X143.383Y-111.252
X145.923Y-96.012
X145.923Y-111.252
X150.876Y-66.294
X150.876Y-68.834
X150.876Y-71.374
X150.876Y-73.914
X150.876Y-76.454
X150.876Y-78.994
X150.876Y-81.534
T4
X96.774Y-65.532
X96.774Y-93.218
X146.812Y-65.278
T0
M30
