%TF.GenerationSoftware,KiCad,Pcbnew,(6.0.9)*%
%TF.CreationDate,2024-01-25T22:47:47-06:00*%
%TF.ProjectId,AD8232_Heart_Rate_Monitor_v4.0,41443832-3332-45f4-9865-6172745f5261,rev?*%
%TF.SameCoordinates,Original*%
%TF.FileFunction,Paste,Top*%
%TF.FilePolarity,Positive*%
%FSLAX46Y46*%
G04 Gerber Fmt 4.6, Leading zero omitted, Abs format (unit mm)*
G04 Created by KiCad (PCBNEW (6.0.9)) date 2024-01-25 22:47:47*
%MOMM*%
%LPD*%
G01*
G04 APERTURE LIST*
G04 Aperture macros list*
%AMRoundRect*
0 Rectangle with rounded corners*
0 $1 Rounding radius*
0 $2 $3 $4 $5 $6 $7 $8 $9 X,Y pos of 4 corners*
0 Add a 4 corners polygon primitive as box body*
4,1,4,$2,$3,$4,$5,$6,$7,$8,$9,$2,$3,0*
0 Add four circle primitives for the rounded corners*
1,1,$1+$1,$2,$3*
1,1,$1+$1,$4,$5*
1,1,$1+$1,$6,$7*
1,1,$1+$1,$8,$9*
0 Add four rect primitives between the rounded corners*
20,1,$1+$1,$2,$3,$4,$5,0*
20,1,$1+$1,$4,$5,$6,$7,0*
20,1,$1+$1,$6,$7,$8,$9,0*
20,1,$1+$1,$8,$9,$2,$3,0*%
G04 Aperture macros list end*
%ADD10RoundRect,0.225000X-0.225000X-0.250000X0.225000X-0.250000X0.225000X0.250000X-0.225000X0.250000X0*%
%ADD11RoundRect,0.200000X0.275000X-0.200000X0.275000X0.200000X-0.275000X0.200000X-0.275000X-0.200000X0*%
%ADD12RoundRect,0.200000X-0.200000X-0.275000X0.200000X-0.275000X0.200000X0.275000X-0.200000X0.275000X0*%
%ADD13RoundRect,0.200000X0.200000X0.275000X-0.200000X0.275000X-0.200000X-0.275000X0.200000X-0.275000X0*%
%ADD14RoundRect,0.200000X-0.275000X0.200000X-0.275000X-0.200000X0.275000X-0.200000X0.275000X0.200000X0*%
%ADD15RoundRect,0.225000X0.225000X0.250000X-0.225000X0.250000X-0.225000X-0.250000X0.225000X-0.250000X0*%
%ADD16RoundRect,0.250000X-0.255000X-0.255000X0.255000X-0.255000X0.255000X0.255000X-0.255000X0.255000X0*%
%ADD17RoundRect,0.062500X-0.350000X-0.062500X0.350000X-0.062500X0.350000X0.062500X-0.350000X0.062500X0*%
%ADD18RoundRect,0.062500X-0.062500X-0.350000X0.062500X-0.350000X0.062500X0.350000X-0.062500X0.350000X0*%
%ADD19R,0.790000X0.260000*%
%ADD20R,0.260000X0.790000*%
%ADD21R,0.812800X0.889000*%
%ADD22RoundRect,0.041300X-0.683700X-0.253700X0.683700X-0.253700X0.683700X0.253700X-0.683700X0.253700X0*%
G04 APERTURE END LIST*
D10*
X123050000Y-70485000D03*
X124600000Y-70485000D03*
X122923000Y-65913000D03*
X124473000Y-65913000D03*
X107683000Y-70612000D03*
X109233000Y-70612000D03*
X115557000Y-88392000D03*
X117107000Y-88392000D03*
D11*
X124460000Y-77025000D03*
X124460000Y-75375000D03*
D12*
X120968000Y-84963000D03*
X122618000Y-84963000D03*
D13*
X114236000Y-66167000D03*
X112586000Y-66167000D03*
D11*
X124460000Y-81470000D03*
X124460000Y-79820000D03*
D14*
X128270000Y-79820000D03*
X128270000Y-81470000D03*
D12*
X120968000Y-88392000D03*
X122618000Y-88392000D03*
D15*
X111773000Y-88519000D03*
X110223000Y-88519000D03*
D12*
X125540000Y-84963000D03*
X127190000Y-84963000D03*
D13*
X114236000Y-70485000D03*
X112586000Y-70485000D03*
X109029000Y-66167000D03*
X107379000Y-66167000D03*
D12*
X118047000Y-66040000D03*
X119697000Y-66040000D03*
D13*
X119824000Y-70485000D03*
X118174000Y-70485000D03*
D15*
X117107000Y-84963000D03*
X115557000Y-84963000D03*
D12*
X102807000Y-66040000D03*
X104457000Y-66040000D03*
X110173000Y-85090000D03*
X111823000Y-85090000D03*
D13*
X107251000Y-88519000D03*
X105601000Y-88519000D03*
D12*
X125667000Y-88138000D03*
X127317000Y-88138000D03*
D11*
X128270000Y-77025000D03*
X128270000Y-75375000D03*
D16*
X116215000Y-77226000D03*
X117465000Y-78476000D03*
X117465000Y-77226000D03*
X116215000Y-78476000D03*
D17*
X114902500Y-76851000D03*
X114902500Y-77351000D03*
X114902500Y-77851000D03*
X114902500Y-78351000D03*
X114902500Y-78851000D03*
D18*
X115840000Y-79788500D03*
X116340000Y-79788500D03*
X116840000Y-79788500D03*
X117340000Y-79788500D03*
X117840000Y-79788500D03*
D17*
X118777500Y-78851000D03*
X118777500Y-78351000D03*
X118777500Y-77851000D03*
X118777500Y-77351000D03*
X118777500Y-76851000D03*
D18*
X117840000Y-75913500D03*
X117340000Y-75913500D03*
X116840000Y-75913500D03*
X116340000Y-75913500D03*
X115840000Y-75913500D03*
D19*
X142305000Y-89515000D03*
X142305000Y-89015000D03*
X142305000Y-88515000D03*
X142305000Y-88015000D03*
X142305000Y-87515000D03*
X142305000Y-87015000D03*
D20*
X141585000Y-86295000D03*
X141085000Y-86295000D03*
X140585000Y-86295000D03*
X140085000Y-86295000D03*
X139585000Y-86295000D03*
X139085000Y-86295000D03*
D19*
X138365000Y-87015000D03*
X138365000Y-87515000D03*
X138365000Y-88015000D03*
X138365000Y-88515000D03*
X138365000Y-89015000D03*
X138365000Y-89515000D03*
D20*
X139085000Y-90235000D03*
X139585000Y-90235000D03*
X140085000Y-90235000D03*
X140585000Y-90235000D03*
X141085000Y-90235000D03*
X141585000Y-90235000D03*
D21*
X137549999Y-75890001D03*
X135500001Y-75890001D03*
X136525000Y-77780000D03*
D22*
X141085000Y-75885000D03*
X141085000Y-76835000D03*
X141085000Y-77785000D03*
X143395000Y-77785000D03*
X143395000Y-75885000D03*
D15*
X139840000Y-83185000D03*
X138290000Y-83185000D03*
M02*
