%TF.GenerationSoftware,KiCad,Pcbnew,(6.0.9)*%
%TF.CreationDate,2024-01-25T22:47:47-06:00*%
%TF.ProjectId,AD8232_Heart_Rate_Monitor_v4.0,41443832-3332-45f4-9865-6172745f5261,rev?*%
%TF.SameCoordinates,Original*%
%TF.FileFunction,Legend,Top*%
%TF.FilePolarity,Positive*%
%FSLAX46Y46*%
G04 Gerber Fmt 4.6, Leading zero omitted, Abs format (unit mm)*
G04 Created by KiCad (PCBNEW (6.0.9)) date 2024-01-25 22:47:47*
%MOMM*%
%LPD*%
G01*
G04 APERTURE LIST*
G04 Aperture macros list*
%AMRoundRect*
0 Rectangle with rounded corners*
0 $1 Rounding radius*
0 $2 $3 $4 $5 $6 $7 $8 $9 X,Y pos of 4 corners*
0 Add a 4 corners polygon primitive as box body*
4,1,4,$2,$3,$4,$5,$6,$7,$8,$9,$2,$3,0*
0 Add four circle primitives for the rounded corners*
1,1,$1+$1,$2,$3*
1,1,$1+$1,$4,$5*
1,1,$1+$1,$6,$7*
1,1,$1+$1,$8,$9*
0 Add four rect primitives between the rounded corners*
20,1,$1+$1,$2,$3,$4,$5,0*
20,1,$1+$1,$4,$5,$6,$7,0*
20,1,$1+$1,$6,$7,$8,$9,0*
20,1,$1+$1,$8,$9,$2,$3,0*%
G04 Aperture macros list end*
%ADD10C,0.150000*%
%ADD11C,0.100000*%
%ADD12C,0.294000*%
%ADD13C,0.200000*%
%ADD14C,0.110000*%
%ADD15C,0.120000*%
%ADD16C,0.127000*%
%ADD17R,1.700000X1.700000*%
%ADD18O,1.700000X1.700000*%
%ADD19RoundRect,0.225000X-0.225000X-0.250000X0.225000X-0.250000X0.225000X0.250000X-0.225000X0.250000X0*%
%ADD20RoundRect,0.200000X0.275000X-0.200000X0.275000X0.200000X-0.275000X0.200000X-0.275000X-0.200000X0*%
%ADD21RoundRect,0.200000X-0.200000X-0.275000X0.200000X-0.275000X0.200000X0.275000X-0.200000X0.275000X0*%
%ADD22RoundRect,0.200000X0.200000X0.275000X-0.200000X0.275000X-0.200000X-0.275000X0.200000X-0.275000X0*%
%ADD23RoundRect,0.200000X-0.275000X0.200000X-0.275000X-0.200000X0.275000X-0.200000X0.275000X0.200000X0*%
%ADD24RoundRect,0.225000X0.225000X0.250000X-0.225000X0.250000X-0.225000X-0.250000X0.225000X-0.250000X0*%
%ADD25R,0.850000X0.850000*%
%ADD26RoundRect,0.062500X-0.350000X-0.062500X0.350000X-0.062500X0.350000X0.062500X-0.350000X0.062500X0*%
%ADD27RoundRect,0.062500X-0.062500X-0.350000X0.062500X-0.350000X0.062500X0.350000X-0.062500X0.350000X0*%
%ADD28R,2.500000X2.500000*%
%ADD29R,0.790000X0.260000*%
%ADD30R,0.260000X0.790000*%
%ADD31C,3.500000*%
%ADD32C,2.600000*%
%ADD33R,0.812800X0.889000*%
%ADD34RoundRect,0.041300X-0.683700X-0.253700X0.683700X-0.253700X0.683700X0.253700X-0.683700X0.253700X0*%
G04 APERTURE END LIST*
D10*
X147932780Y-75728580D02*
X148028019Y-75728580D01*
X148123257Y-75776200D01*
X148170876Y-75823819D01*
X148218495Y-75919057D01*
X148266114Y-76109533D01*
X148266114Y-76347628D01*
X148218495Y-76538104D01*
X148170876Y-76633342D01*
X148123257Y-76680961D01*
X148028019Y-76728580D01*
X147932780Y-76728580D01*
X147837542Y-76680961D01*
X147789923Y-76633342D01*
X147742304Y-76538104D01*
X147694685Y-76347628D01*
X147694685Y-76109533D01*
X147742304Y-75919057D01*
X147789923Y-75823819D01*
X147837542Y-75776200D01*
X147932780Y-75728580D01*
D11*
X146013666Y-81201062D02*
X146413666Y-81201062D01*
X146213666Y-81901062D02*
X146213666Y-81201062D01*
X146480333Y-81967729D02*
X147013666Y-81967729D01*
X147147000Y-81867729D02*
X147247000Y-81901062D01*
X147413666Y-81901062D01*
X147480333Y-81867729D01*
X147513666Y-81834396D01*
X147547000Y-81767729D01*
X147547000Y-81701062D01*
X147513666Y-81634396D01*
X147480333Y-81601062D01*
X147413666Y-81567729D01*
X147280333Y-81534396D01*
X147213666Y-81501062D01*
X147180333Y-81467729D01*
X147147000Y-81401062D01*
X147147000Y-81334396D01*
X147180333Y-81267729D01*
X147213666Y-81234396D01*
X147280333Y-81201062D01*
X147447000Y-81201062D01*
X147547000Y-81234396D01*
X148247000Y-81834396D02*
X148213666Y-81867729D01*
X148113666Y-81901062D01*
X148047000Y-81901062D01*
X147947000Y-81867729D01*
X147880333Y-81801062D01*
X147847000Y-81734396D01*
X147813666Y-81601062D01*
X147813666Y-81501062D01*
X147847000Y-81367729D01*
X147880333Y-81301062D01*
X147947000Y-81234396D01*
X148047000Y-81201062D01*
X148113666Y-81201062D01*
X148213666Y-81234396D01*
X148247000Y-81267729D01*
X148880333Y-81901062D02*
X148547000Y-81901062D01*
X148547000Y-81201062D01*
X146022400Y-78559866D02*
X146422400Y-78559866D01*
X146222400Y-79259866D02*
X146222400Y-78559866D01*
X146489066Y-79326533D02*
X147022400Y-79326533D01*
X147155733Y-79226533D02*
X147255733Y-79259866D01*
X147422400Y-79259866D01*
X147489066Y-79226533D01*
X147522400Y-79193200D01*
X147555733Y-79126533D01*
X147555733Y-79059866D01*
X147522400Y-78993200D01*
X147489066Y-78959866D01*
X147422400Y-78926533D01*
X147289066Y-78893200D01*
X147222400Y-78859866D01*
X147189066Y-78826533D01*
X147155733Y-78759866D01*
X147155733Y-78693200D01*
X147189066Y-78626533D01*
X147222400Y-78593200D01*
X147289066Y-78559866D01*
X147455733Y-78559866D01*
X147555733Y-78593200D01*
X147855733Y-79259866D02*
X147855733Y-78559866D01*
X148022400Y-78559866D01*
X148122400Y-78593200D01*
X148189066Y-78659866D01*
X148222400Y-78726533D01*
X148255733Y-78859866D01*
X148255733Y-78959866D01*
X148222400Y-79093200D01*
X148189066Y-79159866D01*
X148122400Y-79226533D01*
X148022400Y-79259866D01*
X147855733Y-79259866D01*
X148522400Y-79059866D02*
X148855733Y-79059866D01*
X148455733Y-79259866D02*
X148689066Y-78559866D01*
X148922400Y-79259866D01*
D10*
X147142295Y-73188580D02*
X147761342Y-73188580D01*
X147428009Y-73569533D01*
X147570866Y-73569533D01*
X147666104Y-73617152D01*
X147713723Y-73664771D01*
X147761342Y-73760009D01*
X147761342Y-73998104D01*
X147713723Y-74093342D01*
X147666104Y-74140961D01*
X147570866Y-74188580D01*
X147285152Y-74188580D01*
X147189914Y-74140961D01*
X147142295Y-74093342D01*
X148047057Y-73188580D02*
X148380390Y-74188580D01*
X148713723Y-73188580D01*
D11*
X145928733Y-71741466D02*
X145928733Y-71041466D01*
X146195400Y-71041466D01*
X146262066Y-71074800D01*
X146295400Y-71108133D01*
X146328733Y-71174800D01*
X146328733Y-71274800D01*
X146295400Y-71341466D01*
X146262066Y-71374800D01*
X146195400Y-71408133D01*
X145928733Y-71408133D01*
X146462066Y-71808133D02*
X146995400Y-71808133D01*
X147128733Y-71708133D02*
X147228733Y-71741466D01*
X147395400Y-71741466D01*
X147462066Y-71708133D01*
X147495400Y-71674800D01*
X147528733Y-71608133D01*
X147528733Y-71541466D01*
X147495400Y-71474800D01*
X147462066Y-71441466D01*
X147395400Y-71408133D01*
X147262066Y-71374800D01*
X147195400Y-71341466D01*
X147162066Y-71308133D01*
X147128733Y-71241466D01*
X147128733Y-71174800D01*
X147162066Y-71108133D01*
X147195400Y-71074800D01*
X147262066Y-71041466D01*
X147428733Y-71041466D01*
X147528733Y-71074800D01*
X148228733Y-71674800D02*
X148195400Y-71708133D01*
X148095400Y-71741466D01*
X148028733Y-71741466D01*
X147928733Y-71708133D01*
X147862066Y-71641466D01*
X147828733Y-71574800D01*
X147795400Y-71441466D01*
X147795400Y-71341466D01*
X147828733Y-71208133D01*
X147862066Y-71141466D01*
X147928733Y-71074800D01*
X148028733Y-71041466D01*
X148095400Y-71041466D01*
X148195400Y-71074800D01*
X148228733Y-71108133D01*
X148862066Y-71741466D02*
X148528733Y-71741466D01*
X148528733Y-71041466D01*
X145937466Y-69633266D02*
X145937466Y-68933266D01*
X146204133Y-68933266D01*
X146270800Y-68966600D01*
X146304133Y-68999933D01*
X146337466Y-69066600D01*
X146337466Y-69166600D01*
X146304133Y-69233266D01*
X146270800Y-69266600D01*
X146204133Y-69299933D01*
X145937466Y-69299933D01*
X146470800Y-69699933D02*
X147004133Y-69699933D01*
X147137466Y-69599933D02*
X147237466Y-69633266D01*
X147404133Y-69633266D01*
X147470800Y-69599933D01*
X147504133Y-69566600D01*
X147537466Y-69499933D01*
X147537466Y-69433266D01*
X147504133Y-69366600D01*
X147470800Y-69333266D01*
X147404133Y-69299933D01*
X147270800Y-69266600D01*
X147204133Y-69233266D01*
X147170800Y-69199933D01*
X147137466Y-69133266D01*
X147137466Y-69066600D01*
X147170800Y-68999933D01*
X147204133Y-68966600D01*
X147270800Y-68933266D01*
X147437466Y-68933266D01*
X147537466Y-68966600D01*
X147837466Y-69633266D02*
X147837466Y-68933266D01*
X148004133Y-68933266D01*
X148104133Y-68966600D01*
X148170800Y-69033266D01*
X148204133Y-69099933D01*
X148237466Y-69233266D01*
X148237466Y-69333266D01*
X148204133Y-69466600D01*
X148170800Y-69533266D01*
X148104133Y-69599933D01*
X148004133Y-69633266D01*
X147837466Y-69633266D01*
X148504133Y-69433266D02*
X148837466Y-69433266D01*
X148437466Y-69633266D02*
X148670800Y-68933266D01*
X148904133Y-69633266D01*
D12*
X113939000Y-76454000D02*
G75*
G03*
X113939000Y-76454000I-147000J0D01*
G01*
D13*
X128115200Y-93838600D02*
X128115200Y-93410028D01*
X128372342Y-93924314D02*
X127472342Y-93624314D01*
X128372342Y-93324314D01*
X128372342Y-93024314D02*
X127472342Y-93024314D01*
X128372342Y-92595742D02*
X127472342Y-92595742D01*
X128372342Y-92081457D01*
X127472342Y-92081457D01*
D10*
X135698666Y-93863933D02*
X134998666Y-93863933D01*
X134998666Y-93597266D01*
X135032000Y-93530600D01*
X135065333Y-93497266D01*
X135132000Y-93463933D01*
X135232000Y-93463933D01*
X135298666Y-93497266D01*
X135332000Y-93530600D01*
X135365333Y-93597266D01*
X135365333Y-93863933D01*
X135765333Y-93330600D02*
X135765333Y-92797266D01*
X135665333Y-92663933D02*
X135698666Y-92563933D01*
X135698666Y-92397266D01*
X135665333Y-92330600D01*
X135632000Y-92297266D01*
X135565333Y-92263933D01*
X135498666Y-92263933D01*
X135432000Y-92297266D01*
X135398666Y-92330600D01*
X135365333Y-92397266D01*
X135332000Y-92530600D01*
X135298666Y-92597266D01*
X135265333Y-92630600D01*
X135198666Y-92663933D01*
X135132000Y-92663933D01*
X135065333Y-92630600D01*
X135032000Y-92597266D01*
X134998666Y-92530600D01*
X134998666Y-92363933D01*
X135032000Y-92263933D01*
X135698666Y-91963933D02*
X134998666Y-91963933D01*
X134998666Y-91797266D01*
X135032000Y-91697266D01*
X135098666Y-91630600D01*
X135165333Y-91597266D01*
X135298666Y-91563933D01*
X135398666Y-91563933D01*
X135532000Y-91597266D01*
X135598666Y-91630600D01*
X135665333Y-91697266D01*
X135698666Y-91797266D01*
X135698666Y-91963933D01*
X135498666Y-91297266D02*
X135498666Y-90963933D01*
X135698666Y-91363933D02*
X134998666Y-91130600D01*
X135698666Y-90897266D01*
X146366666Y-93852866D02*
X145666666Y-93852866D01*
X146433333Y-93686200D02*
X146433333Y-93152866D01*
X146366666Y-92986200D02*
X145666666Y-92986200D01*
X146366666Y-92652866D02*
X145666666Y-92652866D01*
X146366666Y-92252866D01*
X145666666Y-92252866D01*
X145666666Y-92019533D02*
X145666666Y-91619533D01*
X146366666Y-91819533D02*
X145666666Y-91819533D01*
X143623466Y-93934600D02*
X142923466Y-93934600D01*
X143690133Y-93767933D02*
X143690133Y-93234600D01*
X143590133Y-93101266D02*
X143623466Y-93001266D01*
X143623466Y-92834600D01*
X143590133Y-92767933D01*
X143556800Y-92734600D01*
X143490133Y-92701266D01*
X143423466Y-92701266D01*
X143356800Y-92734600D01*
X143323466Y-92767933D01*
X143290133Y-92834600D01*
X143256800Y-92967933D01*
X143223466Y-93034600D01*
X143190133Y-93067933D01*
X143123466Y-93101266D01*
X143056800Y-93101266D01*
X142990133Y-93067933D01*
X142956800Y-93034600D01*
X142923466Y-92967933D01*
X142923466Y-92801266D01*
X142956800Y-92701266D01*
X143623466Y-92401266D02*
X142923466Y-92401266D01*
X142923466Y-92234600D01*
X142956800Y-92134600D01*
X143023466Y-92067933D01*
X143090133Y-92034600D01*
X143223466Y-92001266D01*
X143323466Y-92001266D01*
X143456800Y-92034600D01*
X143523466Y-92067933D01*
X143590133Y-92134600D01*
X143623466Y-92234600D01*
X143623466Y-92401266D01*
X143423466Y-91734600D02*
X143423466Y-91401266D01*
X143623466Y-91801266D02*
X142923466Y-91567933D01*
X143623466Y-91334600D01*
X141007266Y-93816333D02*
X140307266Y-93816333D01*
X141073933Y-93649666D02*
X141073933Y-93116333D01*
X140973933Y-92983000D02*
X141007266Y-92883000D01*
X141007266Y-92716333D01*
X140973933Y-92649666D01*
X140940600Y-92616333D01*
X140873933Y-92583000D01*
X140807266Y-92583000D01*
X140740600Y-92616333D01*
X140707266Y-92649666D01*
X140673933Y-92716333D01*
X140640600Y-92849666D01*
X140607266Y-92916333D01*
X140573933Y-92949666D01*
X140507266Y-92983000D01*
X140440600Y-92983000D01*
X140373933Y-92949666D01*
X140340600Y-92916333D01*
X140307266Y-92849666D01*
X140307266Y-92683000D01*
X140340600Y-92583000D01*
X140940600Y-91883000D02*
X140973933Y-91916333D01*
X141007266Y-92016333D01*
X141007266Y-92083000D01*
X140973933Y-92183000D01*
X140907266Y-92249666D01*
X140840600Y-92283000D01*
X140707266Y-92316333D01*
X140607266Y-92316333D01*
X140473933Y-92283000D01*
X140407266Y-92249666D01*
X140340600Y-92183000D01*
X140307266Y-92083000D01*
X140307266Y-92016333D01*
X140340600Y-91916333D01*
X140373933Y-91883000D01*
X141007266Y-91249666D02*
X141007266Y-91583000D01*
X140307266Y-91583000D01*
D13*
X125237142Y-93954514D02*
X125237142Y-93397371D01*
X125580000Y-93697371D01*
X125580000Y-93568800D01*
X125622857Y-93483085D01*
X125665714Y-93440228D01*
X125751428Y-93397371D01*
X125965714Y-93397371D01*
X126051428Y-93440228D01*
X126094285Y-93483085D01*
X126137142Y-93568800D01*
X126137142Y-93825942D01*
X126094285Y-93911657D01*
X126051428Y-93954514D01*
X125237142Y-93140228D02*
X126137142Y-92840228D01*
X125237142Y-92540228D01*
X120480142Y-92826742D02*
X120565857Y-92826742D01*
X120651571Y-92869600D01*
X120694428Y-92912457D01*
X120737285Y-92998171D01*
X120780142Y-93169600D01*
X120780142Y-93383885D01*
X120737285Y-93555314D01*
X120694428Y-93641028D01*
X120651571Y-93683885D01*
X120565857Y-93726742D01*
X120480142Y-93726742D01*
X120394428Y-93683885D01*
X120351571Y-93641028D01*
X120308714Y-93555314D01*
X120265857Y-93383885D01*
X120265857Y-93169600D01*
X120308714Y-92998171D01*
X120351571Y-92912457D01*
X120394428Y-92869600D01*
X120480142Y-92826742D01*
D10*
X137053000Y-93864866D02*
X137053000Y-93164866D01*
X137319666Y-93164866D01*
X137386333Y-93198200D01*
X137419666Y-93231533D01*
X137453000Y-93298200D01*
X137453000Y-93398200D01*
X137419666Y-93464866D01*
X137386333Y-93498200D01*
X137319666Y-93531533D01*
X137053000Y-93531533D01*
X137586333Y-93931533D02*
X138119666Y-93931533D01*
X138286333Y-93864866D02*
X138286333Y-93164866D01*
X138619666Y-93864866D02*
X138619666Y-93164866D01*
X139019666Y-93864866D01*
X139019666Y-93164866D01*
X139253000Y-93164866D02*
X139653000Y-93164866D01*
X139453000Y-93864866D02*
X139453000Y-93164866D01*
X133234866Y-93847266D02*
X132534866Y-93847266D01*
X132534866Y-93580600D01*
X132568200Y-93513933D01*
X132601533Y-93480600D01*
X132668200Y-93447266D01*
X132768200Y-93447266D01*
X132834866Y-93480600D01*
X132868200Y-93513933D01*
X132901533Y-93580600D01*
X132901533Y-93847266D01*
X133301533Y-93313933D02*
X133301533Y-92780600D01*
X133201533Y-92647266D02*
X133234866Y-92547266D01*
X133234866Y-92380600D01*
X133201533Y-92313933D01*
X133168200Y-92280600D01*
X133101533Y-92247266D01*
X133034866Y-92247266D01*
X132968200Y-92280600D01*
X132934866Y-92313933D01*
X132901533Y-92380600D01*
X132868200Y-92513933D01*
X132834866Y-92580600D01*
X132801533Y-92613933D01*
X132734866Y-92647266D01*
X132668200Y-92647266D01*
X132601533Y-92613933D01*
X132568200Y-92580600D01*
X132534866Y-92513933D01*
X132534866Y-92347266D01*
X132568200Y-92247266D01*
X133168200Y-91547266D02*
X133201533Y-91580600D01*
X133234866Y-91680600D01*
X133234866Y-91747266D01*
X133201533Y-91847266D01*
X133134866Y-91913933D01*
X133068200Y-91947266D01*
X132934866Y-91980600D01*
X132834866Y-91980600D01*
X132701533Y-91947266D01*
X132634866Y-91913933D01*
X132568200Y-91847266D01*
X132534866Y-91747266D01*
X132534866Y-91680600D01*
X132568200Y-91580600D01*
X132601533Y-91547266D01*
X133234866Y-90913933D02*
X133234866Y-91247266D01*
X132534866Y-91247266D01*
X132687266Y-109273000D02*
X132687266Y-108873000D01*
X133387266Y-109073000D02*
X132687266Y-109073000D01*
X133453933Y-108806333D02*
X133453933Y-108273000D01*
X133353933Y-108139666D02*
X133387266Y-108039666D01*
X133387266Y-107873000D01*
X133353933Y-107806333D01*
X133320600Y-107773000D01*
X133253933Y-107739666D01*
X133187266Y-107739666D01*
X133120600Y-107773000D01*
X133087266Y-107806333D01*
X133053933Y-107873000D01*
X133020600Y-108006333D01*
X132987266Y-108073000D01*
X132953933Y-108106333D01*
X132887266Y-108139666D01*
X132820600Y-108139666D01*
X132753933Y-108106333D01*
X132720600Y-108073000D01*
X132687266Y-108006333D01*
X132687266Y-107839666D01*
X132720600Y-107739666D01*
X133387266Y-107439666D02*
X132687266Y-107439666D01*
X132687266Y-107273000D01*
X132720600Y-107173000D01*
X132787266Y-107106333D01*
X132853933Y-107073000D01*
X132987266Y-107039666D01*
X133087266Y-107039666D01*
X133220600Y-107073000D01*
X133287266Y-107106333D01*
X133353933Y-107173000D01*
X133387266Y-107273000D01*
X133387266Y-107439666D01*
X133187266Y-106773000D02*
X133187266Y-106439666D01*
X133387266Y-106839666D02*
X132687266Y-106606333D01*
X133387266Y-106373000D01*
X129867866Y-109256333D02*
X129867866Y-108856333D01*
X130567866Y-109056333D02*
X129867866Y-109056333D01*
X130634533Y-108789666D02*
X130634533Y-108256333D01*
X130534533Y-108123000D02*
X130567866Y-108023000D01*
X130567866Y-107856333D01*
X130534533Y-107789666D01*
X130501200Y-107756333D01*
X130434533Y-107723000D01*
X130367866Y-107723000D01*
X130301200Y-107756333D01*
X130267866Y-107789666D01*
X130234533Y-107856333D01*
X130201200Y-107989666D01*
X130167866Y-108056333D01*
X130134533Y-108089666D01*
X130067866Y-108123000D01*
X130001200Y-108123000D01*
X129934533Y-108089666D01*
X129901200Y-108056333D01*
X129867866Y-107989666D01*
X129867866Y-107823000D01*
X129901200Y-107723000D01*
X130501200Y-107023000D02*
X130534533Y-107056333D01*
X130567866Y-107156333D01*
X130567866Y-107223000D01*
X130534533Y-107323000D01*
X130467866Y-107389666D01*
X130401200Y-107423000D01*
X130267866Y-107456333D01*
X130167866Y-107456333D01*
X130034533Y-107423000D01*
X129967866Y-107389666D01*
X129901200Y-107323000D01*
X129867866Y-107223000D01*
X129867866Y-107156333D01*
X129901200Y-107056333D01*
X129934533Y-107023000D01*
X130567866Y-106389666D02*
X130567866Y-106723000D01*
X129867866Y-106723000D01*
X115105380Y-96821523D02*
X115819666Y-96821523D01*
X115962523Y-96869142D01*
X116057761Y-96964380D01*
X116105380Y-97107238D01*
X116105380Y-97202476D01*
X116105380Y-95821523D02*
X116105380Y-96392952D01*
X116105380Y-96107238D02*
X115105380Y-96107238D01*
X115248238Y-96202476D01*
X115343476Y-96297714D01*
X115391095Y-96392952D01*
X115200619Y-95440571D02*
X115153000Y-95392952D01*
X115105380Y-95297714D01*
X115105380Y-95059619D01*
X115153000Y-94964380D01*
X115200619Y-94916761D01*
X115295857Y-94869142D01*
X115391095Y-94869142D01*
X115533952Y-94916761D01*
X116105380Y-95488190D01*
X116105380Y-94869142D01*
X115105380Y-111585333D02*
X115819666Y-111585333D01*
X115962523Y-111632952D01*
X116057761Y-111728190D01*
X116105380Y-111871047D01*
X116105380Y-111966285D01*
X115105380Y-111204380D02*
X115105380Y-110537714D01*
X116105380Y-110966285D01*
X127805380Y-112061523D02*
X128519666Y-112061523D01*
X128662523Y-112109142D01*
X128757761Y-112204380D01*
X128805380Y-112347238D01*
X128805380Y-112442476D01*
X128805380Y-111061523D02*
X128805380Y-111632952D01*
X128805380Y-111347238D02*
X127805380Y-111347238D01*
X127948238Y-111442476D01*
X128043476Y-111537714D01*
X128091095Y-111632952D01*
X128805380Y-110109142D02*
X128805380Y-110680571D01*
X128805380Y-110394857D02*
X127805380Y-110394857D01*
X127948238Y-110490095D01*
X128043476Y-110585333D01*
X128091095Y-110680571D01*
X121539285Y-69412142D02*
X121586904Y-69459761D01*
X121539285Y-69507380D01*
X121491666Y-69459761D01*
X121539285Y-69412142D01*
X121539285Y-69507380D01*
X122539285Y-69507380D02*
X121967857Y-69507380D01*
X122253571Y-69507380D02*
X122253571Y-68507380D01*
X122158333Y-68650238D01*
X122063095Y-68745476D01*
X121967857Y-68793095D01*
X123396428Y-68840714D02*
X123396428Y-69507380D01*
X122967857Y-68840714D02*
X122967857Y-69364523D01*
X123015476Y-69459761D01*
X123110714Y-69507380D01*
X123253571Y-69507380D01*
X123348809Y-69459761D01*
X123396428Y-69412142D01*
X123634523Y-69602619D02*
X124396428Y-69602619D01*
X125205952Y-69412142D02*
X125158333Y-69459761D01*
X125015476Y-69507380D01*
X124920238Y-69507380D01*
X124777380Y-69459761D01*
X124682142Y-69364523D01*
X124634523Y-69269285D01*
X124586904Y-69078809D01*
X124586904Y-68935952D01*
X124634523Y-68745476D01*
X124682142Y-68650238D01*
X124777380Y-68555000D01*
X124920238Y-68507380D01*
X125015476Y-68507380D01*
X125158333Y-68555000D01*
X125205952Y-68602619D01*
X126110714Y-68507380D02*
X125634523Y-68507380D01*
X125586904Y-68983571D01*
X125634523Y-68935952D01*
X125729761Y-68888333D01*
X125967857Y-68888333D01*
X126063095Y-68935952D01*
X126110714Y-68983571D01*
X126158333Y-69078809D01*
X126158333Y-69316904D01*
X126110714Y-69412142D01*
X126063095Y-69459761D01*
X125967857Y-69507380D01*
X125729761Y-69507380D01*
X125634523Y-69459761D01*
X125586904Y-69412142D01*
X122682285Y-64840142D02*
X122729904Y-64887761D01*
X122682285Y-64935380D01*
X122634666Y-64887761D01*
X122682285Y-64840142D01*
X122682285Y-64935380D01*
X123682285Y-64935380D02*
X123110857Y-64935380D01*
X123396571Y-64935380D02*
X123396571Y-63935380D01*
X123301333Y-64078238D01*
X123206095Y-64173476D01*
X123110857Y-64221095D01*
X124539428Y-64268714D02*
X124539428Y-64935380D01*
X124110857Y-64268714D02*
X124110857Y-64792523D01*
X124158476Y-64887761D01*
X124253714Y-64935380D01*
X124396571Y-64935380D01*
X124491809Y-64887761D01*
X124539428Y-64840142D01*
X124777523Y-65030619D02*
X125539428Y-65030619D01*
X126348952Y-64840142D02*
X126301333Y-64887761D01*
X126158476Y-64935380D01*
X126063238Y-64935380D01*
X125920380Y-64887761D01*
X125825142Y-64792523D01*
X125777523Y-64697285D01*
X125729904Y-64506809D01*
X125729904Y-64363952D01*
X125777523Y-64173476D01*
X125825142Y-64078238D01*
X125920380Y-63983000D01*
X126063238Y-63935380D01*
X126158476Y-63935380D01*
X126301333Y-63983000D01*
X126348952Y-64030619D01*
X126682285Y-63935380D02*
X127348952Y-63935380D01*
X126920380Y-64935380D01*
X104515142Y-69467714D02*
X104553238Y-69505809D01*
X104515142Y-69543904D01*
X104477047Y-69505809D01*
X104515142Y-69467714D01*
X104515142Y-69543904D01*
X104819904Y-68743904D02*
X105315142Y-68743904D01*
X105048476Y-69048666D01*
X105162761Y-69048666D01*
X105238952Y-69086761D01*
X105277047Y-69124857D01*
X105315142Y-69201047D01*
X105315142Y-69391523D01*
X105277047Y-69467714D01*
X105238952Y-69505809D01*
X105162761Y-69543904D01*
X104934190Y-69543904D01*
X104858000Y-69505809D01*
X104819904Y-69467714D01*
X105581809Y-68743904D02*
X106077047Y-68743904D01*
X105810380Y-69048666D01*
X105924666Y-69048666D01*
X106000857Y-69086761D01*
X106038952Y-69124857D01*
X106077047Y-69201047D01*
X106077047Y-69391523D01*
X106038952Y-69467714D01*
X106000857Y-69505809D01*
X105924666Y-69543904D01*
X105696095Y-69543904D01*
X105619904Y-69505809D01*
X105581809Y-69467714D01*
X106762761Y-69010571D02*
X106762761Y-69543904D01*
X106419904Y-69010571D02*
X106419904Y-69429619D01*
X106458000Y-69505809D01*
X106534190Y-69543904D01*
X106648476Y-69543904D01*
X106724666Y-69505809D01*
X106762761Y-69467714D01*
X107715142Y-68705809D02*
X107029428Y-69734380D01*
X107981809Y-69467714D02*
X108019904Y-69505809D01*
X107981809Y-69543904D01*
X107943714Y-69505809D01*
X107981809Y-69467714D01*
X107981809Y-69543904D01*
X108324666Y-68820095D02*
X108362761Y-68782000D01*
X108438952Y-68743904D01*
X108629428Y-68743904D01*
X108705619Y-68782000D01*
X108743714Y-68820095D01*
X108781809Y-68896285D01*
X108781809Y-68972476D01*
X108743714Y-69086761D01*
X108286571Y-69543904D01*
X108781809Y-69543904D01*
X109086571Y-68820095D02*
X109124666Y-68782000D01*
X109200857Y-68743904D01*
X109391333Y-68743904D01*
X109467523Y-68782000D01*
X109505619Y-68820095D01*
X109543714Y-68896285D01*
X109543714Y-68972476D01*
X109505619Y-69086761D01*
X109048476Y-69543904D01*
X109543714Y-69543904D01*
X110229428Y-69010571D02*
X110229428Y-69543904D01*
X109886571Y-69010571D02*
X109886571Y-69429619D01*
X109924666Y-69505809D01*
X110000857Y-69543904D01*
X110115142Y-69543904D01*
X110191333Y-69505809D01*
X110229428Y-69467714D01*
X110419904Y-69620095D02*
X111029428Y-69620095D01*
X111677047Y-69467714D02*
X111638952Y-69505809D01*
X111524666Y-69543904D01*
X111448476Y-69543904D01*
X111334190Y-69505809D01*
X111258000Y-69429619D01*
X111219904Y-69353428D01*
X111181809Y-69201047D01*
X111181809Y-69086761D01*
X111219904Y-68934380D01*
X111258000Y-68858190D01*
X111334190Y-68782000D01*
X111448476Y-68743904D01*
X111524666Y-68743904D01*
X111638952Y-68782000D01*
X111677047Y-68820095D01*
X112362761Y-69010571D02*
X112362761Y-69543904D01*
X112172285Y-68705809D02*
X111981809Y-69277238D01*
X112477047Y-69277238D01*
D11*
X113768571Y-90384285D02*
X113797142Y-90412857D01*
X113768571Y-90441428D01*
X113740000Y-90412857D01*
X113768571Y-90384285D01*
X113768571Y-90441428D01*
X113997142Y-89841428D02*
X114368571Y-89841428D01*
X114168571Y-90070000D01*
X114254285Y-90070000D01*
X114311428Y-90098571D01*
X114340000Y-90127142D01*
X114368571Y-90184285D01*
X114368571Y-90327142D01*
X114340000Y-90384285D01*
X114311428Y-90412857D01*
X114254285Y-90441428D01*
X114082857Y-90441428D01*
X114025714Y-90412857D01*
X113997142Y-90384285D01*
X114568571Y-89841428D02*
X114940000Y-89841428D01*
X114740000Y-90070000D01*
X114825714Y-90070000D01*
X114882857Y-90098571D01*
X114911428Y-90127142D01*
X114940000Y-90184285D01*
X114940000Y-90327142D01*
X114911428Y-90384285D01*
X114882857Y-90412857D01*
X114825714Y-90441428D01*
X114654285Y-90441428D01*
X114597142Y-90412857D01*
X114568571Y-90384285D01*
X115454285Y-90041428D02*
X115454285Y-90441428D01*
X115197142Y-90041428D02*
X115197142Y-90355714D01*
X115225714Y-90412857D01*
X115282857Y-90441428D01*
X115368571Y-90441428D01*
X115425714Y-90412857D01*
X115454285Y-90384285D01*
X116168571Y-89812857D02*
X115654285Y-90584285D01*
X116682857Y-90441428D02*
X116340000Y-90441428D01*
X116511428Y-90441428D02*
X116511428Y-89841428D01*
X116454285Y-89927142D01*
X116397142Y-89984285D01*
X116340000Y-90012857D01*
X117054285Y-89841428D02*
X117111428Y-89841428D01*
X117168571Y-89870000D01*
X117197142Y-89898571D01*
X117225714Y-89955714D01*
X117254285Y-90070000D01*
X117254285Y-90212857D01*
X117225714Y-90327142D01*
X117197142Y-90384285D01*
X117168571Y-90412857D01*
X117111428Y-90441428D01*
X117054285Y-90441428D01*
X116997142Y-90412857D01*
X116968571Y-90384285D01*
X116940000Y-90327142D01*
X116911428Y-90212857D01*
X116911428Y-90070000D01*
X116940000Y-89955714D01*
X116968571Y-89898571D01*
X116997142Y-89870000D01*
X117054285Y-89841428D01*
X117625714Y-89841428D02*
X117682857Y-89841428D01*
X117740000Y-89870000D01*
X117768571Y-89898571D01*
X117797142Y-89955714D01*
X117825714Y-90070000D01*
X117825714Y-90212857D01*
X117797142Y-90327142D01*
X117768571Y-90384285D01*
X117740000Y-90412857D01*
X117682857Y-90441428D01*
X117625714Y-90441428D01*
X117568571Y-90412857D01*
X117540000Y-90384285D01*
X117511428Y-90327142D01*
X117482857Y-90212857D01*
X117482857Y-90070000D01*
X117511428Y-89955714D01*
X117540000Y-89898571D01*
X117568571Y-89870000D01*
X117625714Y-89841428D01*
X118082857Y-90441428D02*
X118082857Y-89841428D01*
X118140000Y-90212857D02*
X118311428Y-90441428D01*
X118311428Y-90041428D02*
X118082857Y-90270000D01*
X118425714Y-90498571D02*
X118882857Y-90498571D01*
X119368571Y-90384285D02*
X119340000Y-90412857D01*
X119254285Y-90441428D01*
X119197142Y-90441428D01*
X119111428Y-90412857D01*
X119054285Y-90355714D01*
X119025714Y-90298571D01*
X118997142Y-90184285D01*
X118997142Y-90098571D01*
X119025714Y-89984285D01*
X119054285Y-89927142D01*
X119111428Y-89870000D01*
X119197142Y-89841428D01*
X119254285Y-89841428D01*
X119340000Y-89870000D01*
X119368571Y-89898571D01*
X119882857Y-89841428D02*
X119768571Y-89841428D01*
X119711428Y-89870000D01*
X119682857Y-89898571D01*
X119625714Y-89984285D01*
X119597142Y-90098571D01*
X119597142Y-90327142D01*
X119625714Y-90384285D01*
X119654285Y-90412857D01*
X119711428Y-90441428D01*
X119825714Y-90441428D01*
X119882857Y-90412857D01*
X119911428Y-90384285D01*
X119940000Y-90327142D01*
X119940000Y-90184285D01*
X119911428Y-90127142D01*
X119882857Y-90098571D01*
X119825714Y-90070000D01*
X119711428Y-90070000D01*
X119654285Y-90098571D01*
X119625714Y-90127142D01*
X119597142Y-90184285D01*
D10*
X122482380Y-77604761D02*
X122482380Y-77509523D01*
X122530000Y-77414285D01*
X122577619Y-77366666D01*
X122672857Y-77319047D01*
X122863333Y-77271428D01*
X123101428Y-77271428D01*
X123291904Y-77319047D01*
X123387142Y-77366666D01*
X123434761Y-77414285D01*
X123482380Y-77509523D01*
X123482380Y-77604761D01*
X123434761Y-77700000D01*
X123387142Y-77747619D01*
X123291904Y-77795238D01*
X123101428Y-77842857D01*
X122863333Y-77842857D01*
X122672857Y-77795238D01*
X122577619Y-77747619D01*
X122530000Y-77700000D01*
X122482380Y-77604761D01*
X123577619Y-77080952D02*
X123577619Y-76319047D01*
X123482380Y-75509523D02*
X123006190Y-75842857D01*
X123482380Y-76080952D02*
X122482380Y-76080952D01*
X122482380Y-75700000D01*
X122530000Y-75604761D01*
X122577619Y-75557142D01*
X122672857Y-75509523D01*
X122815714Y-75509523D01*
X122910952Y-75557142D01*
X122958571Y-75604761D01*
X123006190Y-75700000D01*
X123006190Y-76080952D01*
X122577619Y-75128571D02*
X122530000Y-75080952D01*
X122482380Y-74985714D01*
X122482380Y-74747619D01*
X122530000Y-74652380D01*
X122577619Y-74604761D01*
X122672857Y-74557142D01*
X122768095Y-74557142D01*
X122910952Y-74604761D01*
X123482380Y-75176190D01*
X123482380Y-74557142D01*
D11*
X120664428Y-83204428D02*
X120721571Y-83204428D01*
X120778714Y-83233000D01*
X120807285Y-83261571D01*
X120835857Y-83318714D01*
X120864428Y-83433000D01*
X120864428Y-83575857D01*
X120835857Y-83690142D01*
X120807285Y-83747285D01*
X120778714Y-83775857D01*
X120721571Y-83804428D01*
X120664428Y-83804428D01*
X120607285Y-83775857D01*
X120578714Y-83747285D01*
X120550142Y-83690142D01*
X120521571Y-83575857D01*
X120521571Y-83433000D01*
X120550142Y-83318714D01*
X120578714Y-83261571D01*
X120607285Y-83233000D01*
X120664428Y-83204428D01*
X120978714Y-83861571D02*
X121435857Y-83861571D01*
X121921571Y-83804428D02*
X121721571Y-83518714D01*
X121578714Y-83804428D02*
X121578714Y-83204428D01*
X121807285Y-83204428D01*
X121864428Y-83233000D01*
X121893000Y-83261571D01*
X121921571Y-83318714D01*
X121921571Y-83404428D01*
X121893000Y-83461571D01*
X121864428Y-83490142D01*
X121807285Y-83518714D01*
X121578714Y-83518714D01*
X122493000Y-83804428D02*
X122150142Y-83804428D01*
X122321571Y-83804428D02*
X122321571Y-83204428D01*
X122264428Y-83290142D01*
X122207285Y-83347285D01*
X122150142Y-83375857D01*
X123035857Y-83204428D02*
X122750142Y-83204428D01*
X122721571Y-83490142D01*
X122750142Y-83461571D01*
X122807285Y-83433000D01*
X122950142Y-83433000D01*
X123007285Y-83461571D01*
X123035857Y-83490142D01*
X123064428Y-83547285D01*
X123064428Y-83690142D01*
X123035857Y-83747285D01*
X123007285Y-83775857D01*
X122950142Y-83804428D01*
X122807285Y-83804428D01*
X122750142Y-83775857D01*
X122721571Y-83747285D01*
D10*
X112287238Y-67158904D02*
X112363428Y-67158904D01*
X112439619Y-67197000D01*
X112477714Y-67235095D01*
X112515809Y-67311285D01*
X112553904Y-67463666D01*
X112553904Y-67654142D01*
X112515809Y-67806523D01*
X112477714Y-67882714D01*
X112439619Y-67920809D01*
X112363428Y-67958904D01*
X112287238Y-67958904D01*
X112211047Y-67920809D01*
X112172952Y-67882714D01*
X112134857Y-67806523D01*
X112096761Y-67654142D01*
X112096761Y-67463666D01*
X112134857Y-67311285D01*
X112172952Y-67235095D01*
X112211047Y-67197000D01*
X112287238Y-67158904D01*
X112706285Y-68035095D02*
X113315809Y-68035095D01*
X113963428Y-67958904D02*
X113696761Y-67577952D01*
X113506285Y-67958904D02*
X113506285Y-67158904D01*
X113811047Y-67158904D01*
X113887238Y-67197000D01*
X113925333Y-67235095D01*
X113963428Y-67311285D01*
X113963428Y-67425571D01*
X113925333Y-67501761D01*
X113887238Y-67539857D01*
X113811047Y-67577952D01*
X113506285Y-67577952D01*
X114725333Y-67958904D02*
X114268190Y-67958904D01*
X114496761Y-67958904D02*
X114496761Y-67158904D01*
X114420571Y-67273190D01*
X114344380Y-67349380D01*
X114268190Y-67387476D01*
X114992000Y-67158904D02*
X115525333Y-67158904D01*
X115182476Y-67958904D01*
D14*
X122591904Y-82149761D02*
X122591904Y-82073571D01*
X122630000Y-81997380D01*
X122668095Y-81959285D01*
X122744285Y-81921190D01*
X122896666Y-81883095D01*
X123087142Y-81883095D01*
X123239523Y-81921190D01*
X123315714Y-81959285D01*
X123353809Y-81997380D01*
X123391904Y-82073571D01*
X123391904Y-82149761D01*
X123353809Y-82225952D01*
X123315714Y-82264047D01*
X123239523Y-82302142D01*
X123087142Y-82340238D01*
X122896666Y-82340238D01*
X122744285Y-82302142D01*
X122668095Y-82264047D01*
X122630000Y-82225952D01*
X122591904Y-82149761D01*
X123468095Y-81730714D02*
X123468095Y-81121190D01*
X123391904Y-80473571D02*
X123010952Y-80740238D01*
X123391904Y-80930714D02*
X122591904Y-80930714D01*
X122591904Y-80625952D01*
X122630000Y-80549761D01*
X122668095Y-80511666D01*
X122744285Y-80473571D01*
X122858571Y-80473571D01*
X122934761Y-80511666D01*
X122972857Y-80549761D01*
X123010952Y-80625952D01*
X123010952Y-80930714D01*
X123391904Y-79711666D02*
X123391904Y-80168809D01*
X123391904Y-79940238D02*
X122591904Y-79940238D01*
X122706190Y-80016428D01*
X122782380Y-80092619D01*
X122820476Y-80168809D01*
X123391904Y-79330714D02*
X123391904Y-79178333D01*
X123353809Y-79102142D01*
X123315714Y-79064047D01*
X123201428Y-78987857D01*
X123049047Y-78949761D01*
X122744285Y-78949761D01*
X122668095Y-78987857D01*
X122630000Y-79025952D01*
X122591904Y-79102142D01*
X122591904Y-79254523D01*
X122630000Y-79330714D01*
X122668095Y-79368809D01*
X122744285Y-79406904D01*
X122934761Y-79406904D01*
X123010952Y-79368809D01*
X123049047Y-79330714D01*
X123087142Y-79254523D01*
X123087142Y-79102142D01*
X123049047Y-79025952D01*
X123010952Y-78987857D01*
X122934761Y-78949761D01*
D11*
X126417428Y-81646571D02*
X126417428Y-81589428D01*
X126446000Y-81532285D01*
X126474571Y-81503714D01*
X126531714Y-81475142D01*
X126646000Y-81446571D01*
X126788857Y-81446571D01*
X126903142Y-81475142D01*
X126960285Y-81503714D01*
X126988857Y-81532285D01*
X127017428Y-81589428D01*
X127017428Y-81646571D01*
X126988857Y-81703714D01*
X126960285Y-81732285D01*
X126903142Y-81760857D01*
X126788857Y-81789428D01*
X126646000Y-81789428D01*
X126531714Y-81760857D01*
X126474571Y-81732285D01*
X126446000Y-81703714D01*
X126417428Y-81646571D01*
X127074571Y-81332285D02*
X127074571Y-80875142D01*
X127017428Y-80389428D02*
X126731714Y-80589428D01*
X127017428Y-80732285D02*
X126417428Y-80732285D01*
X126417428Y-80503714D01*
X126446000Y-80446571D01*
X126474571Y-80418000D01*
X126531714Y-80389428D01*
X126617428Y-80389428D01*
X126674571Y-80418000D01*
X126703142Y-80446571D01*
X126731714Y-80503714D01*
X126731714Y-80732285D01*
X126474571Y-80160857D02*
X126446000Y-80132285D01*
X126417428Y-80075142D01*
X126417428Y-79932285D01*
X126446000Y-79875142D01*
X126474571Y-79846571D01*
X126531714Y-79818000D01*
X126588857Y-79818000D01*
X126674571Y-79846571D01*
X127017428Y-80189428D01*
X127017428Y-79818000D01*
X127017428Y-79246571D02*
X127017428Y-79589428D01*
X127017428Y-79418000D02*
X126417428Y-79418000D01*
X126503142Y-79475142D01*
X126560285Y-79532285D01*
X126588857Y-79589428D01*
X118412000Y-87139428D02*
X118069142Y-87139428D01*
X118240571Y-87139428D02*
X118240571Y-86539428D01*
X118183428Y-86625142D01*
X118126285Y-86682285D01*
X118069142Y-86710857D01*
X118669142Y-87082285D02*
X118697714Y-87110857D01*
X118669142Y-87139428D01*
X118640571Y-87110857D01*
X118669142Y-87082285D01*
X118669142Y-87139428D01*
X119212000Y-86739428D02*
X119212000Y-87139428D01*
X119069142Y-86510857D02*
X118926285Y-86939428D01*
X119297714Y-86939428D01*
X119526285Y-87139428D02*
X119526285Y-86539428D01*
X119726285Y-86968000D01*
X119926285Y-86539428D01*
X119926285Y-87139428D01*
X120640571Y-86510857D02*
X120126285Y-87282285D01*
X120812000Y-86596571D02*
X120840571Y-86568000D01*
X120897714Y-86539428D01*
X121040571Y-86539428D01*
X121097714Y-86568000D01*
X121126285Y-86596571D01*
X121154857Y-86653714D01*
X121154857Y-86710857D01*
X121126285Y-86796571D01*
X120783428Y-87139428D01*
X121154857Y-87139428D01*
X121412000Y-87082285D02*
X121440571Y-87110857D01*
X121412000Y-87139428D01*
X121383428Y-87110857D01*
X121412000Y-87082285D01*
X121412000Y-87139428D01*
X121669142Y-86596571D02*
X121697714Y-86568000D01*
X121754857Y-86539428D01*
X121897714Y-86539428D01*
X121954857Y-86568000D01*
X121983428Y-86596571D01*
X122012000Y-86653714D01*
X122012000Y-86710857D01*
X121983428Y-86796571D01*
X121640571Y-87139428D01*
X122012000Y-87139428D01*
X122526285Y-86739428D02*
X122526285Y-87139428D01*
X122269142Y-86739428D02*
X122269142Y-87053714D01*
X122297714Y-87110857D01*
X122354857Y-87139428D01*
X122440571Y-87139428D01*
X122497714Y-87110857D01*
X122526285Y-87082285D01*
X122669142Y-87196571D02*
X123126285Y-87196571D01*
X123612000Y-87139428D02*
X123412000Y-86853714D01*
X123269142Y-87139428D02*
X123269142Y-86539428D01*
X123497714Y-86539428D01*
X123554857Y-86568000D01*
X123583428Y-86596571D01*
X123612000Y-86653714D01*
X123612000Y-86739428D01*
X123583428Y-86796571D01*
X123554857Y-86825142D01*
X123497714Y-86853714D01*
X123269142Y-86853714D01*
X124183428Y-87139428D02*
X123840571Y-87139428D01*
X124012000Y-87139428D02*
X124012000Y-86539428D01*
X123954857Y-86625142D01*
X123897714Y-86682285D01*
X123840571Y-86710857D01*
X124412000Y-86596571D02*
X124440571Y-86568000D01*
X124497714Y-86539428D01*
X124640571Y-86539428D01*
X124697714Y-86568000D01*
X124726285Y-86596571D01*
X124754857Y-86653714D01*
X124754857Y-86710857D01*
X124726285Y-86796571D01*
X124383428Y-87139428D01*
X124754857Y-87139428D01*
X109655142Y-90441428D02*
X109312285Y-90441428D01*
X109483714Y-90441428D02*
X109483714Y-89841428D01*
X109426571Y-89927142D01*
X109369428Y-89984285D01*
X109312285Y-90012857D01*
X109912285Y-90384285D02*
X109940857Y-90412857D01*
X109912285Y-90441428D01*
X109883714Y-90412857D01*
X109912285Y-90384285D01*
X109912285Y-90441428D01*
X110483714Y-89841428D02*
X110198000Y-89841428D01*
X110169428Y-90127142D01*
X110198000Y-90098571D01*
X110255142Y-90070000D01*
X110398000Y-90070000D01*
X110455142Y-90098571D01*
X110483714Y-90127142D01*
X110512285Y-90184285D01*
X110512285Y-90327142D01*
X110483714Y-90384285D01*
X110455142Y-90412857D01*
X110398000Y-90441428D01*
X110255142Y-90441428D01*
X110198000Y-90412857D01*
X110169428Y-90384285D01*
X110769428Y-90041428D02*
X110769428Y-90441428D01*
X110769428Y-90098571D02*
X110798000Y-90070000D01*
X110855142Y-90041428D01*
X110940857Y-90041428D01*
X110998000Y-90070000D01*
X111026571Y-90127142D01*
X111026571Y-90441428D01*
X111169428Y-90498571D02*
X111626571Y-90498571D01*
X112112285Y-90384285D02*
X112083714Y-90412857D01*
X111998000Y-90441428D01*
X111940857Y-90441428D01*
X111855142Y-90412857D01*
X111798000Y-90355714D01*
X111769428Y-90298571D01*
X111740857Y-90184285D01*
X111740857Y-90098571D01*
X111769428Y-89984285D01*
X111798000Y-89927142D01*
X111855142Y-89870000D01*
X111940857Y-89841428D01*
X111998000Y-89841428D01*
X112083714Y-89870000D01*
X112112285Y-89898571D01*
X112683714Y-90441428D02*
X112340857Y-90441428D01*
X112512285Y-90441428D02*
X112512285Y-89841428D01*
X112455142Y-89927142D01*
X112398000Y-89984285D01*
X112340857Y-90012857D01*
X124907857Y-83804428D02*
X124565000Y-83804428D01*
X124736428Y-83804428D02*
X124736428Y-83204428D01*
X124679285Y-83290142D01*
X124622142Y-83347285D01*
X124565000Y-83375857D01*
X125279285Y-83204428D02*
X125336428Y-83204428D01*
X125393571Y-83233000D01*
X125422142Y-83261571D01*
X125450714Y-83318714D01*
X125479285Y-83433000D01*
X125479285Y-83575857D01*
X125450714Y-83690142D01*
X125422142Y-83747285D01*
X125393571Y-83775857D01*
X125336428Y-83804428D01*
X125279285Y-83804428D01*
X125222142Y-83775857D01*
X125193571Y-83747285D01*
X125165000Y-83690142D01*
X125136428Y-83575857D01*
X125136428Y-83433000D01*
X125165000Y-83318714D01*
X125193571Y-83261571D01*
X125222142Y-83233000D01*
X125279285Y-83204428D01*
X125850714Y-83204428D02*
X125907857Y-83204428D01*
X125965000Y-83233000D01*
X125993571Y-83261571D01*
X126022142Y-83318714D01*
X126050714Y-83433000D01*
X126050714Y-83575857D01*
X126022142Y-83690142D01*
X125993571Y-83747285D01*
X125965000Y-83775857D01*
X125907857Y-83804428D01*
X125850714Y-83804428D01*
X125793571Y-83775857D01*
X125765000Y-83747285D01*
X125736428Y-83690142D01*
X125707857Y-83575857D01*
X125707857Y-83433000D01*
X125736428Y-83318714D01*
X125765000Y-83261571D01*
X125793571Y-83233000D01*
X125850714Y-83204428D01*
X126307857Y-83804428D02*
X126307857Y-83204428D01*
X126365000Y-83575857D02*
X126536428Y-83804428D01*
X126536428Y-83404428D02*
X126307857Y-83633000D01*
X126650714Y-83861571D02*
X127107857Y-83861571D01*
X127593571Y-83804428D02*
X127393571Y-83518714D01*
X127250714Y-83804428D02*
X127250714Y-83204428D01*
X127479285Y-83204428D01*
X127536428Y-83233000D01*
X127565000Y-83261571D01*
X127593571Y-83318714D01*
X127593571Y-83404428D01*
X127565000Y-83461571D01*
X127536428Y-83490142D01*
X127479285Y-83518714D01*
X127250714Y-83518714D01*
X127936428Y-83461571D02*
X127879285Y-83433000D01*
X127850714Y-83404428D01*
X127822142Y-83347285D01*
X127822142Y-83318714D01*
X127850714Y-83261571D01*
X127879285Y-83233000D01*
X127936428Y-83204428D01*
X128050714Y-83204428D01*
X128107857Y-83233000D01*
X128136428Y-83261571D01*
X128165000Y-83318714D01*
X128165000Y-83347285D01*
X128136428Y-83404428D01*
X128107857Y-83433000D01*
X128050714Y-83461571D01*
X127936428Y-83461571D01*
X127879285Y-83490142D01*
X127850714Y-83518714D01*
X127822142Y-83575857D01*
X127822142Y-83690142D01*
X127850714Y-83747285D01*
X127879285Y-83775857D01*
X127936428Y-83804428D01*
X128050714Y-83804428D01*
X128107857Y-83775857D01*
X128136428Y-83747285D01*
X128165000Y-83690142D01*
X128165000Y-83575857D01*
X128136428Y-83518714D01*
X128107857Y-83490142D01*
X128050714Y-83461571D01*
D10*
X110815761Y-72367380D02*
X110244333Y-72367380D01*
X110530047Y-72367380D02*
X110530047Y-71367380D01*
X110434809Y-71510238D01*
X110339571Y-71605476D01*
X110244333Y-71653095D01*
X111434809Y-71367380D02*
X111530047Y-71367380D01*
X111625285Y-71415000D01*
X111672904Y-71462619D01*
X111720523Y-71557857D01*
X111768142Y-71748333D01*
X111768142Y-71986428D01*
X111720523Y-72176904D01*
X111672904Y-72272142D01*
X111625285Y-72319761D01*
X111530047Y-72367380D01*
X111434809Y-72367380D01*
X111339571Y-72319761D01*
X111291952Y-72272142D01*
X111244333Y-72176904D01*
X111196714Y-71986428D01*
X111196714Y-71748333D01*
X111244333Y-71557857D01*
X111291952Y-71462619D01*
X111339571Y-71415000D01*
X111434809Y-71367380D01*
X112196714Y-72367380D02*
X112196714Y-71367380D01*
X112530047Y-72081666D01*
X112863380Y-71367380D01*
X112863380Y-72367380D01*
X113101476Y-72462619D02*
X113863380Y-72462619D01*
X114672904Y-72367380D02*
X114339571Y-71891190D01*
X114101476Y-72367380D02*
X114101476Y-71367380D01*
X114482428Y-71367380D01*
X114577666Y-71415000D01*
X114625285Y-71462619D01*
X114672904Y-71557857D01*
X114672904Y-71700714D01*
X114625285Y-71795952D01*
X114577666Y-71843571D01*
X114482428Y-71891190D01*
X114101476Y-71891190D01*
X115625285Y-72367380D02*
X115053857Y-72367380D01*
X115339571Y-72367380D02*
X115339571Y-71367380D01*
X115244333Y-71510238D01*
X115149095Y-71605476D01*
X115053857Y-71653095D01*
X116244333Y-71367380D02*
X116339571Y-71367380D01*
X116434809Y-71415000D01*
X116482428Y-71462619D01*
X116530047Y-71557857D01*
X116577666Y-71748333D01*
X116577666Y-71986428D01*
X116530047Y-72176904D01*
X116482428Y-72272142D01*
X116434809Y-72319761D01*
X116339571Y-72367380D01*
X116244333Y-72367380D01*
X116149095Y-72319761D01*
X116101476Y-72272142D01*
X116053857Y-72176904D01*
X116006238Y-71986428D01*
X116006238Y-71748333D01*
X116053857Y-71557857D01*
X116101476Y-71462619D01*
X116149095Y-71415000D01*
X116244333Y-71367380D01*
X105608761Y-68049380D02*
X105037333Y-68049380D01*
X105323047Y-68049380D02*
X105323047Y-67049380D01*
X105227809Y-67192238D01*
X105132571Y-67287476D01*
X105037333Y-67335095D01*
X106227809Y-67049380D02*
X106323047Y-67049380D01*
X106418285Y-67097000D01*
X106465904Y-67144619D01*
X106513523Y-67239857D01*
X106561142Y-67430333D01*
X106561142Y-67668428D01*
X106513523Y-67858904D01*
X106465904Y-67954142D01*
X106418285Y-68001761D01*
X106323047Y-68049380D01*
X106227809Y-68049380D01*
X106132571Y-68001761D01*
X106084952Y-67954142D01*
X106037333Y-67858904D01*
X105989714Y-67668428D01*
X105989714Y-67430333D01*
X106037333Y-67239857D01*
X106084952Y-67144619D01*
X106132571Y-67097000D01*
X106227809Y-67049380D01*
X106989714Y-68049380D02*
X106989714Y-67049380D01*
X107323047Y-67763666D01*
X107656380Y-67049380D01*
X107656380Y-68049380D01*
X107894476Y-68144619D02*
X108656380Y-68144619D01*
X109465904Y-68049380D02*
X109132571Y-67573190D01*
X108894476Y-68049380D02*
X108894476Y-67049380D01*
X109275428Y-67049380D01*
X109370666Y-67097000D01*
X109418285Y-67144619D01*
X109465904Y-67239857D01*
X109465904Y-67382714D01*
X109418285Y-67477952D01*
X109370666Y-67525571D01*
X109275428Y-67573190D01*
X108894476Y-67573190D01*
X110418285Y-68049380D02*
X109846857Y-68049380D01*
X110132571Y-68049380D02*
X110132571Y-67049380D01*
X110037333Y-67192238D01*
X109942095Y-67287476D01*
X109846857Y-67335095D01*
X111370666Y-68049380D02*
X110799238Y-68049380D01*
X111084952Y-68049380D02*
X111084952Y-67049380D01*
X110989714Y-67192238D01*
X110894476Y-67287476D01*
X110799238Y-67335095D01*
X116795809Y-64971904D02*
X116338666Y-64971904D01*
X116567238Y-64971904D02*
X116567238Y-64171904D01*
X116491047Y-64286190D01*
X116414857Y-64362380D01*
X116338666Y-64400476D01*
X117291047Y-64171904D02*
X117367238Y-64171904D01*
X117443428Y-64210000D01*
X117481523Y-64248095D01*
X117519619Y-64324285D01*
X117557714Y-64476666D01*
X117557714Y-64667142D01*
X117519619Y-64819523D01*
X117481523Y-64895714D01*
X117443428Y-64933809D01*
X117367238Y-64971904D01*
X117291047Y-64971904D01*
X117214857Y-64933809D01*
X117176761Y-64895714D01*
X117138666Y-64819523D01*
X117100571Y-64667142D01*
X117100571Y-64476666D01*
X117138666Y-64324285D01*
X117176761Y-64248095D01*
X117214857Y-64210000D01*
X117291047Y-64171904D01*
X117900571Y-64971904D02*
X117900571Y-64171904D01*
X118167238Y-64743333D01*
X118433904Y-64171904D01*
X118433904Y-64971904D01*
X118624380Y-65048095D02*
X119233904Y-65048095D01*
X119881523Y-64971904D02*
X119614857Y-64590952D01*
X119424380Y-64971904D02*
X119424380Y-64171904D01*
X119729142Y-64171904D01*
X119805333Y-64210000D01*
X119843428Y-64248095D01*
X119881523Y-64324285D01*
X119881523Y-64438571D01*
X119843428Y-64514761D01*
X119805333Y-64552857D01*
X119729142Y-64590952D01*
X119424380Y-64590952D01*
X120643428Y-64971904D02*
X120186285Y-64971904D01*
X120414857Y-64971904D02*
X120414857Y-64171904D01*
X120338666Y-64286190D01*
X120262476Y-64362380D01*
X120186285Y-64400476D01*
X120910095Y-64171904D02*
X121405333Y-64171904D01*
X121138666Y-64476666D01*
X121252952Y-64476666D01*
X121329142Y-64514761D01*
X121367238Y-64552857D01*
X121405333Y-64629047D01*
X121405333Y-64819523D01*
X121367238Y-64895714D01*
X121329142Y-64933809D01*
X121252952Y-64971904D01*
X121024380Y-64971904D01*
X120948190Y-64933809D01*
X120910095Y-64895714D01*
X117049809Y-68941904D02*
X116592666Y-68941904D01*
X116821238Y-68941904D02*
X116821238Y-68141904D01*
X116745047Y-68256190D01*
X116668857Y-68332380D01*
X116592666Y-68370476D01*
X117545047Y-68141904D02*
X117621238Y-68141904D01*
X117697428Y-68180000D01*
X117735523Y-68218095D01*
X117773619Y-68294285D01*
X117811714Y-68446666D01*
X117811714Y-68637142D01*
X117773619Y-68789523D01*
X117735523Y-68865714D01*
X117697428Y-68903809D01*
X117621238Y-68941904D01*
X117545047Y-68941904D01*
X117468857Y-68903809D01*
X117430761Y-68865714D01*
X117392666Y-68789523D01*
X117354571Y-68637142D01*
X117354571Y-68446666D01*
X117392666Y-68294285D01*
X117430761Y-68218095D01*
X117468857Y-68180000D01*
X117545047Y-68141904D01*
X118154571Y-68941904D02*
X118154571Y-68141904D01*
X118421238Y-68713333D01*
X118687904Y-68141904D01*
X118687904Y-68941904D01*
X118878380Y-69018095D02*
X119487904Y-69018095D01*
X120135523Y-68941904D02*
X119868857Y-68560952D01*
X119678380Y-68941904D02*
X119678380Y-68141904D01*
X119983142Y-68141904D01*
X120059333Y-68180000D01*
X120097428Y-68218095D01*
X120135523Y-68294285D01*
X120135523Y-68408571D01*
X120097428Y-68484761D01*
X120059333Y-68522857D01*
X119983142Y-68560952D01*
X119678380Y-68560952D01*
X120897428Y-68941904D02*
X120440285Y-68941904D01*
X120668857Y-68941904D02*
X120668857Y-68141904D01*
X120592666Y-68256190D01*
X120516476Y-68332380D01*
X120440285Y-68370476D01*
X121583142Y-68408571D02*
X121583142Y-68941904D01*
X121392666Y-68103809D02*
X121202190Y-68675238D01*
X121697428Y-68675238D01*
X114191420Y-83764380D02*
X113619991Y-83764380D01*
X113905705Y-83764380D02*
X113905705Y-82764380D01*
X113810467Y-82907238D01*
X113715229Y-83002476D01*
X113619991Y-83050095D01*
X114810467Y-82764380D02*
X114905705Y-82764380D01*
X115000943Y-82812000D01*
X115048562Y-82859619D01*
X115096181Y-82954857D01*
X115143800Y-83145333D01*
X115143800Y-83383428D01*
X115096181Y-83573904D01*
X115048562Y-83669142D01*
X115000943Y-83716761D01*
X114905705Y-83764380D01*
X114810467Y-83764380D01*
X114715229Y-83716761D01*
X114667610Y-83669142D01*
X114619991Y-83573904D01*
X114572372Y-83383428D01*
X114572372Y-83145333D01*
X114619991Y-82954857D01*
X114667610Y-82859619D01*
X114715229Y-82812000D01*
X114810467Y-82764380D01*
X115572372Y-83097714D02*
X115572372Y-83764380D01*
X115572372Y-83192952D02*
X115619991Y-83145333D01*
X115715229Y-83097714D01*
X115858086Y-83097714D01*
X115953324Y-83145333D01*
X116000943Y-83240571D01*
X116000943Y-83764380D01*
X116239039Y-83859619D02*
X117000943Y-83859619D01*
X117810467Y-83669142D02*
X117762848Y-83716761D01*
X117619991Y-83764380D01*
X117524753Y-83764380D01*
X117381896Y-83716761D01*
X117286658Y-83621523D01*
X117239039Y-83526285D01*
X117191420Y-83335809D01*
X117191420Y-83192952D01*
X117239039Y-83002476D01*
X117286658Y-82907238D01*
X117381896Y-82812000D01*
X117524753Y-82764380D01*
X117619991Y-82764380D01*
X117762848Y-82812000D01*
X117810467Y-82859619D01*
X118143800Y-82764380D02*
X118762848Y-82764380D01*
X118429515Y-83145333D01*
X118572372Y-83145333D01*
X118667610Y-83192952D01*
X118715229Y-83240571D01*
X118762848Y-83335809D01*
X118762848Y-83573904D01*
X118715229Y-83669142D01*
X118667610Y-83716761D01*
X118572372Y-83764380D01*
X118286658Y-83764380D01*
X118191420Y-83716761D01*
X118143800Y-83669142D01*
X101989142Y-65062380D02*
X101417714Y-65062380D01*
X101703428Y-65062380D02*
X101703428Y-64062380D01*
X101608190Y-64205238D01*
X101512952Y-64300476D01*
X101417714Y-64348095D01*
X102417714Y-65062380D02*
X102417714Y-64062380D01*
X102751047Y-64776666D01*
X103084380Y-64062380D01*
X103084380Y-65062380D01*
X103322476Y-65157619D02*
X104084380Y-65157619D01*
X104893904Y-65062380D02*
X104560571Y-64586190D01*
X104322476Y-65062380D02*
X104322476Y-64062380D01*
X104703428Y-64062380D01*
X104798666Y-64110000D01*
X104846285Y-64157619D01*
X104893904Y-64252857D01*
X104893904Y-64395714D01*
X104846285Y-64490952D01*
X104798666Y-64538571D01*
X104703428Y-64586190D01*
X104322476Y-64586190D01*
X105751047Y-64062380D02*
X105560571Y-64062380D01*
X105465333Y-64110000D01*
X105417714Y-64157619D01*
X105322476Y-64300476D01*
X105274857Y-64490952D01*
X105274857Y-64871904D01*
X105322476Y-64967142D01*
X105370095Y-65014761D01*
X105465333Y-65062380D01*
X105655809Y-65062380D01*
X105751047Y-65014761D01*
X105798666Y-64967142D01*
X105846285Y-64871904D01*
X105846285Y-64633809D01*
X105798666Y-64538571D01*
X105751047Y-64490952D01*
X105655809Y-64443333D01*
X105465333Y-64443333D01*
X105370095Y-64490952D01*
X105322476Y-64538571D01*
X105274857Y-64633809D01*
X109355142Y-84112380D02*
X108783714Y-84112380D01*
X109069428Y-84112380D02*
X109069428Y-83112380D01*
X108974190Y-83255238D01*
X108878952Y-83350476D01*
X108783714Y-83398095D01*
X109783714Y-84112380D02*
X109783714Y-83112380D01*
X110117047Y-83826666D01*
X110450380Y-83112380D01*
X110450380Y-84112380D01*
X110688476Y-84207619D02*
X111450380Y-84207619D01*
X112259904Y-84112380D02*
X111926571Y-83636190D01*
X111688476Y-84112380D02*
X111688476Y-83112380D01*
X112069428Y-83112380D01*
X112164666Y-83160000D01*
X112212285Y-83207619D01*
X112259904Y-83302857D01*
X112259904Y-83445714D01*
X112212285Y-83540952D01*
X112164666Y-83588571D01*
X112069428Y-83636190D01*
X111688476Y-83636190D01*
X112593238Y-83112380D02*
X113259904Y-83112380D01*
X112831333Y-84112380D01*
X103767142Y-87320380D02*
X103195714Y-87320380D01*
X103481428Y-87320380D02*
X103481428Y-86320380D01*
X103386190Y-86463238D01*
X103290952Y-86558476D01*
X103195714Y-86606095D01*
X104195714Y-87320380D02*
X104195714Y-86320380D01*
X104529047Y-87034666D01*
X104862380Y-86320380D01*
X104862380Y-87320380D01*
X105100476Y-87415619D02*
X105862380Y-87415619D01*
X106671904Y-87320380D02*
X106338571Y-86844190D01*
X106100476Y-87320380D02*
X106100476Y-86320380D01*
X106481428Y-86320380D01*
X106576666Y-86368000D01*
X106624285Y-86415619D01*
X106671904Y-86510857D01*
X106671904Y-86653714D01*
X106624285Y-86748952D01*
X106576666Y-86796571D01*
X106481428Y-86844190D01*
X106100476Y-86844190D01*
X107148095Y-87320380D02*
X107338571Y-87320380D01*
X107433809Y-87272761D01*
X107481428Y-87225142D01*
X107576666Y-87082285D01*
X107624285Y-86891809D01*
X107624285Y-86510857D01*
X107576666Y-86415619D01*
X107529047Y-86368000D01*
X107433809Y-86320380D01*
X107243333Y-86320380D01*
X107148095Y-86368000D01*
X107100476Y-86415619D01*
X107052857Y-86510857D01*
X107052857Y-86748952D01*
X107100476Y-86844190D01*
X107148095Y-86891809D01*
X107243333Y-86939428D01*
X107433809Y-86939428D01*
X107529047Y-86891809D01*
X107576666Y-86844190D01*
X107624285Y-86748952D01*
X124611047Y-89368380D02*
X124706285Y-89368380D01*
X124801523Y-89416000D01*
X124849142Y-89463619D01*
X124896761Y-89558857D01*
X124944380Y-89749333D01*
X124944380Y-89987428D01*
X124896761Y-90177904D01*
X124849142Y-90273142D01*
X124801523Y-90320761D01*
X124706285Y-90368380D01*
X124611047Y-90368380D01*
X124515809Y-90320761D01*
X124468190Y-90273142D01*
X124420571Y-90177904D01*
X124372952Y-89987428D01*
X124372952Y-89749333D01*
X124420571Y-89558857D01*
X124468190Y-89463619D01*
X124515809Y-89416000D01*
X124611047Y-89368380D01*
X125563428Y-89368380D02*
X125658666Y-89368380D01*
X125753904Y-89416000D01*
X125801523Y-89463619D01*
X125849142Y-89558857D01*
X125896761Y-89749333D01*
X125896761Y-89987428D01*
X125849142Y-90177904D01*
X125801523Y-90273142D01*
X125753904Y-90320761D01*
X125658666Y-90368380D01*
X125563428Y-90368380D01*
X125468190Y-90320761D01*
X125420571Y-90273142D01*
X125372952Y-90177904D01*
X125325333Y-89987428D01*
X125325333Y-89749333D01*
X125372952Y-89558857D01*
X125420571Y-89463619D01*
X125468190Y-89416000D01*
X125563428Y-89368380D01*
X126087238Y-90463619D02*
X126849142Y-90463619D01*
X127658666Y-90368380D02*
X127325333Y-89892190D01*
X127087238Y-90368380D02*
X127087238Y-89368380D01*
X127468190Y-89368380D01*
X127563428Y-89416000D01*
X127611047Y-89463619D01*
X127658666Y-89558857D01*
X127658666Y-89701714D01*
X127611047Y-89796952D01*
X127563428Y-89844571D01*
X127468190Y-89892190D01*
X127087238Y-89892190D01*
X128611047Y-90368380D02*
X128039619Y-90368380D01*
X128325333Y-90368380D02*
X128325333Y-89368380D01*
X128230095Y-89511238D01*
X128134857Y-89606476D01*
X128039619Y-89654095D01*
X96583571Y-69242380D02*
X96250238Y-68766190D01*
X96012142Y-69242380D02*
X96012142Y-68242380D01*
X96393095Y-68242380D01*
X96488333Y-68290000D01*
X96535952Y-68337619D01*
X96583571Y-68432857D01*
X96583571Y-68575714D01*
X96535952Y-68670952D01*
X96488333Y-68718571D01*
X96393095Y-68766190D01*
X96012142Y-68766190D01*
X97488333Y-69242380D02*
X97012142Y-69242380D01*
X97012142Y-68242380D01*
X98345476Y-69242380D02*
X97774047Y-69242380D01*
X98059761Y-69242380D02*
X98059761Y-68242380D01*
X97964523Y-68385238D01*
X97869285Y-68480476D01*
X97774047Y-68528095D01*
X96559761Y-74957380D02*
X96226428Y-74481190D01*
X95988333Y-74957380D02*
X95988333Y-73957380D01*
X96369285Y-73957380D01*
X96464523Y-74005000D01*
X96512142Y-74052619D01*
X96559761Y-74147857D01*
X96559761Y-74290714D01*
X96512142Y-74385952D01*
X96464523Y-74433571D01*
X96369285Y-74481190D01*
X95988333Y-74481190D01*
X96940714Y-74671666D02*
X97416904Y-74671666D01*
X96845476Y-74957380D02*
X97178809Y-73957380D01*
X97512142Y-74957380D01*
X98369285Y-74957380D02*
X97797857Y-74957380D01*
X98083571Y-74957380D02*
X98083571Y-73957380D01*
X97988333Y-74100238D01*
X97893095Y-74195476D01*
X97797857Y-74243095D01*
X96559761Y-81942380D02*
X96083571Y-81942380D01*
X96083571Y-80942380D01*
X96845476Y-81656666D02*
X97321666Y-81656666D01*
X96750238Y-81942380D02*
X97083571Y-80942380D01*
X97416904Y-81942380D01*
X98274047Y-81942380D02*
X97702619Y-81942380D01*
X97988333Y-81942380D02*
X97988333Y-80942380D01*
X97893095Y-81085238D01*
X97797857Y-81180476D01*
X97702619Y-81228095D01*
X127198380Y-75604666D02*
X126722190Y-75938000D01*
X127198380Y-76176095D02*
X126198380Y-76176095D01*
X126198380Y-75795142D01*
X126246000Y-75699904D01*
X126293619Y-75652285D01*
X126388857Y-75604666D01*
X126531714Y-75604666D01*
X126626952Y-75652285D01*
X126674571Y-75699904D01*
X126722190Y-75795142D01*
X126722190Y-76176095D01*
X127198380Y-74652285D02*
X127198380Y-75223714D01*
X127198380Y-74938000D02*
X126198380Y-74938000D01*
X126341238Y-75033238D01*
X126436476Y-75128476D01*
X126484095Y-75223714D01*
X129333809Y-86157380D02*
X129524285Y-86157380D01*
X129619523Y-86205000D01*
X129714761Y-86300238D01*
X129762380Y-86490714D01*
X129762380Y-86824047D01*
X129714761Y-87014523D01*
X129619523Y-87109761D01*
X129524285Y-87157380D01*
X129333809Y-87157380D01*
X129238571Y-87109761D01*
X129143333Y-87014523D01*
X129095714Y-86824047D01*
X129095714Y-86490714D01*
X129143333Y-86300238D01*
X129238571Y-86205000D01*
X129333809Y-86157380D01*
X130190952Y-86157380D02*
X130190952Y-86966904D01*
X130238571Y-87062142D01*
X130286190Y-87109761D01*
X130381428Y-87157380D01*
X130571904Y-87157380D01*
X130667142Y-87109761D01*
X130714761Y-87062142D01*
X130762380Y-86966904D01*
X130762380Y-86157380D01*
X131095714Y-86157380D02*
X131667142Y-86157380D01*
X131381428Y-87157380D02*
X131381428Y-86157380D01*
X132524285Y-87157380D02*
X131952857Y-87157380D01*
X132238571Y-87157380D02*
X132238571Y-86157380D01*
X132143333Y-86300238D01*
X132048095Y-86395476D01*
X131952857Y-86443095D01*
X114197142Y-74717666D02*
X114673333Y-74717666D01*
X114101904Y-75003380D02*
X114435238Y-74003380D01*
X114768571Y-75003380D01*
X115101904Y-75003380D02*
X115101904Y-74003380D01*
X115340000Y-74003380D01*
X115482857Y-74051000D01*
X115578095Y-74146238D01*
X115625714Y-74241476D01*
X115673333Y-74431952D01*
X115673333Y-74574809D01*
X115625714Y-74765285D01*
X115578095Y-74860523D01*
X115482857Y-74955761D01*
X115340000Y-75003380D01*
X115101904Y-75003380D01*
X116244761Y-74431952D02*
X116149523Y-74384333D01*
X116101904Y-74336714D01*
X116054285Y-74241476D01*
X116054285Y-74193857D01*
X116101904Y-74098619D01*
X116149523Y-74051000D01*
X116244761Y-74003380D01*
X116435238Y-74003380D01*
X116530476Y-74051000D01*
X116578095Y-74098619D01*
X116625714Y-74193857D01*
X116625714Y-74241476D01*
X116578095Y-74336714D01*
X116530476Y-74384333D01*
X116435238Y-74431952D01*
X116244761Y-74431952D01*
X116149523Y-74479571D01*
X116101904Y-74527190D01*
X116054285Y-74622428D01*
X116054285Y-74812904D01*
X116101904Y-74908142D01*
X116149523Y-74955761D01*
X116244761Y-75003380D01*
X116435238Y-75003380D01*
X116530476Y-74955761D01*
X116578095Y-74908142D01*
X116625714Y-74812904D01*
X116625714Y-74622428D01*
X116578095Y-74527190D01*
X116530476Y-74479571D01*
X116435238Y-74431952D01*
X117006666Y-74098619D02*
X117054285Y-74051000D01*
X117149523Y-74003380D01*
X117387619Y-74003380D01*
X117482857Y-74051000D01*
X117530476Y-74098619D01*
X117578095Y-74193857D01*
X117578095Y-74289095D01*
X117530476Y-74431952D01*
X116959047Y-75003380D01*
X117578095Y-75003380D01*
X117911428Y-74003380D02*
X118530476Y-74003380D01*
X118197142Y-74384333D01*
X118340000Y-74384333D01*
X118435238Y-74431952D01*
X118482857Y-74479571D01*
X118530476Y-74574809D01*
X118530476Y-74812904D01*
X118482857Y-74908142D01*
X118435238Y-74955761D01*
X118340000Y-75003380D01*
X118054285Y-75003380D01*
X117959047Y-74955761D01*
X117911428Y-74908142D01*
X118911428Y-74098619D02*
X118959047Y-74051000D01*
X119054285Y-74003380D01*
X119292380Y-74003380D01*
X119387619Y-74051000D01*
X119435238Y-74098619D01*
X119482857Y-74193857D01*
X119482857Y-74289095D01*
X119435238Y-74431952D01*
X118863809Y-75003380D01*
X119482857Y-75003380D01*
X136851371Y-91153045D02*
X135849182Y-91153045D01*
X136565031Y-90818982D01*
X135849182Y-90484919D01*
X136851371Y-90484919D01*
X136851371Y-90007686D02*
X135849182Y-90007686D01*
X135849182Y-89625899D01*
X135896905Y-89530453D01*
X135944628Y-89482730D01*
X136040075Y-89435006D01*
X136183245Y-89435006D01*
X136278691Y-89482730D01*
X136326415Y-89530453D01*
X136374138Y-89625899D01*
X136374138Y-90007686D01*
X135849182Y-89005497D02*
X136660478Y-89005497D01*
X136755924Y-88957773D01*
X136803647Y-88910050D01*
X136851371Y-88814604D01*
X136851371Y-88623710D01*
X136803647Y-88528264D01*
X136755924Y-88480541D01*
X136660478Y-88432817D01*
X135849182Y-88432817D01*
X135849182Y-87526075D02*
X135849182Y-87716968D01*
X135896905Y-87812415D01*
X135944628Y-87860138D01*
X136087798Y-87955584D01*
X136278691Y-88003308D01*
X136660478Y-88003308D01*
X136755924Y-87955584D01*
X136803647Y-87907861D01*
X136851371Y-87812415D01*
X136851371Y-87621521D01*
X136803647Y-87526075D01*
X136755924Y-87478352D01*
X136660478Y-87430628D01*
X136421861Y-87430628D01*
X136326415Y-87478352D01*
X136278691Y-87526075D01*
X136230968Y-87621521D01*
X136230968Y-87812415D01*
X136278691Y-87907861D01*
X136326415Y-87955584D01*
X136421861Y-88003308D01*
X135849182Y-86810226D02*
X135849182Y-86714779D01*
X135896905Y-86619332D01*
X135944628Y-86571609D01*
X136040075Y-86523886D01*
X136230968Y-86476163D01*
X136469584Y-86476163D01*
X136660478Y-86523886D01*
X136755924Y-86571609D01*
X136803647Y-86619332D01*
X136851371Y-86714779D01*
X136851371Y-86810226D01*
X136803647Y-86905672D01*
X136755924Y-86953395D01*
X136660478Y-87001119D01*
X136469584Y-87048842D01*
X136230968Y-87048842D01*
X136040075Y-87001119D01*
X135944628Y-86953395D01*
X135896905Y-86905672D01*
X135849182Y-86810226D01*
X135849182Y-85569420D02*
X135849182Y-86046653D01*
X136326415Y-86094376D01*
X136278691Y-86046653D01*
X136230968Y-85951206D01*
X136230968Y-85712590D01*
X136278691Y-85617143D01*
X136326415Y-85569420D01*
X136421861Y-85521697D01*
X136660478Y-85521697D01*
X136755924Y-85569420D01*
X136803647Y-85617143D01*
X136851371Y-85712590D01*
X136851371Y-85951206D01*
X136803647Y-86046653D01*
X136755924Y-86094376D01*
X135849182Y-84901294D02*
X135849182Y-84805848D01*
X135896905Y-84710401D01*
X135944628Y-84662678D01*
X136040075Y-84614954D01*
X136230968Y-84567231D01*
X136469584Y-84567231D01*
X136660478Y-84614954D01*
X136755924Y-84662678D01*
X136803647Y-84710401D01*
X136851371Y-84805848D01*
X136851371Y-84901294D01*
X136803647Y-84996741D01*
X136755924Y-85044464D01*
X136660478Y-85092187D01*
X136469584Y-85139911D01*
X136230968Y-85139911D01*
X136040075Y-85092187D01*
X135944628Y-85044464D01*
X135896905Y-84996741D01*
X135849182Y-84901294D01*
X150542666Y-63416380D02*
X150542666Y-64130666D01*
X150495047Y-64273523D01*
X150399809Y-64368761D01*
X150256952Y-64416380D01*
X150161714Y-64416380D01*
X150971238Y-63511619D02*
X151018857Y-63464000D01*
X151114095Y-63416380D01*
X151352190Y-63416380D01*
X151447428Y-63464000D01*
X151495047Y-63511619D01*
X151542666Y-63606857D01*
X151542666Y-63702095D01*
X151495047Y-63844952D01*
X150923619Y-64416380D01*
X151542666Y-64416380D01*
D11*
X98463238Y-64115904D02*
X98463238Y-63315904D01*
X98729904Y-63887333D01*
X98996571Y-63315904D01*
X98996571Y-64115904D01*
X99301333Y-63315904D02*
X99491809Y-64115904D01*
X99644190Y-63544476D01*
X99796571Y-64115904D01*
X99987047Y-63315904D01*
X100710857Y-64115904D02*
X100253714Y-64115904D01*
X100482285Y-64115904D02*
X100482285Y-63315904D01*
X100406095Y-63430190D01*
X100329904Y-63506380D01*
X100253714Y-63544476D01*
X134086904Y-74656904D02*
X133820238Y-74275952D01*
X133629761Y-74656904D02*
X133629761Y-73856904D01*
X133934523Y-73856904D01*
X134010714Y-73895000D01*
X134048809Y-73933095D01*
X134086904Y-74009285D01*
X134086904Y-74123571D01*
X134048809Y-74199761D01*
X134010714Y-74237857D01*
X133934523Y-74275952D01*
X133629761Y-74275952D01*
X134734523Y-74618809D02*
X134658333Y-74656904D01*
X134505952Y-74656904D01*
X134429761Y-74618809D01*
X134391666Y-74542619D01*
X134391666Y-74237857D01*
X134429761Y-74161666D01*
X134505952Y-74123571D01*
X134658333Y-74123571D01*
X134734523Y-74161666D01*
X134772619Y-74237857D01*
X134772619Y-74314047D01*
X134391666Y-74390238D01*
X135458333Y-74123571D02*
X135458333Y-74771190D01*
X135420238Y-74847380D01*
X135382142Y-74885476D01*
X135305952Y-74923571D01*
X135191666Y-74923571D01*
X135115476Y-74885476D01*
X135458333Y-74618809D02*
X135382142Y-74656904D01*
X135229761Y-74656904D01*
X135153571Y-74618809D01*
X135115476Y-74580714D01*
X135077380Y-74504523D01*
X135077380Y-74275952D01*
X135115476Y-74199761D01*
X135153571Y-74161666D01*
X135229761Y-74123571D01*
X135382142Y-74123571D01*
X135458333Y-74161666D01*
X135648809Y-74733095D02*
X136258333Y-74733095D01*
X136867857Y-74656904D02*
X136410714Y-74656904D01*
X136639285Y-74656904D02*
X136639285Y-73856904D01*
X136563095Y-73971190D01*
X136486904Y-74047380D01*
X136410714Y-74085476D01*
X137210714Y-74580714D02*
X137248809Y-74618809D01*
X137210714Y-74656904D01*
X137172619Y-74618809D01*
X137210714Y-74580714D01*
X137210714Y-74656904D01*
X137705952Y-74199761D02*
X137629761Y-74161666D01*
X137591666Y-74123571D01*
X137553571Y-74047380D01*
X137553571Y-74009285D01*
X137591666Y-73933095D01*
X137629761Y-73895000D01*
X137705952Y-73856904D01*
X137858333Y-73856904D01*
X137934523Y-73895000D01*
X137972619Y-73933095D01*
X138010714Y-74009285D01*
X138010714Y-74047380D01*
X137972619Y-74123571D01*
X137934523Y-74161666D01*
X137858333Y-74199761D01*
X137705952Y-74199761D01*
X137629761Y-74237857D01*
X137591666Y-74275952D01*
X137553571Y-74352142D01*
X137553571Y-74504523D01*
X137591666Y-74580714D01*
X137629761Y-74618809D01*
X137705952Y-74656904D01*
X137858333Y-74656904D01*
X137934523Y-74618809D01*
X137972619Y-74580714D01*
X138010714Y-74504523D01*
X138010714Y-74352142D01*
X137972619Y-74275952D01*
X137934523Y-74237857D01*
X137858333Y-74199761D01*
X138239285Y-73856904D02*
X138505952Y-74656904D01*
X138772619Y-73856904D01*
X139458333Y-74656904D02*
X139001190Y-74656904D01*
X139229761Y-74656904D02*
X139229761Y-73856904D01*
X139153571Y-73971190D01*
X139077380Y-74047380D01*
X139001190Y-74085476D01*
D10*
X136525000Y-76287380D02*
X136525000Y-76525476D01*
X136286904Y-76430238D02*
X136525000Y-76525476D01*
X136763095Y-76430238D01*
X136382142Y-76715952D02*
X136525000Y-76525476D01*
X136667857Y-76715952D01*
D11*
X140119333Y-74529904D02*
X139852666Y-74148952D01*
X139662190Y-74529904D02*
X139662190Y-73729904D01*
X139966952Y-73729904D01*
X140043142Y-73768000D01*
X140081238Y-73806095D01*
X140119333Y-73882285D01*
X140119333Y-73996571D01*
X140081238Y-74072761D01*
X140043142Y-74110857D01*
X139966952Y-74148952D01*
X139662190Y-74148952D01*
X140766952Y-74491809D02*
X140690761Y-74529904D01*
X140538380Y-74529904D01*
X140462190Y-74491809D01*
X140424095Y-74415619D01*
X140424095Y-74110857D01*
X140462190Y-74034666D01*
X140538380Y-73996571D01*
X140690761Y-73996571D01*
X140766952Y-74034666D01*
X140805047Y-74110857D01*
X140805047Y-74187047D01*
X140424095Y-74263238D01*
X141490761Y-73996571D02*
X141490761Y-74644190D01*
X141452666Y-74720380D01*
X141414571Y-74758476D01*
X141338380Y-74796571D01*
X141224095Y-74796571D01*
X141147904Y-74758476D01*
X141490761Y-74491809D02*
X141414571Y-74529904D01*
X141262190Y-74529904D01*
X141186000Y-74491809D01*
X141147904Y-74453714D01*
X141109809Y-74377523D01*
X141109809Y-74148952D01*
X141147904Y-74072761D01*
X141186000Y-74034666D01*
X141262190Y-73996571D01*
X141414571Y-73996571D01*
X141490761Y-74034666D01*
X141681238Y-74606095D02*
X142290761Y-74606095D01*
X142862190Y-73729904D02*
X142481238Y-73729904D01*
X142443142Y-74110857D01*
X142481238Y-74072761D01*
X142557428Y-74034666D01*
X142747904Y-74034666D01*
X142824095Y-74072761D01*
X142862190Y-74110857D01*
X142900285Y-74187047D01*
X142900285Y-74377523D01*
X142862190Y-74453714D01*
X142824095Y-74491809D01*
X142747904Y-74529904D01*
X142557428Y-74529904D01*
X142481238Y-74491809D01*
X142443142Y-74453714D01*
X143128857Y-73729904D02*
X143395523Y-74529904D01*
X143662190Y-73729904D01*
X144347904Y-74529904D02*
X143890761Y-74529904D01*
X144119333Y-74529904D02*
X144119333Y-73729904D01*
X144043142Y-73844190D01*
X143966952Y-73920380D01*
X143890761Y-73958476D01*
X98971238Y-92055904D02*
X98971238Y-91255904D01*
X99237904Y-91827333D01*
X99504571Y-91255904D01*
X99504571Y-92055904D01*
X99809333Y-91255904D02*
X99999809Y-92055904D01*
X100152190Y-91484476D01*
X100304571Y-92055904D01*
X100495047Y-91255904D01*
X100723619Y-91255904D02*
X101218857Y-91255904D01*
X100952190Y-91560666D01*
X101066476Y-91560666D01*
X101142666Y-91598761D01*
X101180761Y-91636857D01*
X101218857Y-91713047D01*
X101218857Y-91903523D01*
X101180761Y-91979714D01*
X101142666Y-92017809D01*
X101066476Y-92055904D01*
X100837904Y-92055904D01*
X100761714Y-92017809D01*
X100723619Y-91979714D01*
D10*
X136112571Y-80986380D02*
X136207809Y-80986380D01*
X136303047Y-81034000D01*
X136350666Y-81081619D01*
X136398285Y-81176857D01*
X136445904Y-81367333D01*
X136445904Y-81605428D01*
X136398285Y-81795904D01*
X136350666Y-81891142D01*
X136303047Y-81938761D01*
X136207809Y-81986380D01*
X136112571Y-81986380D01*
X136017333Y-81938761D01*
X135969714Y-81891142D01*
X135922095Y-81795904D01*
X135874476Y-81605428D01*
X135874476Y-81367333D01*
X135922095Y-81176857D01*
X135969714Y-81081619D01*
X136017333Y-81034000D01*
X136112571Y-80986380D01*
X136874476Y-81891142D02*
X136922095Y-81938761D01*
X136874476Y-81986380D01*
X136826857Y-81938761D01*
X136874476Y-81891142D01*
X136874476Y-81986380D01*
X137874476Y-81986380D02*
X137303047Y-81986380D01*
X137588761Y-81986380D02*
X137588761Y-80986380D01*
X137493523Y-81129238D01*
X137398285Y-81224476D01*
X137303047Y-81272095D01*
X138731619Y-81319714D02*
X138731619Y-81986380D01*
X138303047Y-81319714D02*
X138303047Y-81843523D01*
X138350666Y-81938761D01*
X138445904Y-81986380D01*
X138588761Y-81986380D01*
X138684000Y-81938761D01*
X138731619Y-81891142D01*
X138969714Y-82081619D02*
X139731619Y-82081619D01*
X140541142Y-81891142D02*
X140493523Y-81938761D01*
X140350666Y-81986380D01*
X140255428Y-81986380D01*
X140112571Y-81938761D01*
X140017333Y-81843523D01*
X139969714Y-81748285D01*
X139922095Y-81557809D01*
X139922095Y-81414952D01*
X139969714Y-81224476D01*
X140017333Y-81129238D01*
X140112571Y-81034000D01*
X140255428Y-80986380D01*
X140350666Y-80986380D01*
X140493523Y-81034000D01*
X140541142Y-81081619D01*
X141493523Y-81986380D02*
X140922095Y-81986380D01*
X141207809Y-81986380D02*
X141207809Y-80986380D01*
X141112571Y-81129238D01*
X141017333Y-81224476D01*
X140922095Y-81272095D01*
D11*
X142405238Y-64115904D02*
X142405238Y-63315904D01*
X142671904Y-63887333D01*
X142938571Y-63315904D01*
X142938571Y-64115904D01*
X143243333Y-63315904D02*
X143433809Y-64115904D01*
X143586190Y-63544476D01*
X143738571Y-64115904D01*
X143929047Y-63315904D01*
X144195714Y-63392095D02*
X144233809Y-63354000D01*
X144310000Y-63315904D01*
X144500476Y-63315904D01*
X144576666Y-63354000D01*
X144614761Y-63392095D01*
X144652857Y-63468285D01*
X144652857Y-63544476D01*
X144614761Y-63658761D01*
X144157619Y-64115904D01*
X144652857Y-64115904D01*
D10*
X96821666Y-86022380D02*
X96821666Y-86736666D01*
X96774047Y-86879523D01*
X96678809Y-86974761D01*
X96535952Y-87022380D01*
X96440714Y-87022380D01*
X97821666Y-87022380D02*
X97250238Y-87022380D01*
X97535952Y-87022380D02*
X97535952Y-86022380D01*
X97440714Y-86165238D01*
X97345476Y-86260476D01*
X97250238Y-86308095D01*
D15*
X119253000Y-97342000D02*
X147253000Y-97342000D01*
X147253000Y-97342000D02*
X147253000Y-94682000D01*
X119253000Y-97342000D02*
X119253000Y-94682000D01*
X116653000Y-97342000D02*
X116653000Y-96012000D01*
X117983000Y-97342000D02*
X116653000Y-97342000D01*
X119253000Y-94682000D02*
X147253000Y-94682000D01*
X119253000Y-109922000D02*
X121853000Y-109922000D01*
X116653000Y-112582000D02*
X116653000Y-111252000D01*
X121853000Y-112582000D02*
X121853000Y-109922000D01*
X117983000Y-112582000D02*
X116653000Y-112582000D01*
X119253000Y-112582000D02*
X121853000Y-112582000D01*
X119253000Y-112582000D02*
X119253000Y-109922000D01*
X131953000Y-112582000D02*
X147253000Y-112582000D01*
X147253000Y-112582000D02*
X147253000Y-109922000D01*
X129353000Y-112582000D02*
X129353000Y-111252000D01*
X130683000Y-112582000D02*
X129353000Y-112582000D01*
X131953000Y-112582000D02*
X131953000Y-109922000D01*
X131953000Y-109922000D02*
X147253000Y-109922000D01*
X123684420Y-69975000D02*
X123965580Y-69975000D01*
X123684420Y-70995000D02*
X123965580Y-70995000D01*
X123557420Y-65403000D02*
X123838580Y-65403000D01*
X123557420Y-66423000D02*
X123838580Y-66423000D01*
X108317420Y-71122000D02*
X108598580Y-71122000D01*
X108317420Y-70102000D02*
X108598580Y-70102000D01*
X116191420Y-87882000D02*
X116472580Y-87882000D01*
X116191420Y-88902000D02*
X116472580Y-88902000D01*
X124982500Y-76437258D02*
X124982500Y-75962742D01*
X123937500Y-76437258D02*
X123937500Y-75962742D01*
X121555742Y-84440500D02*
X122030258Y-84440500D01*
X121555742Y-85485500D02*
X122030258Y-85485500D01*
X113648258Y-66689500D02*
X113173742Y-66689500D01*
X113648258Y-65644500D02*
X113173742Y-65644500D01*
X124982500Y-80882258D02*
X124982500Y-80407742D01*
X123937500Y-80882258D02*
X123937500Y-80407742D01*
X127747500Y-80407742D02*
X127747500Y-80882258D01*
X128792500Y-80407742D02*
X128792500Y-80882258D01*
X121555742Y-87869500D02*
X122030258Y-87869500D01*
X121555742Y-88914500D02*
X122030258Y-88914500D01*
X111138580Y-88009000D02*
X110857420Y-88009000D01*
X111138580Y-89029000D02*
X110857420Y-89029000D01*
X126127742Y-84440500D02*
X126602258Y-84440500D01*
X126127742Y-85485500D02*
X126602258Y-85485500D01*
X113648258Y-69962500D02*
X113173742Y-69962500D01*
X113648258Y-71007500D02*
X113173742Y-71007500D01*
X108441258Y-66689500D02*
X107966742Y-66689500D01*
X108441258Y-65644500D02*
X107966742Y-65644500D01*
X118634742Y-66562500D02*
X119109258Y-66562500D01*
X118634742Y-65517500D02*
X119109258Y-65517500D01*
X119236258Y-71007500D02*
X118761742Y-71007500D01*
X119236258Y-69962500D02*
X118761742Y-69962500D01*
X116472580Y-85473000D02*
X116191420Y-85473000D01*
X116472580Y-84453000D02*
X116191420Y-84453000D01*
X103394742Y-66562500D02*
X103869258Y-66562500D01*
X103394742Y-65517500D02*
X103869258Y-65517500D01*
X110760742Y-85612500D02*
X111235258Y-85612500D01*
X110760742Y-84567500D02*
X111235258Y-84567500D01*
X106663258Y-87996500D02*
X106188742Y-87996500D01*
X106663258Y-89041500D02*
X106188742Y-89041500D01*
X126254742Y-88660500D02*
X126729258Y-88660500D01*
X126254742Y-87615500D02*
X126729258Y-87615500D01*
X98485000Y-72390000D02*
X98485000Y-72450000D01*
X95825000Y-71120000D02*
X95825000Y-69790000D01*
X95825000Y-72450000D02*
X98485000Y-72450000D01*
X95825000Y-72390000D02*
X98485000Y-72390000D01*
X95825000Y-72390000D02*
X95825000Y-72450000D01*
X95825000Y-69790000D02*
X97155000Y-69790000D01*
X95825000Y-78165000D02*
X98485000Y-78165000D01*
X98485000Y-78105000D02*
X98485000Y-78165000D01*
X95825000Y-78105000D02*
X95825000Y-78165000D01*
X95825000Y-75505000D02*
X97155000Y-75505000D01*
X95825000Y-76835000D02*
X95825000Y-75505000D01*
X95825000Y-78105000D02*
X98485000Y-78105000D01*
X98485000Y-85090000D02*
X98485000Y-85150000D01*
X95825000Y-83820000D02*
X95825000Y-82490000D01*
X95825000Y-82490000D02*
X97155000Y-82490000D01*
X95825000Y-85150000D02*
X98485000Y-85150000D01*
X95825000Y-85090000D02*
X95825000Y-85150000D01*
X95825000Y-85090000D02*
X98485000Y-85090000D01*
X128792500Y-76437258D02*
X128792500Y-75962742D01*
X127747500Y-76437258D02*
X127747500Y-75962742D01*
X131505000Y-88950000D02*
X131505000Y-88825000D01*
X130115000Y-88265000D02*
X130115000Y-87580000D01*
X130115000Y-88950000D02*
X130115000Y-88825000D01*
X131418276Y-88950000D02*
X131505000Y-88950000D01*
X130115000Y-88950000D02*
X131505000Y-88950000D01*
X130115000Y-88950000D02*
X130201724Y-88950000D01*
X130115000Y-87580000D02*
X130810000Y-87580000D01*
X115455000Y-75741000D02*
X114730000Y-75741000D01*
X118950000Y-75741000D02*
X118950000Y-76466000D01*
X118950000Y-79961000D02*
X118950000Y-79236000D01*
X118225000Y-79961000D02*
X118950000Y-79961000D01*
X118225000Y-75741000D02*
X118950000Y-75741000D01*
X115455000Y-79961000D02*
X114730000Y-79961000D01*
X114730000Y-79961000D02*
X114730000Y-79236000D01*
D16*
X142385000Y-89825000D02*
X142385000Y-90315000D01*
X138285000Y-86215000D02*
X138775000Y-86215000D01*
X141895000Y-86215000D02*
X142385000Y-86215000D01*
X142385000Y-86215000D02*
X142385000Y-86705000D01*
X141895000Y-90315000D02*
X142385000Y-90315000D01*
X138285000Y-90315000D02*
X138285000Y-89825000D01*
X138775000Y-90315000D02*
X138285000Y-90315000D01*
X138285000Y-86705000D02*
X138285000Y-86215000D01*
D13*
X143435000Y-89565000D02*
G75*
G03*
X143435000Y-89565000I-100000J0D01*
G01*
D15*
X149546000Y-67564000D02*
X152206000Y-67564000D01*
X149546000Y-66294000D02*
X149546000Y-64964000D01*
X149546000Y-67564000D02*
X149546000Y-82864000D01*
X149546000Y-82864000D02*
X152206000Y-82864000D01*
X149546000Y-64964000D02*
X150876000Y-64964000D01*
X152206000Y-67564000D02*
X152206000Y-82864000D01*
X134873000Y-77662000D02*
X135911860Y-77662000D01*
X138177000Y-77662000D02*
X138177000Y-76008000D01*
X136936859Y-76008000D02*
X136113141Y-76008000D01*
X137138140Y-77662000D02*
X138177000Y-77662000D01*
X134873000Y-76008000D02*
X134873000Y-77662000D01*
X139447000Y-75585000D02*
G75*
G03*
X139447000Y-75585000I-127000J0D01*
G01*
D16*
X141365000Y-78400000D02*
X143115000Y-78400000D01*
X141365000Y-75270000D02*
X143115000Y-75270000D01*
D13*
X139735000Y-75295000D02*
G75*
G03*
X139735000Y-75295000I-100000J0D01*
G01*
D15*
X139205580Y-82675000D02*
X138924420Y-82675000D01*
X139205580Y-83695000D02*
X138924420Y-83695000D01*
X95825000Y-90170000D02*
X95825000Y-90230000D01*
X95825000Y-88900000D02*
X95825000Y-87570000D01*
X95825000Y-90230000D02*
X98485000Y-90230000D01*
X95825000Y-87570000D02*
X97155000Y-87570000D01*
X95825000Y-90170000D02*
X98485000Y-90170000D01*
X98485000Y-90170000D02*
X98485000Y-90230000D01*
%LPC*%
D17*
X117983000Y-96012000D03*
D18*
X120523000Y-96012000D03*
X123063000Y-96012000D03*
X125603000Y-96012000D03*
X128143000Y-96012000D03*
X130683000Y-96012000D03*
X133223000Y-96012000D03*
X135763000Y-96012000D03*
X138303000Y-96012000D03*
X140843000Y-96012000D03*
X143383000Y-96012000D03*
X145923000Y-96012000D03*
D17*
X117983000Y-111252000D03*
D18*
X120523000Y-111252000D03*
D17*
X130683000Y-111252000D03*
D18*
X133223000Y-111252000D03*
X135763000Y-111252000D03*
X138303000Y-111252000D03*
X140843000Y-111252000D03*
X143383000Y-111252000D03*
X145923000Y-111252000D03*
D19*
X123050000Y-70485000D03*
X124600000Y-70485000D03*
X122923000Y-65913000D03*
X124473000Y-65913000D03*
X107683000Y-70612000D03*
X109233000Y-70612000D03*
X115557000Y-88392000D03*
X117107000Y-88392000D03*
D20*
X124460000Y-77025000D03*
X124460000Y-75375000D03*
D21*
X120968000Y-84963000D03*
X122618000Y-84963000D03*
D22*
X114236000Y-66167000D03*
X112586000Y-66167000D03*
D20*
X124460000Y-81470000D03*
X124460000Y-79820000D03*
D23*
X128270000Y-79820000D03*
X128270000Y-81470000D03*
D21*
X120968000Y-88392000D03*
X122618000Y-88392000D03*
D24*
X111773000Y-88519000D03*
X110223000Y-88519000D03*
D21*
X125540000Y-84963000D03*
X127190000Y-84963000D03*
D22*
X114236000Y-70485000D03*
X112586000Y-70485000D03*
X109029000Y-66167000D03*
X107379000Y-66167000D03*
D21*
X118047000Y-66040000D03*
X119697000Y-66040000D03*
D22*
X119824000Y-70485000D03*
X118174000Y-70485000D03*
D24*
X117107000Y-84963000D03*
X115557000Y-84963000D03*
D21*
X102807000Y-66040000D03*
X104457000Y-66040000D03*
X110173000Y-85090000D03*
X111823000Y-85090000D03*
D22*
X107251000Y-88519000D03*
X105601000Y-88519000D03*
D21*
X125667000Y-88138000D03*
X127317000Y-88138000D03*
D17*
X97155000Y-71120000D03*
X97155000Y-76835000D03*
X97155000Y-83820000D03*
D20*
X128270000Y-77025000D03*
X128270000Y-75375000D03*
D25*
X130810000Y-88265000D03*
D26*
X114902500Y-76851000D03*
X114902500Y-77351000D03*
X114902500Y-77851000D03*
X114902500Y-78351000D03*
X114902500Y-78851000D03*
D27*
X115840000Y-79788500D03*
X116340000Y-79788500D03*
X116840000Y-79788500D03*
X117340000Y-79788500D03*
X117840000Y-79788500D03*
D26*
X118777500Y-78851000D03*
X118777500Y-78351000D03*
X118777500Y-77851000D03*
X118777500Y-77351000D03*
X118777500Y-76851000D03*
D27*
X117840000Y-75913500D03*
X117340000Y-75913500D03*
X116840000Y-75913500D03*
X116340000Y-75913500D03*
X115840000Y-75913500D03*
D28*
X116840000Y-77851000D03*
D29*
X142305000Y-89515000D03*
X142305000Y-89015000D03*
X142305000Y-88515000D03*
X142305000Y-88015000D03*
X142305000Y-87515000D03*
X142305000Y-87015000D03*
D30*
X141585000Y-86295000D03*
X141085000Y-86295000D03*
X140585000Y-86295000D03*
X140085000Y-86295000D03*
X139585000Y-86295000D03*
X139085000Y-86295000D03*
D29*
X138365000Y-87015000D03*
X138365000Y-87515000D03*
X138365000Y-88015000D03*
X138365000Y-88515000D03*
X138365000Y-89015000D03*
X138365000Y-89515000D03*
D30*
X139085000Y-90235000D03*
X139585000Y-90235000D03*
X140085000Y-90235000D03*
X140585000Y-90235000D03*
X141085000Y-90235000D03*
X141585000Y-90235000D03*
D17*
X150876000Y-66294000D03*
D18*
X150876000Y-68834000D03*
X150876000Y-71374000D03*
X150876000Y-73914000D03*
X150876000Y-76454000D03*
X150876000Y-78994000D03*
X150876000Y-81534000D03*
D31*
X96774000Y-65532000D03*
D32*
X96774000Y-65532000D03*
D33*
X137549999Y-75890001D03*
X135500001Y-75890001D03*
X136525000Y-77780000D03*
D34*
X141085000Y-75885000D03*
X141085000Y-76835000D03*
X141085000Y-77785000D03*
X143395000Y-77785000D03*
X143395000Y-75885000D03*
D32*
X96774000Y-93218000D03*
D31*
X96774000Y-93218000D03*
D24*
X139840000Y-83185000D03*
X138290000Y-83185000D03*
D32*
X146812000Y-65278000D03*
D31*
X146812000Y-65278000D03*
D17*
X97155000Y-88900000D03*
M02*
