%TF.GenerationSoftware,KiCad,Pcbnew,(6.0.9)*%
%TF.CreationDate,2024-01-25T22:47:47-06:00*%
%TF.ProjectId,AD8232_Heart_Rate_Monitor_v4.0,41443832-3332-45f4-9865-6172745f5261,rev?*%
%TF.SameCoordinates,Original*%
%TF.FileFunction,Legend,Bot*%
%TF.FilePolarity,Positive*%
%FSLAX46Y46*%
G04 Gerber Fmt 4.6, Leading zero omitted, Abs format (unit mm)*
G04 Created by KiCad (PCBNEW (6.0.9)) date 2024-01-25 22:47:47*
%MOMM*%
%LPD*%
G01*
G04 APERTURE LIST*
G04 Aperture macros list*
%AMRoundRect*
0 Rectangle with rounded corners*
0 $1 Rounding radius*
0 $2 $3 $4 $5 $6 $7 $8 $9 X,Y pos of 4 corners*
0 Add a 4 corners polygon primitive as box body*
4,1,4,$2,$3,$4,$5,$6,$7,$8,$9,$2,$3,0*
0 Add four circle primitives for the rounded corners*
1,1,$1+$1,$2,$3*
1,1,$1+$1,$4,$5*
1,1,$1+$1,$6,$7*
1,1,$1+$1,$8,$9*
0 Add four rect primitives between the rounded corners*
20,1,$1+$1,$2,$3,$4,$5,0*
20,1,$1+$1,$4,$5,$6,$7,0*
20,1,$1+$1,$6,$7,$8,$9,0*
20,1,$1+$1,$8,$9,$2,$3,0*%
G04 Aperture macros list end*
%ADD10C,0.150000*%
%ADD11C,0.100000*%
%ADD12C,0.120000*%
%ADD13C,0.200000*%
%ADD14C,0.127000*%
%ADD15R,1.700000X1.700000*%
%ADD16O,1.700000X1.700000*%
%ADD17R,0.850000X0.850000*%
%ADD18C,3.500000*%
%ADD19C,2.600000*%
%ADD20RoundRect,0.200000X0.275000X-0.200000X0.275000X0.200000X-0.275000X0.200000X-0.275000X-0.200000X0*%
%ADD21RoundRect,0.200000X-0.275000X0.200000X-0.275000X-0.200000X0.275000X-0.200000X0.275000X0.200000X0*%
%ADD22RoundRect,0.225000X0.250000X-0.225000X0.250000X0.225000X-0.250000X0.225000X-0.250000X-0.225000X0*%
%ADD23R,0.406400X0.762000*%
%ADD24R,2.489200X1.600200*%
%ADD25RoundRect,0.225000X-0.250000X0.225000X-0.250000X-0.225000X0.250000X-0.225000X0.250000X0.225000X0*%
%ADD26RoundRect,0.200000X0.200000X0.275000X-0.200000X0.275000X-0.200000X-0.275000X0.200000X-0.275000X0*%
%ADD27RoundRect,0.225000X-0.225000X-0.250000X0.225000X-0.250000X0.225000X0.250000X-0.225000X0.250000X0*%
%ADD28RoundRect,0.040000X-0.160000X0.380000X-0.160000X-0.380000X0.160000X-0.380000X0.160000X0.380000X0*%
%ADD29RoundRect,0.040000X0.160000X-0.380000X0.160000X0.380000X-0.160000X0.380000X-0.160000X-0.380000X0*%
%ADD30RoundRect,0.200000X-0.200000X-0.275000X0.200000X-0.275000X0.200000X0.275000X-0.200000X0.275000X0*%
%ADD31RoundRect,0.225000X0.225000X0.250000X-0.225000X0.250000X-0.225000X-0.250000X0.225000X-0.250000X0*%
G04 APERTURE END LIST*
D10*
X147932780Y-75728580D02*
X148028019Y-75728580D01*
X148123257Y-75776200D01*
X148170876Y-75823819D01*
X148218495Y-75919057D01*
X148266114Y-76109533D01*
X148266114Y-76347628D01*
X148218495Y-76538104D01*
X148170876Y-76633342D01*
X148123257Y-76680961D01*
X148028019Y-76728580D01*
X147932780Y-76728580D01*
X147837542Y-76680961D01*
X147789923Y-76633342D01*
X147742304Y-76538104D01*
X147694685Y-76347628D01*
X147694685Y-76109533D01*
X147742304Y-75919057D01*
X147789923Y-75823819D01*
X147837542Y-75776200D01*
X147932780Y-75728580D01*
D11*
X146013666Y-81201466D02*
X146413666Y-81201466D01*
X146213666Y-81901466D02*
X146213666Y-81201466D01*
X146480333Y-81968133D02*
X147013666Y-81968133D01*
X147147000Y-81868133D02*
X147247000Y-81901466D01*
X147413666Y-81901466D01*
X147480333Y-81868133D01*
X147513666Y-81834800D01*
X147547000Y-81768133D01*
X147547000Y-81701466D01*
X147513666Y-81634800D01*
X147480333Y-81601466D01*
X147413666Y-81568133D01*
X147280333Y-81534800D01*
X147213666Y-81501466D01*
X147180333Y-81468133D01*
X147147000Y-81401466D01*
X147147000Y-81334800D01*
X147180333Y-81268133D01*
X147213666Y-81234800D01*
X147280333Y-81201466D01*
X147447000Y-81201466D01*
X147547000Y-81234800D01*
X148247000Y-81834800D02*
X148213666Y-81868133D01*
X148113666Y-81901466D01*
X148047000Y-81901466D01*
X147947000Y-81868133D01*
X147880333Y-81801466D01*
X147847000Y-81734800D01*
X147813666Y-81601466D01*
X147813666Y-81501466D01*
X147847000Y-81368133D01*
X147880333Y-81301466D01*
X147947000Y-81234800D01*
X148047000Y-81201466D01*
X148113666Y-81201466D01*
X148213666Y-81234800D01*
X148247000Y-81268133D01*
X148880333Y-81901466D02*
X148547000Y-81901466D01*
X148547000Y-81201466D01*
X146022400Y-78559866D02*
X146422400Y-78559866D01*
X146222400Y-79259866D02*
X146222400Y-78559866D01*
X146489066Y-79326533D02*
X147022400Y-79326533D01*
X147155733Y-79226533D02*
X147255733Y-79259866D01*
X147422400Y-79259866D01*
X147489066Y-79226533D01*
X147522400Y-79193200D01*
X147555733Y-79126533D01*
X147555733Y-79059866D01*
X147522400Y-78993200D01*
X147489066Y-78959866D01*
X147422400Y-78926533D01*
X147289066Y-78893200D01*
X147222400Y-78859866D01*
X147189066Y-78826533D01*
X147155733Y-78759866D01*
X147155733Y-78693200D01*
X147189066Y-78626533D01*
X147222400Y-78593200D01*
X147289066Y-78559866D01*
X147455733Y-78559866D01*
X147555733Y-78593200D01*
X147855733Y-79259866D02*
X147855733Y-78559866D01*
X148022400Y-78559866D01*
X148122400Y-78593200D01*
X148189066Y-78659866D01*
X148222400Y-78726533D01*
X148255733Y-78859866D01*
X148255733Y-78959866D01*
X148222400Y-79093200D01*
X148189066Y-79159866D01*
X148122400Y-79226533D01*
X148022400Y-79259866D01*
X147855733Y-79259866D01*
X148522400Y-79059866D02*
X148855733Y-79059866D01*
X148455733Y-79259866D02*
X148689066Y-78559866D01*
X148922400Y-79259866D01*
D10*
X147142295Y-73188580D02*
X147761342Y-73188580D01*
X147428009Y-73569533D01*
X147570866Y-73569533D01*
X147666104Y-73617152D01*
X147713723Y-73664771D01*
X147761342Y-73760009D01*
X147761342Y-73998104D01*
X147713723Y-74093342D01*
X147666104Y-74140961D01*
X147570866Y-74188580D01*
X147285152Y-74188580D01*
X147189914Y-74140961D01*
X147142295Y-74093342D01*
X148047057Y-73188580D02*
X148380390Y-74188580D01*
X148713723Y-73188580D01*
D11*
X145928733Y-71741466D02*
X145928733Y-71041466D01*
X146195400Y-71041466D01*
X146262066Y-71074800D01*
X146295400Y-71108133D01*
X146328733Y-71174800D01*
X146328733Y-71274800D01*
X146295400Y-71341466D01*
X146262066Y-71374800D01*
X146195400Y-71408133D01*
X145928733Y-71408133D01*
X146462066Y-71808133D02*
X146995400Y-71808133D01*
X147128733Y-71708133D02*
X147228733Y-71741466D01*
X147395400Y-71741466D01*
X147462066Y-71708133D01*
X147495400Y-71674800D01*
X147528733Y-71608133D01*
X147528733Y-71541466D01*
X147495400Y-71474800D01*
X147462066Y-71441466D01*
X147395400Y-71408133D01*
X147262066Y-71374800D01*
X147195400Y-71341466D01*
X147162066Y-71308133D01*
X147128733Y-71241466D01*
X147128733Y-71174800D01*
X147162066Y-71108133D01*
X147195400Y-71074800D01*
X147262066Y-71041466D01*
X147428733Y-71041466D01*
X147528733Y-71074800D01*
X148228733Y-71674800D02*
X148195400Y-71708133D01*
X148095400Y-71741466D01*
X148028733Y-71741466D01*
X147928733Y-71708133D01*
X147862066Y-71641466D01*
X147828733Y-71574800D01*
X147795400Y-71441466D01*
X147795400Y-71341466D01*
X147828733Y-71208133D01*
X147862066Y-71141466D01*
X147928733Y-71074800D01*
X148028733Y-71041466D01*
X148095400Y-71041466D01*
X148195400Y-71074800D01*
X148228733Y-71108133D01*
X148862066Y-71741466D02*
X148528733Y-71741466D01*
X148528733Y-71041466D01*
X145937466Y-69633266D02*
X145937466Y-68933266D01*
X146204133Y-68933266D01*
X146270800Y-68966600D01*
X146304133Y-68999933D01*
X146337466Y-69066600D01*
X146337466Y-69166600D01*
X146304133Y-69233266D01*
X146270800Y-69266600D01*
X146204133Y-69299933D01*
X145937466Y-69299933D01*
X146470800Y-69699933D02*
X147004133Y-69699933D01*
X147137466Y-69599933D02*
X147237466Y-69633266D01*
X147404133Y-69633266D01*
X147470800Y-69599933D01*
X147504133Y-69566600D01*
X147537466Y-69499933D01*
X147537466Y-69433266D01*
X147504133Y-69366600D01*
X147470800Y-69333266D01*
X147404133Y-69299933D01*
X147270800Y-69266600D01*
X147204133Y-69233266D01*
X147170800Y-69199933D01*
X147137466Y-69133266D01*
X147137466Y-69066600D01*
X147170800Y-68999933D01*
X147204133Y-68966600D01*
X147270800Y-68933266D01*
X147437466Y-68933266D01*
X147537466Y-68966600D01*
X147837466Y-69633266D02*
X147837466Y-68933266D01*
X148004133Y-68933266D01*
X148104133Y-68966600D01*
X148170800Y-69033266D01*
X148204133Y-69099933D01*
X148237466Y-69233266D01*
X148237466Y-69333266D01*
X148204133Y-69466600D01*
X148170800Y-69533266D01*
X148104133Y-69599933D01*
X148004133Y-69633266D01*
X147837466Y-69633266D01*
X148504133Y-69433266D02*
X148837466Y-69433266D01*
X148437466Y-69633266D02*
X148670800Y-68933266D01*
X148904133Y-69633266D01*
D12*
X145611257Y-68352142D02*
X145611257Y-67452142D01*
X145954114Y-67452142D01*
X146039828Y-67495000D01*
X146082685Y-67537857D01*
X146125542Y-67623571D01*
X146125542Y-67752142D01*
X146082685Y-67837857D01*
X146039828Y-67880714D01*
X145954114Y-67923571D01*
X145611257Y-67923571D01*
X146296971Y-68437857D02*
X146982685Y-68437857D01*
X147196971Y-68352142D02*
X147196971Y-67452142D01*
X147625542Y-68352142D02*
X147625542Y-67452142D01*
X148139828Y-68352142D01*
X148139828Y-67452142D01*
X148439828Y-67452142D02*
X148954114Y-67452142D01*
X148696971Y-68352142D02*
X148696971Y-67452142D01*
D10*
X132687266Y-109273000D02*
X132687266Y-108873000D01*
X133387266Y-109073000D02*
X132687266Y-109073000D01*
X133453933Y-108806333D02*
X133453933Y-108273000D01*
X133353933Y-108139666D02*
X133387266Y-108039666D01*
X133387266Y-107873000D01*
X133353933Y-107806333D01*
X133320600Y-107773000D01*
X133253933Y-107739666D01*
X133187266Y-107739666D01*
X133120600Y-107773000D01*
X133087266Y-107806333D01*
X133053933Y-107873000D01*
X133020600Y-108006333D01*
X132987266Y-108073000D01*
X132953933Y-108106333D01*
X132887266Y-108139666D01*
X132820600Y-108139666D01*
X132753933Y-108106333D01*
X132720600Y-108073000D01*
X132687266Y-108006333D01*
X132687266Y-107839666D01*
X132720600Y-107739666D01*
X133387266Y-107439666D02*
X132687266Y-107439666D01*
X132687266Y-107273000D01*
X132720600Y-107173000D01*
X132787266Y-107106333D01*
X132853933Y-107073000D01*
X132987266Y-107039666D01*
X133087266Y-107039666D01*
X133220600Y-107073000D01*
X133287266Y-107106333D01*
X133353933Y-107173000D01*
X133387266Y-107273000D01*
X133387266Y-107439666D01*
X133187266Y-106773000D02*
X133187266Y-106439666D01*
X133387266Y-106839666D02*
X132687266Y-106606333D01*
X133387266Y-106373000D01*
X135698666Y-93863933D02*
X134998666Y-93863933D01*
X134998666Y-93597266D01*
X135032000Y-93530600D01*
X135065333Y-93497266D01*
X135132000Y-93463933D01*
X135232000Y-93463933D01*
X135298666Y-93497266D01*
X135332000Y-93530600D01*
X135365333Y-93597266D01*
X135365333Y-93863933D01*
X135765333Y-93330600D02*
X135765333Y-92797266D01*
X135665333Y-92663933D02*
X135698666Y-92563933D01*
X135698666Y-92397266D01*
X135665333Y-92330600D01*
X135632000Y-92297266D01*
X135565333Y-92263933D01*
X135498666Y-92263933D01*
X135432000Y-92297266D01*
X135398666Y-92330600D01*
X135365333Y-92397266D01*
X135332000Y-92530600D01*
X135298666Y-92597266D01*
X135265333Y-92630600D01*
X135198666Y-92663933D01*
X135132000Y-92663933D01*
X135065333Y-92630600D01*
X135032000Y-92597266D01*
X134998666Y-92530600D01*
X134998666Y-92363933D01*
X135032000Y-92263933D01*
X135698666Y-91963933D02*
X134998666Y-91963933D01*
X134998666Y-91797266D01*
X135032000Y-91697266D01*
X135098666Y-91630600D01*
X135165333Y-91597266D01*
X135298666Y-91563933D01*
X135398666Y-91563933D01*
X135532000Y-91597266D01*
X135598666Y-91630600D01*
X135665333Y-91697266D01*
X135698666Y-91797266D01*
X135698666Y-91963933D01*
X135498666Y-91297266D02*
X135498666Y-90963933D01*
X135698666Y-91363933D02*
X134998666Y-91130600D01*
X135698666Y-90897266D01*
D13*
X120480142Y-92826742D02*
X120565857Y-92826742D01*
X120651571Y-92869600D01*
X120694428Y-92912457D01*
X120737285Y-92998171D01*
X120780142Y-93169600D01*
X120780142Y-93383885D01*
X120737285Y-93555314D01*
X120694428Y-93641028D01*
X120651571Y-93683885D01*
X120565857Y-93726742D01*
X120480142Y-93726742D01*
X120394428Y-93683885D01*
X120351571Y-93641028D01*
X120308714Y-93555314D01*
X120265857Y-93383885D01*
X120265857Y-93169600D01*
X120308714Y-92998171D01*
X120351571Y-92912457D01*
X120394428Y-92869600D01*
X120480142Y-92826742D01*
D10*
X133234866Y-93847266D02*
X132534866Y-93847266D01*
X132534866Y-93580600D01*
X132568200Y-93513933D01*
X132601533Y-93480600D01*
X132668200Y-93447266D01*
X132768200Y-93447266D01*
X132834866Y-93480600D01*
X132868200Y-93513933D01*
X132901533Y-93580600D01*
X132901533Y-93847266D01*
X133301533Y-93313933D02*
X133301533Y-92780600D01*
X133201533Y-92647266D02*
X133234866Y-92547266D01*
X133234866Y-92380600D01*
X133201533Y-92313933D01*
X133168200Y-92280600D01*
X133101533Y-92247266D01*
X133034866Y-92247266D01*
X132968200Y-92280600D01*
X132934866Y-92313933D01*
X132901533Y-92380600D01*
X132868200Y-92513933D01*
X132834866Y-92580600D01*
X132801533Y-92613933D01*
X132734866Y-92647266D01*
X132668200Y-92647266D01*
X132601533Y-92613933D01*
X132568200Y-92580600D01*
X132534866Y-92513933D01*
X132534866Y-92347266D01*
X132568200Y-92247266D01*
X133168200Y-91547266D02*
X133201533Y-91580600D01*
X133234866Y-91680600D01*
X133234866Y-91747266D01*
X133201533Y-91847266D01*
X133134866Y-91913933D01*
X133068200Y-91947266D01*
X132934866Y-91980600D01*
X132834866Y-91980600D01*
X132701533Y-91947266D01*
X132634866Y-91913933D01*
X132568200Y-91847266D01*
X132534866Y-91747266D01*
X132534866Y-91680600D01*
X132568200Y-91580600D01*
X132601533Y-91547266D01*
X133234866Y-90913933D02*
X133234866Y-91247266D01*
X132534866Y-91247266D01*
D13*
X117233904Y-99152780D02*
X117233904Y-98152780D01*
X116900571Y-98867066D01*
X116567238Y-98152780D01*
X116567238Y-99152780D01*
X115662476Y-98486114D02*
X115662476Y-99152780D01*
X116091047Y-98486114D02*
X116091047Y-99009923D01*
X116043428Y-99105161D01*
X115948190Y-99152780D01*
X115805333Y-99152780D01*
X115710095Y-99105161D01*
X115662476Y-99057542D01*
X115043428Y-99152780D02*
X115138666Y-99105161D01*
X115186285Y-99009923D01*
X115186285Y-98152780D01*
X114805333Y-98486114D02*
X114424380Y-98486114D01*
X114662476Y-98152780D02*
X114662476Y-99009923D01*
X114614857Y-99105161D01*
X114519619Y-99152780D01*
X114424380Y-99152780D01*
X114091047Y-99152780D02*
X114091047Y-98486114D01*
X114091047Y-98152780D02*
X114138666Y-98200400D01*
X114091047Y-98248019D01*
X114043428Y-98200400D01*
X114091047Y-98152780D01*
X114091047Y-98248019D01*
X112900571Y-99105161D02*
X112805333Y-99152780D01*
X112614857Y-99152780D01*
X112519619Y-99105161D01*
X112472000Y-99009923D01*
X112472000Y-98962304D01*
X112519619Y-98867066D01*
X112614857Y-98819447D01*
X112757714Y-98819447D01*
X112852952Y-98771828D01*
X112900571Y-98676590D01*
X112900571Y-98628971D01*
X112852952Y-98533733D01*
X112757714Y-98486114D01*
X112614857Y-98486114D01*
X112519619Y-98533733D01*
X111662476Y-99105161D02*
X111757714Y-99152780D01*
X111948190Y-99152780D01*
X112043428Y-99105161D01*
X112091047Y-99009923D01*
X112091047Y-98628971D01*
X112043428Y-98533733D01*
X111948190Y-98486114D01*
X111757714Y-98486114D01*
X111662476Y-98533733D01*
X111614857Y-98628971D01*
X111614857Y-98724209D01*
X112091047Y-98819447D01*
X111186285Y-98486114D02*
X111186285Y-99152780D01*
X111186285Y-98581352D02*
X111138666Y-98533733D01*
X111043428Y-98486114D01*
X110900571Y-98486114D01*
X110805333Y-98533733D01*
X110757714Y-98628971D01*
X110757714Y-99152780D01*
X110329142Y-99105161D02*
X110233904Y-99152780D01*
X110043428Y-99152780D01*
X109948190Y-99105161D01*
X109900571Y-99009923D01*
X109900571Y-98962304D01*
X109948190Y-98867066D01*
X110043428Y-98819447D01*
X110186285Y-98819447D01*
X110281523Y-98771828D01*
X110329142Y-98676590D01*
X110329142Y-98628971D01*
X110281523Y-98533733D01*
X110186285Y-98486114D01*
X110043428Y-98486114D01*
X109948190Y-98533733D01*
X109329142Y-99152780D02*
X109424380Y-99105161D01*
X109472000Y-99057542D01*
X109519619Y-98962304D01*
X109519619Y-98676590D01*
X109472000Y-98581352D01*
X109424380Y-98533733D01*
X109329142Y-98486114D01*
X109186285Y-98486114D01*
X109091047Y-98533733D01*
X109043428Y-98581352D01*
X108995809Y-98676590D01*
X108995809Y-98962304D01*
X109043428Y-99057542D01*
X109091047Y-99105161D01*
X109186285Y-99152780D01*
X109329142Y-99152780D01*
X108567238Y-99152780D02*
X108567238Y-98486114D01*
X108567238Y-98676590D02*
X108519619Y-98581352D01*
X108472000Y-98533733D01*
X108376761Y-98486114D01*
X108281523Y-98486114D01*
X107900571Y-99105161D02*
X107900571Y-99152780D01*
X107948190Y-99248019D01*
X107995809Y-99295638D01*
X106852952Y-98152780D02*
X106519619Y-99152780D01*
X106186285Y-98152780D01*
X105805333Y-99152780D02*
X105614857Y-99152780D01*
X105519619Y-99105161D01*
X105472000Y-99057542D01*
X105376761Y-98914685D01*
X105329142Y-98724209D01*
X105329142Y-98343257D01*
X105376761Y-98248019D01*
X105424380Y-98200400D01*
X105519619Y-98152780D01*
X105710095Y-98152780D01*
X105805333Y-98200400D01*
X105852952Y-98248019D01*
X105900571Y-98343257D01*
X105900571Y-98581352D01*
X105852952Y-98676590D01*
X105805333Y-98724209D01*
X105710095Y-98771828D01*
X105519619Y-98771828D01*
X105424380Y-98724209D01*
X105376761Y-98676590D01*
X105329142Y-98581352D01*
X104900571Y-99057542D02*
X104852952Y-99105161D01*
X104900571Y-99152780D01*
X104948190Y-99105161D01*
X104900571Y-99057542D01*
X104900571Y-99152780D01*
X104233904Y-98152780D02*
X104138666Y-98152780D01*
X104043428Y-98200400D01*
X103995809Y-98248019D01*
X103948190Y-98343257D01*
X103900571Y-98533733D01*
X103900571Y-98771828D01*
X103948190Y-98962304D01*
X103995809Y-99057542D01*
X104043428Y-99105161D01*
X104138666Y-99152780D01*
X104233904Y-99152780D01*
X104329142Y-99105161D01*
X104376761Y-99057542D01*
X104424380Y-98962304D01*
X104472000Y-98771828D01*
X104472000Y-98533733D01*
X104424380Y-98343257D01*
X104376761Y-98248019D01*
X104329142Y-98200400D01*
X104233904Y-98152780D01*
X117233904Y-100762780D02*
X117233904Y-99762780D01*
X116995809Y-99762780D01*
X116852952Y-99810400D01*
X116757714Y-99905638D01*
X116710095Y-100000876D01*
X116662476Y-100191352D01*
X116662476Y-100334209D01*
X116710095Y-100524685D01*
X116757714Y-100619923D01*
X116852952Y-100715161D01*
X116995809Y-100762780D01*
X117233904Y-100762780D01*
X115852952Y-100715161D02*
X115948190Y-100762780D01*
X116138666Y-100762780D01*
X116233904Y-100715161D01*
X116281523Y-100619923D01*
X116281523Y-100238971D01*
X116233904Y-100143733D01*
X116138666Y-100096114D01*
X115948190Y-100096114D01*
X115852952Y-100143733D01*
X115805333Y-100238971D01*
X115805333Y-100334209D01*
X116281523Y-100429447D01*
X115424380Y-100715161D02*
X115329142Y-100762780D01*
X115138666Y-100762780D01*
X115043428Y-100715161D01*
X114995809Y-100619923D01*
X114995809Y-100572304D01*
X115043428Y-100477066D01*
X115138666Y-100429447D01*
X115281523Y-100429447D01*
X115376761Y-100381828D01*
X115424380Y-100286590D01*
X115424380Y-100238971D01*
X115376761Y-100143733D01*
X115281523Y-100096114D01*
X115138666Y-100096114D01*
X115043428Y-100143733D01*
X114567238Y-100762780D02*
X114567238Y-100096114D01*
X114567238Y-99762780D02*
X114614857Y-99810400D01*
X114567238Y-99858019D01*
X114519619Y-99810400D01*
X114567238Y-99762780D01*
X114567238Y-99858019D01*
X113662476Y-100096114D02*
X113662476Y-100905638D01*
X113710095Y-101000876D01*
X113757714Y-101048495D01*
X113852952Y-101096114D01*
X113995809Y-101096114D01*
X114091047Y-101048495D01*
X113662476Y-100715161D02*
X113757714Y-100762780D01*
X113948190Y-100762780D01*
X114043428Y-100715161D01*
X114091047Y-100667542D01*
X114138666Y-100572304D01*
X114138666Y-100286590D01*
X114091047Y-100191352D01*
X114043428Y-100143733D01*
X113948190Y-100096114D01*
X113757714Y-100096114D01*
X113662476Y-100143733D01*
X113186285Y-100096114D02*
X113186285Y-100762780D01*
X113186285Y-100191352D02*
X113138666Y-100143733D01*
X113043428Y-100096114D01*
X112900571Y-100096114D01*
X112805333Y-100143733D01*
X112757714Y-100238971D01*
X112757714Y-100762780D01*
X112281523Y-100667542D02*
X112233904Y-100715161D01*
X112281523Y-100762780D01*
X112329142Y-100715161D01*
X112281523Y-100667542D01*
X112281523Y-100762780D01*
X112281523Y-100143733D02*
X112233904Y-100191352D01*
X112281523Y-100238971D01*
X112329142Y-100191352D01*
X112281523Y-100143733D01*
X112281523Y-100238971D01*
X111043428Y-100762780D02*
X111043428Y-99762780D01*
X110710095Y-100477066D01*
X110376761Y-99762780D01*
X110376761Y-100762780D01*
X109472000Y-100762780D02*
X109472000Y-100238971D01*
X109519619Y-100143733D01*
X109614857Y-100096114D01*
X109805333Y-100096114D01*
X109900571Y-100143733D01*
X109472000Y-100715161D02*
X109567238Y-100762780D01*
X109805333Y-100762780D01*
X109900571Y-100715161D01*
X109948190Y-100619923D01*
X109948190Y-100524685D01*
X109900571Y-100429447D01*
X109805333Y-100381828D01*
X109567238Y-100381828D01*
X109472000Y-100334209D01*
X108995809Y-100762780D02*
X108995809Y-99762780D01*
X108567238Y-100762780D02*
X108567238Y-100238971D01*
X108614857Y-100143733D01*
X108710095Y-100096114D01*
X108852952Y-100096114D01*
X108948190Y-100143733D01*
X108995809Y-100191352D01*
X108233904Y-100096114D02*
X107852952Y-100096114D01*
X108091047Y-100762780D02*
X108091047Y-99905638D01*
X108043428Y-99810400D01*
X107948190Y-99762780D01*
X107852952Y-99762780D01*
X107091047Y-100096114D02*
X107091047Y-100762780D01*
X107519619Y-100096114D02*
X107519619Y-100619923D01*
X107472000Y-100715161D01*
X107376761Y-100762780D01*
X107233904Y-100762780D01*
X107138666Y-100715161D01*
X107091047Y-100667542D01*
X106710095Y-100096114D02*
X106186285Y-100096114D01*
X106710095Y-100762780D01*
X106186285Y-100762780D01*
X105376761Y-100096114D02*
X105376761Y-100762780D01*
X105805333Y-100096114D02*
X105805333Y-100619923D01*
X105757714Y-100715161D01*
X105662476Y-100762780D01*
X105519619Y-100762780D01*
X105424380Y-100715161D01*
X105376761Y-100667542D01*
X104900571Y-100762780D02*
X104900571Y-100096114D01*
X104900571Y-100286590D02*
X104852952Y-100191352D01*
X104805333Y-100143733D01*
X104710095Y-100096114D01*
X104614857Y-100096114D01*
X102948190Y-100762780D02*
X103281523Y-100286590D01*
X103519619Y-100762780D02*
X103519619Y-99762780D01*
X103138666Y-99762780D01*
X103043428Y-99810400D01*
X102995809Y-99858019D01*
X102948190Y-99953257D01*
X102948190Y-100096114D01*
X102995809Y-100191352D01*
X103043428Y-100238971D01*
X103138666Y-100286590D01*
X103519619Y-100286590D01*
X102091047Y-100762780D02*
X102091047Y-100238971D01*
X102138666Y-100143733D01*
X102233904Y-100096114D01*
X102424380Y-100096114D01*
X102519619Y-100143733D01*
X102091047Y-100715161D02*
X102186285Y-100762780D01*
X102424380Y-100762780D01*
X102519619Y-100715161D01*
X102567238Y-100619923D01*
X102567238Y-100524685D01*
X102519619Y-100429447D01*
X102424380Y-100381828D01*
X102186285Y-100381828D01*
X102091047Y-100334209D01*
X101614857Y-100762780D02*
X101614857Y-99762780D01*
X101186285Y-100762780D02*
X101186285Y-100238971D01*
X101233904Y-100143733D01*
X101329142Y-100096114D01*
X101472000Y-100096114D01*
X101567238Y-100143733D01*
X101614857Y-100191352D01*
X100710095Y-100762780D02*
X100710095Y-100096114D01*
X100710095Y-100191352D02*
X100662476Y-100143733D01*
X100567238Y-100096114D01*
X100424380Y-100096114D01*
X100329142Y-100143733D01*
X100281523Y-100238971D01*
X100281523Y-100762780D01*
X100281523Y-100238971D02*
X100233904Y-100143733D01*
X100138666Y-100096114D01*
X99995809Y-100096114D01*
X99900571Y-100143733D01*
X99852952Y-100238971D01*
X99852952Y-100762780D01*
X98948190Y-100762780D02*
X98948190Y-100238971D01*
X98995809Y-100143733D01*
X99091047Y-100096114D01*
X99281523Y-100096114D01*
X99376761Y-100143733D01*
X98948190Y-100715161D02*
X99043428Y-100762780D01*
X99281523Y-100762780D01*
X99376761Y-100715161D01*
X99424380Y-100619923D01*
X99424380Y-100524685D01*
X99376761Y-100429447D01*
X99281523Y-100381828D01*
X99043428Y-100381828D01*
X98948190Y-100334209D01*
X98472000Y-100096114D02*
X98472000Y-100762780D01*
X98472000Y-100191352D02*
X98424380Y-100143733D01*
X98329142Y-100096114D01*
X98186285Y-100096114D01*
X98091047Y-100143733D01*
X98043428Y-100238971D01*
X98043428Y-100762780D01*
X117281523Y-102087066D02*
X116805333Y-102087066D01*
X117376761Y-102372780D02*
X117043428Y-101372780D01*
X116710095Y-102372780D01*
X115948190Y-102372780D02*
X115948190Y-101372780D01*
X115948190Y-102325161D02*
X116043428Y-102372780D01*
X116233904Y-102372780D01*
X116329142Y-102325161D01*
X116376761Y-102277542D01*
X116424380Y-102182304D01*
X116424380Y-101896590D01*
X116376761Y-101801352D01*
X116329142Y-101753733D01*
X116233904Y-101706114D01*
X116043428Y-101706114D01*
X115948190Y-101753733D01*
X115567238Y-101706114D02*
X115329142Y-102372780D01*
X115091047Y-101706114D01*
X114710095Y-102372780D02*
X114710095Y-101706114D01*
X114710095Y-101372780D02*
X114757714Y-101420400D01*
X114710095Y-101468019D01*
X114662476Y-101420400D01*
X114710095Y-101372780D01*
X114710095Y-101468019D01*
X114281523Y-102325161D02*
X114186285Y-102372780D01*
X113995809Y-102372780D01*
X113900571Y-102325161D01*
X113852952Y-102229923D01*
X113852952Y-102182304D01*
X113900571Y-102087066D01*
X113995809Y-102039447D01*
X114138666Y-102039447D01*
X114233904Y-101991828D01*
X114281523Y-101896590D01*
X114281523Y-101848971D01*
X114233904Y-101753733D01*
X114138666Y-101706114D01*
X113995809Y-101706114D01*
X113900571Y-101753733D01*
X113281523Y-102372780D02*
X113376761Y-102325161D01*
X113424380Y-102277542D01*
X113472000Y-102182304D01*
X113472000Y-101896590D01*
X113424380Y-101801352D01*
X113376761Y-101753733D01*
X113281523Y-101706114D01*
X113138666Y-101706114D01*
X113043428Y-101753733D01*
X112995809Y-101801352D01*
X112948190Y-101896590D01*
X112948190Y-102182304D01*
X112995809Y-102277542D01*
X113043428Y-102325161D01*
X113138666Y-102372780D01*
X113281523Y-102372780D01*
X112519619Y-102372780D02*
X112519619Y-101706114D01*
X112519619Y-101896590D02*
X112472000Y-101801352D01*
X112424380Y-101753733D01*
X112329142Y-101706114D01*
X112233904Y-101706114D01*
X111900571Y-102277542D02*
X111852952Y-102325161D01*
X111900571Y-102372780D01*
X111948190Y-102325161D01*
X111900571Y-102277542D01*
X111900571Y-102372780D01*
X111900571Y-101753733D02*
X111852952Y-101801352D01*
X111900571Y-101848971D01*
X111948190Y-101801352D01*
X111900571Y-101753733D01*
X111900571Y-101848971D01*
X110662476Y-102372780D02*
X110662476Y-101372780D01*
X110424380Y-101372780D01*
X110281523Y-101420400D01*
X110186285Y-101515638D01*
X110138666Y-101610876D01*
X110091047Y-101801352D01*
X110091047Y-101944209D01*
X110138666Y-102134685D01*
X110186285Y-102229923D01*
X110281523Y-102325161D01*
X110424380Y-102372780D01*
X110662476Y-102372780D01*
X109662476Y-102372780D02*
X109662476Y-101706114D01*
X109662476Y-101896590D02*
X109614857Y-101801352D01*
X109567238Y-101753733D01*
X109472000Y-101706114D01*
X109376761Y-101706114D01*
X109043428Y-102277542D02*
X108995809Y-102325161D01*
X109043428Y-102372780D01*
X109091047Y-102325161D01*
X109043428Y-102277542D01*
X109043428Y-102372780D01*
X107472000Y-101848971D02*
X107329142Y-101896590D01*
X107281523Y-101944209D01*
X107233904Y-102039447D01*
X107233904Y-102182304D01*
X107281523Y-102277542D01*
X107329142Y-102325161D01*
X107424380Y-102372780D01*
X107805333Y-102372780D01*
X107805333Y-101372780D01*
X107472000Y-101372780D01*
X107376761Y-101420400D01*
X107329142Y-101468019D01*
X107281523Y-101563257D01*
X107281523Y-101658495D01*
X107329142Y-101753733D01*
X107376761Y-101801352D01*
X107472000Y-101848971D01*
X107805333Y-101848971D01*
X106376761Y-102372780D02*
X106376761Y-101848971D01*
X106424380Y-101753733D01*
X106519619Y-101706114D01*
X106710095Y-101706114D01*
X106805333Y-101753733D01*
X106376761Y-102325161D02*
X106472000Y-102372780D01*
X106710095Y-102372780D01*
X106805333Y-102325161D01*
X106852952Y-102229923D01*
X106852952Y-102134685D01*
X106805333Y-102039447D01*
X106710095Y-101991828D01*
X106472000Y-101991828D01*
X106376761Y-101944209D01*
X105948190Y-102325161D02*
X105852952Y-102372780D01*
X105662476Y-102372780D01*
X105567238Y-102325161D01*
X105519619Y-102229923D01*
X105519619Y-102182304D01*
X105567238Y-102087066D01*
X105662476Y-102039447D01*
X105805333Y-102039447D01*
X105900571Y-101991828D01*
X105948190Y-101896590D01*
X105948190Y-101848971D01*
X105900571Y-101753733D01*
X105805333Y-101706114D01*
X105662476Y-101706114D01*
X105567238Y-101753733D01*
X105091047Y-102372780D02*
X105091047Y-101372780D01*
X104662476Y-102372780D02*
X104662476Y-101848971D01*
X104710095Y-101753733D01*
X104805333Y-101706114D01*
X104948190Y-101706114D01*
X105043428Y-101753733D01*
X105091047Y-101801352D01*
X104186285Y-102372780D02*
X104186285Y-101706114D01*
X104186285Y-101372780D02*
X104233904Y-101420400D01*
X104186285Y-101468019D01*
X104138666Y-101420400D01*
X104186285Y-101372780D01*
X104186285Y-101468019D01*
X103710095Y-102372780D02*
X103710095Y-101706114D01*
X103710095Y-101896590D02*
X103662476Y-101801352D01*
X103614857Y-101753733D01*
X103519619Y-101706114D01*
X103424380Y-101706114D01*
X102329142Y-102372780D02*
X102329142Y-101372780D01*
X101852952Y-102277542D02*
X101805333Y-102325161D01*
X101852952Y-102372780D01*
X101900571Y-102325161D01*
X101852952Y-102277542D01*
X101852952Y-102372780D01*
X100614857Y-102372780D02*
X100614857Y-101372780D01*
X100281523Y-102087066D01*
X99948190Y-101372780D01*
X99948190Y-102372780D01*
X99329142Y-102372780D02*
X99424380Y-102325161D01*
X99472000Y-102277542D01*
X99519619Y-102182304D01*
X99519619Y-101896590D01*
X99472000Y-101801352D01*
X99424380Y-101753733D01*
X99329142Y-101706114D01*
X99186285Y-101706114D01*
X99091047Y-101753733D01*
X99043428Y-101801352D01*
X98995809Y-101896590D01*
X98995809Y-102182304D01*
X99043428Y-102277542D01*
X99091047Y-102325161D01*
X99186285Y-102372780D01*
X99329142Y-102372780D01*
X98567238Y-102372780D02*
X98567238Y-101706114D01*
X98567238Y-101896590D02*
X98519619Y-101801352D01*
X98472000Y-101753733D01*
X98376761Y-101706114D01*
X98281523Y-101706114D01*
X97995809Y-102325161D02*
X97900571Y-102372780D01*
X97710095Y-102372780D01*
X97614857Y-102325161D01*
X97567238Y-102229923D01*
X97567238Y-102182304D01*
X97614857Y-102087066D01*
X97710095Y-102039447D01*
X97852952Y-102039447D01*
X97948190Y-101991828D01*
X97995809Y-101896590D01*
X97995809Y-101848971D01*
X97948190Y-101753733D01*
X97852952Y-101706114D01*
X97710095Y-101706114D01*
X97614857Y-101753733D01*
X97138666Y-102372780D02*
X97138666Y-101372780D01*
X96710095Y-102372780D02*
X96710095Y-101848971D01*
X96757714Y-101753733D01*
X96852952Y-101706114D01*
X96995809Y-101706114D01*
X97091047Y-101753733D01*
X97138666Y-101801352D01*
X95852952Y-102325161D02*
X95948190Y-102372780D01*
X96138666Y-102372780D01*
X96233904Y-102325161D01*
X96281523Y-102229923D01*
X96281523Y-101848971D01*
X96233904Y-101753733D01*
X96138666Y-101706114D01*
X95948190Y-101706114D01*
X95852952Y-101753733D01*
X95805333Y-101848971D01*
X95805333Y-101944209D01*
X96281523Y-102039447D01*
X94948190Y-102372780D02*
X94948190Y-101372780D01*
X94948190Y-102325161D02*
X95043428Y-102372780D01*
X95233904Y-102372780D01*
X95329142Y-102325161D01*
X95376761Y-102277542D01*
X95424380Y-102182304D01*
X95424380Y-101896590D01*
X95376761Y-101801352D01*
X95329142Y-101753733D01*
X95233904Y-101706114D01*
X95043428Y-101706114D01*
X94948190Y-101753733D01*
X116757714Y-103982780D02*
X117233904Y-103982780D01*
X117233904Y-102982780D01*
X115995809Y-103982780D02*
X115995809Y-103458971D01*
X116043428Y-103363733D01*
X116138666Y-103316114D01*
X116329142Y-103316114D01*
X116424380Y-103363733D01*
X115995809Y-103935161D02*
X116091047Y-103982780D01*
X116329142Y-103982780D01*
X116424380Y-103935161D01*
X116472000Y-103839923D01*
X116472000Y-103744685D01*
X116424380Y-103649447D01*
X116329142Y-103601828D01*
X116091047Y-103601828D01*
X115995809Y-103554209D01*
X115519619Y-103982780D02*
X115519619Y-102982780D01*
X115519619Y-103363733D02*
X115424380Y-103316114D01*
X115233904Y-103316114D01*
X115138666Y-103363733D01*
X115091047Y-103411352D01*
X115043428Y-103506590D01*
X115043428Y-103792304D01*
X115091047Y-103887542D01*
X115138666Y-103935161D01*
X115233904Y-103982780D01*
X115424380Y-103982780D01*
X115519619Y-103935161D01*
X114233904Y-103935161D02*
X114329142Y-103982780D01*
X114519619Y-103982780D01*
X114614857Y-103935161D01*
X114662476Y-103839923D01*
X114662476Y-103458971D01*
X114614857Y-103363733D01*
X114519619Y-103316114D01*
X114329142Y-103316114D01*
X114233904Y-103363733D01*
X114186285Y-103458971D01*
X114186285Y-103554209D01*
X114662476Y-103649447D01*
X113614857Y-103982780D02*
X113710095Y-103935161D01*
X113757714Y-103839923D01*
X113757714Y-102982780D01*
X113233904Y-103887542D02*
X113186285Y-103935161D01*
X113233904Y-103982780D01*
X113281523Y-103935161D01*
X113233904Y-103887542D01*
X113233904Y-103982780D01*
X113233904Y-103363733D02*
X113186285Y-103411352D01*
X113233904Y-103458971D01*
X113281523Y-103411352D01*
X113233904Y-103363733D01*
X113233904Y-103458971D01*
X117233904Y-105592780D02*
X117233904Y-104592780D01*
X116995809Y-105688019D02*
X116233904Y-105688019D01*
X115233904Y-105497542D02*
X115186285Y-105545161D01*
X115233904Y-105592780D01*
X115281523Y-105545161D01*
X115233904Y-105497542D01*
X115233904Y-105592780D01*
X115233904Y-104973733D02*
X115186285Y-105021352D01*
X115233904Y-105068971D01*
X115281523Y-105021352D01*
X115233904Y-104973733D01*
X115233904Y-105068971D01*
X113995809Y-105592780D02*
X113995809Y-104592780D01*
X113519619Y-105592780D02*
X113519619Y-104592780D01*
X113186285Y-105307066D01*
X112852952Y-104592780D01*
X112852952Y-105592780D01*
X112376761Y-104592780D02*
X112376761Y-105402304D01*
X112329142Y-105497542D01*
X112281523Y-105545161D01*
X112186285Y-105592780D01*
X111995809Y-105592780D01*
X111900571Y-105545161D01*
X111852952Y-105497542D01*
X111805333Y-105402304D01*
X111805333Y-104592780D01*
X117376761Y-106202780D02*
X116805333Y-106202780D01*
X117091047Y-107202780D02*
X117091047Y-106202780D01*
X116710095Y-107298019D02*
X115948190Y-107298019D01*
X114948190Y-107107542D02*
X114900571Y-107155161D01*
X114948190Y-107202780D01*
X114995809Y-107155161D01*
X114948190Y-107107542D01*
X114948190Y-107202780D01*
X114948190Y-106583733D02*
X114900571Y-106631352D01*
X114948190Y-106678971D01*
X114995809Y-106631352D01*
X114948190Y-106583733D01*
X114948190Y-106678971D01*
X113852952Y-106202780D02*
X113281523Y-106202780D01*
X113567238Y-107202780D02*
X113567238Y-106202780D01*
X112567238Y-107155161D02*
X112662476Y-107202780D01*
X112852952Y-107202780D01*
X112948190Y-107155161D01*
X112995809Y-107059923D01*
X112995809Y-106678971D01*
X112948190Y-106583733D01*
X112852952Y-106536114D01*
X112662476Y-106536114D01*
X112567238Y-106583733D01*
X112519619Y-106678971D01*
X112519619Y-106774209D01*
X112995809Y-106869447D01*
X112091047Y-107202780D02*
X112091047Y-106536114D01*
X112091047Y-106631352D02*
X112043428Y-106583733D01*
X111948190Y-106536114D01*
X111805333Y-106536114D01*
X111710095Y-106583733D01*
X111662476Y-106678971D01*
X111662476Y-107202780D01*
X111662476Y-106678971D02*
X111614857Y-106583733D01*
X111519619Y-106536114D01*
X111376761Y-106536114D01*
X111281523Y-106583733D01*
X111233904Y-106678971D01*
X111233904Y-107202780D01*
X110757714Y-106536114D02*
X110757714Y-107536114D01*
X110757714Y-106583733D02*
X110662476Y-106536114D01*
X110472000Y-106536114D01*
X110376761Y-106583733D01*
X110329142Y-106631352D01*
X110281523Y-106726590D01*
X110281523Y-107012304D01*
X110329142Y-107107542D01*
X110376761Y-107155161D01*
X110472000Y-107202780D01*
X110662476Y-107202780D01*
X110757714Y-107155161D01*
X109472000Y-107155161D02*
X109567238Y-107202780D01*
X109757714Y-107202780D01*
X109852952Y-107155161D01*
X109900571Y-107059923D01*
X109900571Y-106678971D01*
X109852952Y-106583733D01*
X109757714Y-106536114D01*
X109567238Y-106536114D01*
X109472000Y-106583733D01*
X109424380Y-106678971D01*
X109424380Y-106774209D01*
X109900571Y-106869447D01*
X108995809Y-107202780D02*
X108995809Y-106536114D01*
X108995809Y-106726590D02*
X108948190Y-106631352D01*
X108900571Y-106583733D01*
X108805333Y-106536114D01*
X108710095Y-106536114D01*
X107948190Y-107202780D02*
X107948190Y-106678971D01*
X107995809Y-106583733D01*
X108091047Y-106536114D01*
X108281523Y-106536114D01*
X108376761Y-106583733D01*
X107948190Y-107155161D02*
X108043428Y-107202780D01*
X108281523Y-107202780D01*
X108376761Y-107155161D01*
X108424380Y-107059923D01*
X108424380Y-106964685D01*
X108376761Y-106869447D01*
X108281523Y-106821828D01*
X108043428Y-106821828D01*
X107948190Y-106774209D01*
X107614857Y-106536114D02*
X107233904Y-106536114D01*
X107472000Y-106202780D02*
X107472000Y-107059923D01*
X107424380Y-107155161D01*
X107329142Y-107202780D01*
X107233904Y-107202780D01*
X106472000Y-106536114D02*
X106472000Y-107202780D01*
X106900571Y-106536114D02*
X106900571Y-107059923D01*
X106852952Y-107155161D01*
X106757714Y-107202780D01*
X106614857Y-107202780D01*
X106519619Y-107155161D01*
X106472000Y-107107542D01*
X105995809Y-107202780D02*
X105995809Y-106536114D01*
X105995809Y-106726590D02*
X105948190Y-106631352D01*
X105900571Y-106583733D01*
X105805333Y-106536114D01*
X105710095Y-106536114D01*
X104995809Y-107155161D02*
X105091047Y-107202780D01*
X105281523Y-107202780D01*
X105376761Y-107155161D01*
X105424380Y-107059923D01*
X105424380Y-106678971D01*
X105376761Y-106583733D01*
X105281523Y-106536114D01*
X105091047Y-106536114D01*
X104995809Y-106583733D01*
X104948190Y-106678971D01*
X104948190Y-106774209D01*
X105424380Y-106869447D01*
X102948190Y-107202780D02*
X102995809Y-107202780D01*
X103091047Y-107155161D01*
X103233904Y-107012304D01*
X103472000Y-106726590D01*
X103567238Y-106583733D01*
X103614857Y-106440876D01*
X103614857Y-106345638D01*
X103567238Y-106250400D01*
X103472000Y-106202780D01*
X103424380Y-106202780D01*
X103329142Y-106250400D01*
X103281523Y-106345638D01*
X103281523Y-106393257D01*
X103329142Y-106488495D01*
X103376761Y-106536114D01*
X103662476Y-106726590D01*
X103710095Y-106774209D01*
X103757714Y-106869447D01*
X103757714Y-107012304D01*
X103710095Y-107107542D01*
X103662476Y-107155161D01*
X103567238Y-107202780D01*
X103424380Y-107202780D01*
X103329142Y-107155161D01*
X103281523Y-107107542D01*
X103138666Y-106917066D01*
X103091047Y-106774209D01*
X103091047Y-106678971D01*
X101757714Y-107202780D02*
X101757714Y-106202780D01*
X101757714Y-106678971D02*
X101186285Y-106678971D01*
X101186285Y-107202780D02*
X101186285Y-106202780D01*
X100281523Y-106536114D02*
X100281523Y-107202780D01*
X100710095Y-106536114D02*
X100710095Y-107059923D01*
X100662476Y-107155161D01*
X100567238Y-107202780D01*
X100424380Y-107202780D01*
X100329142Y-107155161D01*
X100281523Y-107107542D01*
X99805333Y-107202780D02*
X99805333Y-106536114D01*
X99805333Y-106631352D02*
X99757714Y-106583733D01*
X99662476Y-106536114D01*
X99519619Y-106536114D01*
X99424380Y-106583733D01*
X99376761Y-106678971D01*
X99376761Y-107202780D01*
X99376761Y-106678971D02*
X99329142Y-106583733D01*
X99233904Y-106536114D01*
X99091047Y-106536114D01*
X98995809Y-106583733D01*
X98948190Y-106678971D01*
X98948190Y-107202780D01*
X98472000Y-107202780D02*
X98472000Y-106536114D01*
X98472000Y-106202780D02*
X98519619Y-106250400D01*
X98472000Y-106298019D01*
X98424380Y-106250400D01*
X98472000Y-106202780D01*
X98472000Y-106298019D01*
X97567238Y-107202780D02*
X97567238Y-106202780D01*
X97567238Y-107155161D02*
X97662476Y-107202780D01*
X97852952Y-107202780D01*
X97948190Y-107155161D01*
X97995809Y-107107542D01*
X98043428Y-107012304D01*
X98043428Y-106726590D01*
X97995809Y-106631352D01*
X97948190Y-106583733D01*
X97852952Y-106536114D01*
X97662476Y-106536114D01*
X97567238Y-106583733D01*
X97091047Y-107202780D02*
X97091047Y-106536114D01*
X97091047Y-106202780D02*
X97138666Y-106250400D01*
X97091047Y-106298019D01*
X97043428Y-106250400D01*
X97091047Y-106202780D01*
X97091047Y-106298019D01*
X96757714Y-106536114D02*
X96376761Y-106536114D01*
X96614857Y-106202780D02*
X96614857Y-107059923D01*
X96567238Y-107155161D01*
X96472000Y-107202780D01*
X96376761Y-107202780D01*
X96138666Y-106536114D02*
X95900571Y-107202780D01*
X95662476Y-106536114D02*
X95900571Y-107202780D01*
X95995809Y-107440876D01*
X96043428Y-107488495D01*
X96138666Y-107536114D01*
X117233904Y-108812780D02*
X117233904Y-107812780D01*
X116852952Y-107812780D01*
X116757714Y-107860400D01*
X116710095Y-107908019D01*
X116662476Y-108003257D01*
X116662476Y-108146114D01*
X116710095Y-108241352D01*
X116757714Y-108288971D01*
X116852952Y-108336590D01*
X117233904Y-108336590D01*
X116472000Y-108908019D02*
X115710095Y-108908019D01*
X114710095Y-108717542D02*
X114662476Y-108765161D01*
X114710095Y-108812780D01*
X114757714Y-108765161D01*
X114710095Y-108717542D01*
X114710095Y-108812780D01*
X114710095Y-108193733D02*
X114662476Y-108241352D01*
X114710095Y-108288971D01*
X114757714Y-108241352D01*
X114710095Y-108193733D01*
X114710095Y-108288971D01*
X113472000Y-108812780D02*
X113472000Y-107812780D01*
X113091047Y-107812780D01*
X112995809Y-107860400D01*
X112948190Y-107908019D01*
X112900571Y-108003257D01*
X112900571Y-108146114D01*
X112948190Y-108241352D01*
X112995809Y-108288971D01*
X113091047Y-108336590D01*
X113472000Y-108336590D01*
X112043428Y-108146114D02*
X112043428Y-108812780D01*
X112472000Y-108146114D02*
X112472000Y-108669923D01*
X112424380Y-108765161D01*
X112329142Y-108812780D01*
X112186285Y-108812780D01*
X112091047Y-108765161D01*
X112043428Y-108717542D01*
X111424380Y-108812780D02*
X111519619Y-108765161D01*
X111567238Y-108669923D01*
X111567238Y-107812780D01*
X111091047Y-108765161D02*
X110995809Y-108812780D01*
X110805333Y-108812780D01*
X110710095Y-108765161D01*
X110662476Y-108669923D01*
X110662476Y-108622304D01*
X110710095Y-108527066D01*
X110805333Y-108479447D01*
X110948190Y-108479447D01*
X111043428Y-108431828D01*
X111091047Y-108336590D01*
X111091047Y-108288971D01*
X111043428Y-108193733D01*
X110948190Y-108146114D01*
X110805333Y-108146114D01*
X110710095Y-108193733D01*
X109852952Y-108765161D02*
X109948190Y-108812780D01*
X110138666Y-108812780D01*
X110233904Y-108765161D01*
X110281523Y-108669923D01*
X110281523Y-108288971D01*
X110233904Y-108193733D01*
X110138666Y-108146114D01*
X109948190Y-108146114D01*
X109852952Y-108193733D01*
X109805333Y-108288971D01*
X109805333Y-108384209D01*
X110281523Y-108479447D01*
X108472000Y-108812780D02*
X108567238Y-108765161D01*
X108614857Y-108717542D01*
X108662476Y-108622304D01*
X108662476Y-108336590D01*
X108614857Y-108241352D01*
X108567238Y-108193733D01*
X108472000Y-108146114D01*
X108329142Y-108146114D01*
X108233904Y-108193733D01*
X108186285Y-108241352D01*
X108138666Y-108336590D01*
X108138666Y-108622304D01*
X108186285Y-108717542D01*
X108233904Y-108765161D01*
X108329142Y-108812780D01*
X108472000Y-108812780D01*
X107805333Y-108812780D02*
X107281523Y-108146114D01*
X107805333Y-108146114D02*
X107281523Y-108812780D01*
X106900571Y-108812780D02*
X106900571Y-108146114D01*
X106900571Y-107812780D02*
X106948190Y-107860400D01*
X106900571Y-107908019D01*
X106852952Y-107860400D01*
X106900571Y-107812780D01*
X106900571Y-107908019D01*
X106424380Y-108812780D02*
X106424380Y-108146114D01*
X106424380Y-108241352D02*
X106376761Y-108193733D01*
X106281523Y-108146114D01*
X106138666Y-108146114D01*
X106043428Y-108193733D01*
X105995809Y-108288971D01*
X105995809Y-108812780D01*
X105995809Y-108288971D02*
X105948190Y-108193733D01*
X105852952Y-108146114D01*
X105710095Y-108146114D01*
X105614857Y-108193733D01*
X105567238Y-108288971D01*
X105567238Y-108812780D01*
X104710095Y-108765161D02*
X104805333Y-108812780D01*
X104995809Y-108812780D01*
X105091047Y-108765161D01*
X105138666Y-108669923D01*
X105138666Y-108288971D01*
X105091047Y-108193733D01*
X104995809Y-108146114D01*
X104805333Y-108146114D01*
X104710095Y-108193733D01*
X104662476Y-108288971D01*
X104662476Y-108384209D01*
X105138666Y-108479447D01*
X104376761Y-108146114D02*
X103995809Y-108146114D01*
X104233904Y-107812780D02*
X104233904Y-108669923D01*
X104186285Y-108765161D01*
X104091047Y-108812780D01*
X103995809Y-108812780D01*
X103281523Y-108765161D02*
X103376761Y-108812780D01*
X103567238Y-108812780D01*
X103662476Y-108765161D01*
X103710095Y-108669923D01*
X103710095Y-108288971D01*
X103662476Y-108193733D01*
X103567238Y-108146114D01*
X103376761Y-108146114D01*
X103281523Y-108193733D01*
X103233904Y-108288971D01*
X103233904Y-108384209D01*
X103710095Y-108479447D01*
X102805333Y-108812780D02*
X102805333Y-108146114D01*
X102805333Y-108336590D02*
X102757714Y-108241352D01*
X102710095Y-108193733D01*
X102614857Y-108146114D01*
X102519619Y-108146114D01*
D10*
X137053000Y-93864866D02*
X137053000Y-93164866D01*
X137319666Y-93164866D01*
X137386333Y-93198200D01*
X137419666Y-93231533D01*
X137453000Y-93298200D01*
X137453000Y-93398200D01*
X137419666Y-93464866D01*
X137386333Y-93498200D01*
X137319666Y-93531533D01*
X137053000Y-93531533D01*
X137586333Y-93931533D02*
X138119666Y-93931533D01*
X138286333Y-93864866D02*
X138286333Y-93164866D01*
X138619666Y-93864866D02*
X138619666Y-93164866D01*
X139019666Y-93864866D01*
X139019666Y-93164866D01*
X139253000Y-93164866D02*
X139653000Y-93164866D01*
X139453000Y-93864866D02*
X139453000Y-93164866D01*
D13*
X128115200Y-93838600D02*
X128115200Y-93410028D01*
X128372342Y-93924314D02*
X127472342Y-93624314D01*
X128372342Y-93324314D01*
X128372342Y-93024314D02*
X127472342Y-93024314D01*
X128372342Y-92595742D02*
X127472342Y-92595742D01*
X128372342Y-92081457D01*
X127472342Y-92081457D01*
D10*
X129867866Y-109256333D02*
X129867866Y-108856333D01*
X130567866Y-109056333D02*
X129867866Y-109056333D01*
X130634533Y-108789666D02*
X130634533Y-108256333D01*
X130534533Y-108123000D02*
X130567866Y-108023000D01*
X130567866Y-107856333D01*
X130534533Y-107789666D01*
X130501200Y-107756333D01*
X130434533Y-107723000D01*
X130367866Y-107723000D01*
X130301200Y-107756333D01*
X130267866Y-107789666D01*
X130234533Y-107856333D01*
X130201200Y-107989666D01*
X130167866Y-108056333D01*
X130134533Y-108089666D01*
X130067866Y-108123000D01*
X130001200Y-108123000D01*
X129934533Y-108089666D01*
X129901200Y-108056333D01*
X129867866Y-107989666D01*
X129867866Y-107823000D01*
X129901200Y-107723000D01*
X130501200Y-107023000D02*
X130534533Y-107056333D01*
X130567866Y-107156333D01*
X130567866Y-107223000D01*
X130534533Y-107323000D01*
X130467866Y-107389666D01*
X130401200Y-107423000D01*
X130267866Y-107456333D01*
X130167866Y-107456333D01*
X130034533Y-107423000D01*
X129967866Y-107389666D01*
X129901200Y-107323000D01*
X129867866Y-107223000D01*
X129867866Y-107156333D01*
X129901200Y-107056333D01*
X129934533Y-107023000D01*
X130567866Y-106389666D02*
X130567866Y-106723000D01*
X129867866Y-106723000D01*
D13*
X125237142Y-93954514D02*
X125237142Y-93397371D01*
X125580000Y-93697371D01*
X125580000Y-93568800D01*
X125622857Y-93483085D01*
X125665714Y-93440228D01*
X125751428Y-93397371D01*
X125965714Y-93397371D01*
X126051428Y-93440228D01*
X126094285Y-93483085D01*
X126137142Y-93568800D01*
X126137142Y-93825942D01*
X126094285Y-93911657D01*
X126051428Y-93954514D01*
X125237142Y-93140228D02*
X126137142Y-92840228D01*
X125237142Y-92540228D01*
D11*
X104157428Y-82548571D02*
X104157428Y-82205714D01*
X104157428Y-82377142D02*
X103557428Y-82377142D01*
X103643142Y-82320000D01*
X103700285Y-82262857D01*
X103728857Y-82205714D01*
X103557428Y-82920000D02*
X103557428Y-82977142D01*
X103586000Y-83034285D01*
X103614571Y-83062857D01*
X103671714Y-83091428D01*
X103786000Y-83120000D01*
X103928857Y-83120000D01*
X104043142Y-83091428D01*
X104100285Y-83062857D01*
X104128857Y-83034285D01*
X104157428Y-82977142D01*
X104157428Y-82920000D01*
X104128857Y-82862857D01*
X104100285Y-82834285D01*
X104043142Y-82805714D01*
X103928857Y-82777142D01*
X103786000Y-82777142D01*
X103671714Y-82805714D01*
X103614571Y-82834285D01*
X103586000Y-82862857D01*
X103557428Y-82920000D01*
X104157428Y-83377142D02*
X103557428Y-83377142D01*
X103986000Y-83577142D01*
X103557428Y-83777142D01*
X104157428Y-83777142D01*
X104214571Y-83920000D02*
X104214571Y-84377142D01*
X104157428Y-84862857D02*
X103871714Y-84662857D01*
X104157428Y-84520000D02*
X103557428Y-84520000D01*
X103557428Y-84748571D01*
X103586000Y-84805714D01*
X103614571Y-84834285D01*
X103671714Y-84862857D01*
X103757428Y-84862857D01*
X103814571Y-84834285D01*
X103843142Y-84805714D01*
X103871714Y-84748571D01*
X103871714Y-84520000D01*
X104157428Y-85434285D02*
X104157428Y-85091428D01*
X104157428Y-85262857D02*
X103557428Y-85262857D01*
X103643142Y-85205714D01*
X103700285Y-85148571D01*
X103728857Y-85091428D01*
X107803904Y-82886761D02*
X107803904Y-82429619D01*
X107803904Y-82658190D02*
X107003904Y-82658190D01*
X107118190Y-82582000D01*
X107194380Y-82505809D01*
X107232476Y-82429619D01*
X107003904Y-83382000D02*
X107003904Y-83458190D01*
X107042000Y-83534380D01*
X107080095Y-83572476D01*
X107156285Y-83610571D01*
X107308666Y-83648666D01*
X107499142Y-83648666D01*
X107651523Y-83610571D01*
X107727714Y-83572476D01*
X107765809Y-83534380D01*
X107803904Y-83458190D01*
X107803904Y-83382000D01*
X107765809Y-83305809D01*
X107727714Y-83267714D01*
X107651523Y-83229619D01*
X107499142Y-83191523D01*
X107308666Y-83191523D01*
X107156285Y-83229619D01*
X107080095Y-83267714D01*
X107042000Y-83305809D01*
X107003904Y-83382000D01*
X107803904Y-83991523D02*
X107003904Y-83991523D01*
X107575333Y-84258190D01*
X107003904Y-84524857D01*
X107803904Y-84524857D01*
X107880095Y-84715333D02*
X107880095Y-85324857D01*
X107803904Y-85972476D02*
X107422952Y-85705809D01*
X107803904Y-85515333D02*
X107003904Y-85515333D01*
X107003904Y-85820095D01*
X107042000Y-85896285D01*
X107080095Y-85934380D01*
X107156285Y-85972476D01*
X107270571Y-85972476D01*
X107346761Y-85934380D01*
X107384857Y-85896285D01*
X107422952Y-85820095D01*
X107422952Y-85515333D01*
X107080095Y-86277238D02*
X107042000Y-86315333D01*
X107003904Y-86391523D01*
X107003904Y-86582000D01*
X107042000Y-86658190D01*
X107080095Y-86696285D01*
X107156285Y-86734380D01*
X107232476Y-86734380D01*
X107346761Y-86696285D01*
X107803904Y-86239142D01*
X107803904Y-86734380D01*
X104153904Y-76543142D02*
X104153904Y-76086000D01*
X104153904Y-76314571D02*
X103353904Y-76314571D01*
X103468190Y-76238380D01*
X103544380Y-76162190D01*
X103582476Y-76086000D01*
X103696761Y-77000285D02*
X103658666Y-76924095D01*
X103620571Y-76886000D01*
X103544380Y-76847904D01*
X103506285Y-76847904D01*
X103430095Y-76886000D01*
X103392000Y-76924095D01*
X103353904Y-77000285D01*
X103353904Y-77152666D01*
X103392000Y-77228857D01*
X103430095Y-77266952D01*
X103506285Y-77305047D01*
X103544380Y-77305047D01*
X103620571Y-77266952D01*
X103658666Y-77228857D01*
X103696761Y-77152666D01*
X103696761Y-77000285D01*
X103734857Y-76924095D01*
X103772952Y-76886000D01*
X103849142Y-76847904D01*
X104001523Y-76847904D01*
X104077714Y-76886000D01*
X104115809Y-76924095D01*
X104153904Y-77000285D01*
X104153904Y-77152666D01*
X104115809Y-77228857D01*
X104077714Y-77266952D01*
X104001523Y-77305047D01*
X103849142Y-77305047D01*
X103772952Y-77266952D01*
X103734857Y-77228857D01*
X103696761Y-77152666D01*
X103353904Y-77800285D02*
X103353904Y-77876476D01*
X103392000Y-77952666D01*
X103430095Y-77990761D01*
X103506285Y-78028857D01*
X103658666Y-78066952D01*
X103849142Y-78066952D01*
X104001523Y-78028857D01*
X104077714Y-77990761D01*
X104115809Y-77952666D01*
X104153904Y-77876476D01*
X104153904Y-77800285D01*
X104115809Y-77724095D01*
X104077714Y-77686000D01*
X104001523Y-77647904D01*
X103849142Y-77609809D01*
X103658666Y-77609809D01*
X103506285Y-77647904D01*
X103430095Y-77686000D01*
X103392000Y-77724095D01*
X103353904Y-77800285D01*
X104153904Y-78409809D02*
X103353904Y-78409809D01*
X103849142Y-78486000D02*
X104153904Y-78714571D01*
X103620571Y-78714571D02*
X103925333Y-78409809D01*
X104230095Y-78866952D02*
X104230095Y-79476476D01*
X104153904Y-80124095D02*
X103772952Y-79857428D01*
X104153904Y-79666952D02*
X103353904Y-79666952D01*
X103353904Y-79971714D01*
X103392000Y-80047904D01*
X103430095Y-80086000D01*
X103506285Y-80124095D01*
X103620571Y-80124095D01*
X103696761Y-80086000D01*
X103734857Y-80047904D01*
X103772952Y-79971714D01*
X103772952Y-79666952D01*
X103353904Y-80390761D02*
X103353904Y-80886000D01*
X103658666Y-80619333D01*
X103658666Y-80733619D01*
X103696761Y-80809809D01*
X103734857Y-80847904D01*
X103811047Y-80886000D01*
X104001523Y-80886000D01*
X104077714Y-80847904D01*
X104115809Y-80809809D01*
X104153904Y-80733619D01*
X104153904Y-80505047D01*
X104115809Y-80428857D01*
X104077714Y-80390761D01*
X107709904Y-77305142D02*
X107709904Y-76848000D01*
X107709904Y-77076571D02*
X106909904Y-77076571D01*
X107024190Y-77000380D01*
X107100380Y-76924190D01*
X107138476Y-76848000D01*
X107252761Y-77762285D02*
X107214666Y-77686095D01*
X107176571Y-77648000D01*
X107100380Y-77609904D01*
X107062285Y-77609904D01*
X106986095Y-77648000D01*
X106948000Y-77686095D01*
X106909904Y-77762285D01*
X106909904Y-77914666D01*
X106948000Y-77990857D01*
X106986095Y-78028952D01*
X107062285Y-78067047D01*
X107100380Y-78067047D01*
X107176571Y-78028952D01*
X107214666Y-77990857D01*
X107252761Y-77914666D01*
X107252761Y-77762285D01*
X107290857Y-77686095D01*
X107328952Y-77648000D01*
X107405142Y-77609904D01*
X107557523Y-77609904D01*
X107633714Y-77648000D01*
X107671809Y-77686095D01*
X107709904Y-77762285D01*
X107709904Y-77914666D01*
X107671809Y-77990857D01*
X107633714Y-78028952D01*
X107557523Y-78067047D01*
X107405142Y-78067047D01*
X107328952Y-78028952D01*
X107290857Y-77990857D01*
X107252761Y-77914666D01*
X106909904Y-78562285D02*
X106909904Y-78638476D01*
X106948000Y-78714666D01*
X106986095Y-78752761D01*
X107062285Y-78790857D01*
X107214666Y-78828952D01*
X107405142Y-78828952D01*
X107557523Y-78790857D01*
X107633714Y-78752761D01*
X107671809Y-78714666D01*
X107709904Y-78638476D01*
X107709904Y-78562285D01*
X107671809Y-78486095D01*
X107633714Y-78448000D01*
X107557523Y-78409904D01*
X107405142Y-78371809D01*
X107214666Y-78371809D01*
X107062285Y-78409904D01*
X106986095Y-78448000D01*
X106948000Y-78486095D01*
X106909904Y-78562285D01*
X107709904Y-79171809D02*
X106909904Y-79171809D01*
X107405142Y-79248000D02*
X107709904Y-79476571D01*
X107176571Y-79476571D02*
X107481333Y-79171809D01*
X107786095Y-79628952D02*
X107786095Y-80238476D01*
X107709904Y-80886095D02*
X107328952Y-80619428D01*
X107709904Y-80428952D02*
X106909904Y-80428952D01*
X106909904Y-80733714D01*
X106948000Y-80809904D01*
X106986095Y-80848000D01*
X107062285Y-80886095D01*
X107176571Y-80886095D01*
X107252761Y-80848000D01*
X107290857Y-80809904D01*
X107328952Y-80733714D01*
X107328952Y-80428952D01*
X107176571Y-81571809D02*
X107709904Y-81571809D01*
X106871809Y-81381333D02*
X107443238Y-81190857D01*
X107443238Y-81686095D01*
X111011904Y-81711952D02*
X111011904Y-81254809D01*
X111011904Y-81483380D02*
X110211904Y-81483380D01*
X110326190Y-81407190D01*
X110402380Y-81331000D01*
X110440476Y-81254809D01*
X110478571Y-82054809D02*
X111011904Y-82054809D01*
X110554761Y-82054809D02*
X110516666Y-82092904D01*
X110478571Y-82169095D01*
X110478571Y-82283380D01*
X110516666Y-82359571D01*
X110592857Y-82397666D01*
X111011904Y-82397666D01*
X111088095Y-82588142D02*
X111088095Y-83197666D01*
X110935714Y-83845285D02*
X110973809Y-83807190D01*
X111011904Y-83692904D01*
X111011904Y-83616714D01*
X110973809Y-83502428D01*
X110897619Y-83426238D01*
X110821428Y-83388142D01*
X110669047Y-83350047D01*
X110554761Y-83350047D01*
X110402380Y-83388142D01*
X110326190Y-83426238D01*
X110250000Y-83502428D01*
X110211904Y-83616714D01*
X110211904Y-83692904D01*
X110250000Y-83807190D01*
X110288095Y-83845285D01*
X110288095Y-84150047D02*
X110250000Y-84188142D01*
X110211904Y-84264333D01*
X110211904Y-84454809D01*
X110250000Y-84531000D01*
X110288095Y-84569095D01*
X110364285Y-84607190D01*
X110440476Y-84607190D01*
X110554761Y-84569095D01*
X111011904Y-84111952D01*
X111011904Y-84607190D01*
X110211904Y-75539904D02*
X110211904Y-76035142D01*
X110516666Y-75768476D01*
X110516666Y-75882761D01*
X110554761Y-75958952D01*
X110592857Y-75997047D01*
X110669047Y-76035142D01*
X110859523Y-76035142D01*
X110935714Y-75997047D01*
X110973809Y-75958952D01*
X111011904Y-75882761D01*
X111011904Y-75654190D01*
X110973809Y-75578000D01*
X110935714Y-75539904D01*
X110211904Y-76720857D02*
X110211904Y-76568476D01*
X110250000Y-76492285D01*
X110288095Y-76454190D01*
X110402380Y-76378000D01*
X110554761Y-76339904D01*
X110859523Y-76339904D01*
X110935714Y-76378000D01*
X110973809Y-76416095D01*
X111011904Y-76492285D01*
X111011904Y-76644666D01*
X110973809Y-76720857D01*
X110935714Y-76758952D01*
X110859523Y-76797047D01*
X110669047Y-76797047D01*
X110592857Y-76758952D01*
X110554761Y-76720857D01*
X110516666Y-76644666D01*
X110516666Y-76492285D01*
X110554761Y-76416095D01*
X110592857Y-76378000D01*
X110669047Y-76339904D01*
X110211904Y-77292285D02*
X110211904Y-77368476D01*
X110250000Y-77444666D01*
X110288095Y-77482761D01*
X110364285Y-77520857D01*
X110516666Y-77558952D01*
X110707142Y-77558952D01*
X110859523Y-77520857D01*
X110935714Y-77482761D01*
X110973809Y-77444666D01*
X111011904Y-77368476D01*
X111011904Y-77292285D01*
X110973809Y-77216095D01*
X110935714Y-77178000D01*
X110859523Y-77139904D01*
X110707142Y-77101809D01*
X110516666Y-77101809D01*
X110364285Y-77139904D01*
X110288095Y-77178000D01*
X110250000Y-77216095D01*
X110211904Y-77292285D01*
X111011904Y-77901809D02*
X110211904Y-77901809D01*
X110707142Y-77978000D02*
X111011904Y-78206571D01*
X110478571Y-78206571D02*
X110783333Y-77901809D01*
X111088095Y-78358952D02*
X111088095Y-78968476D01*
X111011904Y-79616095D02*
X110630952Y-79349428D01*
X111011904Y-79158952D02*
X110211904Y-79158952D01*
X110211904Y-79463714D01*
X110250000Y-79539904D01*
X110288095Y-79578000D01*
X110364285Y-79616095D01*
X110478571Y-79616095D01*
X110554761Y-79578000D01*
X110592857Y-79539904D01*
X110630952Y-79463714D01*
X110630952Y-79158952D01*
X110211904Y-80339904D02*
X110211904Y-79958952D01*
X110592857Y-79920857D01*
X110554761Y-79958952D01*
X110516666Y-80035142D01*
X110516666Y-80225619D01*
X110554761Y-80301809D01*
X110592857Y-80339904D01*
X110669047Y-80378000D01*
X110859523Y-80378000D01*
X110935714Y-80339904D01*
X110973809Y-80301809D01*
X111011904Y-80225619D01*
X111011904Y-80035142D01*
X110973809Y-79958952D01*
X110935714Y-79920857D01*
X147206904Y-87973095D02*
X147206904Y-87515952D01*
X147206904Y-87744523D02*
X146406904Y-87744523D01*
X146521190Y-87668333D01*
X146597380Y-87592142D01*
X146635476Y-87515952D01*
X146406904Y-88468333D02*
X146406904Y-88544523D01*
X146445000Y-88620714D01*
X146483095Y-88658809D01*
X146559285Y-88696904D01*
X146711666Y-88735000D01*
X146902142Y-88735000D01*
X147054523Y-88696904D01*
X147130714Y-88658809D01*
X147168809Y-88620714D01*
X147206904Y-88544523D01*
X147206904Y-88468333D01*
X147168809Y-88392142D01*
X147130714Y-88354047D01*
X147054523Y-88315952D01*
X146902142Y-88277857D01*
X146711666Y-88277857D01*
X146559285Y-88315952D01*
X146483095Y-88354047D01*
X146445000Y-88392142D01*
X146406904Y-88468333D01*
X147206904Y-89077857D02*
X146406904Y-89077857D01*
X146902142Y-89154047D02*
X147206904Y-89382619D01*
X146673571Y-89382619D02*
X146978333Y-89077857D01*
X147283095Y-89535000D02*
X147283095Y-90144523D01*
X147206904Y-90792142D02*
X146825952Y-90525476D01*
X147206904Y-90335000D02*
X146406904Y-90335000D01*
X146406904Y-90639761D01*
X146445000Y-90715952D01*
X146483095Y-90754047D01*
X146559285Y-90792142D01*
X146673571Y-90792142D01*
X146749761Y-90754047D01*
X146787857Y-90715952D01*
X146825952Y-90639761D01*
X146825952Y-90335000D01*
X146673571Y-91477857D02*
X147206904Y-91477857D01*
X146368809Y-91287380D02*
X146940238Y-91096904D01*
X146940238Y-91592142D01*
D10*
X145392380Y-69120000D02*
X145392380Y-68548571D01*
X145392380Y-68834285D02*
X144392380Y-68834285D01*
X144535238Y-68739047D01*
X144630476Y-68643809D01*
X144678095Y-68548571D01*
X144392380Y-69739047D02*
X144392380Y-69834285D01*
X144440000Y-69929523D01*
X144487619Y-69977142D01*
X144582857Y-70024761D01*
X144773333Y-70072380D01*
X145011428Y-70072380D01*
X145201904Y-70024761D01*
X145297142Y-69977142D01*
X145344761Y-69929523D01*
X145392380Y-69834285D01*
X145392380Y-69739047D01*
X145344761Y-69643809D01*
X145297142Y-69596190D01*
X145201904Y-69548571D01*
X145011428Y-69500952D01*
X144773333Y-69500952D01*
X144582857Y-69548571D01*
X144487619Y-69596190D01*
X144440000Y-69643809D01*
X144392380Y-69739047D01*
X144725714Y-70929523D02*
X145392380Y-70929523D01*
X144725714Y-70500952D02*
X145249523Y-70500952D01*
X145344761Y-70548571D01*
X145392380Y-70643809D01*
X145392380Y-70786666D01*
X145344761Y-70881904D01*
X145297142Y-70929523D01*
X145487619Y-71167619D02*
X145487619Y-71929523D01*
X145297142Y-72739047D02*
X145344761Y-72691428D01*
X145392380Y-72548571D01*
X145392380Y-72453333D01*
X145344761Y-72310476D01*
X145249523Y-72215238D01*
X145154285Y-72167619D01*
X144963809Y-72120000D01*
X144820952Y-72120000D01*
X144630476Y-72167619D01*
X144535238Y-72215238D01*
X144440000Y-72310476D01*
X144392380Y-72453333D01*
X144392380Y-72548571D01*
X144440000Y-72691428D01*
X144487619Y-72739047D01*
X144392380Y-73072380D02*
X144392380Y-73739047D01*
X145392380Y-73310476D01*
X120086380Y-101425619D02*
X120086380Y-100854190D01*
X120086380Y-101139904D02*
X119086380Y-101139904D01*
X119229238Y-101044666D01*
X119324476Y-100949428D01*
X119372095Y-100854190D01*
X119086380Y-102044666D02*
X119086380Y-102139904D01*
X119134000Y-102235142D01*
X119181619Y-102282761D01*
X119276857Y-102330380D01*
X119467333Y-102378000D01*
X119705428Y-102378000D01*
X119895904Y-102330380D01*
X119991142Y-102282761D01*
X120038761Y-102235142D01*
X120086380Y-102139904D01*
X120086380Y-102044666D01*
X120038761Y-101949428D01*
X119991142Y-101901809D01*
X119895904Y-101854190D01*
X119705428Y-101806571D01*
X119467333Y-101806571D01*
X119276857Y-101854190D01*
X119181619Y-101901809D01*
X119134000Y-101949428D01*
X119086380Y-102044666D01*
X120086380Y-102806571D02*
X119086380Y-102806571D01*
X119705428Y-102901809D02*
X120086380Y-103187523D01*
X119419714Y-103187523D02*
X119800666Y-102806571D01*
X120181619Y-103378000D02*
X120181619Y-104139904D01*
X120086380Y-104949428D02*
X119610190Y-104616095D01*
X120086380Y-104378000D02*
X119086380Y-104378000D01*
X119086380Y-104758952D01*
X119134000Y-104854190D01*
X119181619Y-104901809D01*
X119276857Y-104949428D01*
X119419714Y-104949428D01*
X119514952Y-104901809D01*
X119562571Y-104854190D01*
X119610190Y-104758952D01*
X119610190Y-104378000D01*
X119181619Y-105330380D02*
X119134000Y-105378000D01*
X119086380Y-105473238D01*
X119086380Y-105711333D01*
X119134000Y-105806571D01*
X119181619Y-105854190D01*
X119276857Y-105901809D01*
X119372095Y-105901809D01*
X119514952Y-105854190D01*
X120086380Y-105282761D01*
X120086380Y-105901809D01*
X129500380Y-101719285D02*
X129500380Y-102290714D01*
X130500380Y-102005000D02*
X129500380Y-102005000D01*
X130500380Y-102624047D02*
X129500380Y-102624047D01*
X129976571Y-102624047D02*
X129976571Y-103195476D01*
X130500380Y-103195476D02*
X129500380Y-103195476D01*
X130500380Y-103671666D02*
X129500380Y-103671666D01*
X129500380Y-103909761D01*
X129548000Y-104052619D01*
X129643238Y-104147857D01*
X129738476Y-104195476D01*
X129928952Y-104243095D01*
X130071809Y-104243095D01*
X130262285Y-104195476D01*
X130357523Y-104147857D01*
X130452761Y-104052619D01*
X130500380Y-103909761D01*
X130500380Y-103671666D01*
X130500380Y-105195476D02*
X130500380Y-104624047D01*
X130500380Y-104909761D02*
X129500380Y-104909761D01*
X129643238Y-104814523D01*
X129738476Y-104719285D01*
X129786095Y-104624047D01*
X126579380Y-103505000D02*
X126817476Y-103505000D01*
X126722238Y-103266904D02*
X126817476Y-103505000D01*
X126722238Y-103743095D01*
X127007952Y-103362142D02*
X126817476Y-103505000D01*
X127007952Y-103647857D01*
X135740380Y-101552619D02*
X135740380Y-100981190D01*
X135740380Y-101266904D02*
X134740380Y-101266904D01*
X134883238Y-101171666D01*
X134978476Y-101076428D01*
X135026095Y-100981190D01*
X134740380Y-102171666D02*
X134740380Y-102266904D01*
X134788000Y-102362142D01*
X134835619Y-102409761D01*
X134930857Y-102457380D01*
X135121333Y-102505000D01*
X135359428Y-102505000D01*
X135549904Y-102457380D01*
X135645142Y-102409761D01*
X135692761Y-102362142D01*
X135740380Y-102266904D01*
X135740380Y-102171666D01*
X135692761Y-102076428D01*
X135645142Y-102028809D01*
X135549904Y-101981190D01*
X135359428Y-101933571D01*
X135121333Y-101933571D01*
X134930857Y-101981190D01*
X134835619Y-102028809D01*
X134788000Y-102076428D01*
X134740380Y-102171666D01*
X135740380Y-102933571D02*
X134740380Y-102933571D01*
X135359428Y-103028809D02*
X135740380Y-103314523D01*
X135073714Y-103314523D02*
X135454666Y-102933571D01*
X135835619Y-103505000D02*
X135835619Y-104266904D01*
X135740380Y-105076428D02*
X135264190Y-104743095D01*
X135740380Y-104505000D02*
X134740380Y-104505000D01*
X134740380Y-104885952D01*
X134788000Y-104981190D01*
X134835619Y-105028809D01*
X134930857Y-105076428D01*
X135073714Y-105076428D01*
X135168952Y-105028809D01*
X135216571Y-104981190D01*
X135264190Y-104885952D01*
X135264190Y-104505000D01*
X135168952Y-105647857D02*
X135121333Y-105552619D01*
X135073714Y-105505000D01*
X134978476Y-105457380D01*
X134930857Y-105457380D01*
X134835619Y-105505000D01*
X134788000Y-105552619D01*
X134740380Y-105647857D01*
X134740380Y-105838333D01*
X134788000Y-105933571D01*
X134835619Y-105981190D01*
X134930857Y-106028809D01*
X134978476Y-106028809D01*
X135073714Y-105981190D01*
X135121333Y-105933571D01*
X135168952Y-105838333D01*
X135168952Y-105647857D01*
X135216571Y-105552619D01*
X135264190Y-105505000D01*
X135359428Y-105457380D01*
X135549904Y-105457380D01*
X135645142Y-105505000D01*
X135692761Y-105552619D01*
X135740380Y-105647857D01*
X135740380Y-105838333D01*
X135692761Y-105933571D01*
X135645142Y-105981190D01*
X135549904Y-106028809D01*
X135359428Y-106028809D01*
X135264190Y-105981190D01*
X135216571Y-105933571D01*
X135168952Y-105838333D01*
D11*
X134733095Y-79667380D02*
X134695000Y-79705476D01*
X134656904Y-79781666D01*
X134656904Y-79972142D01*
X134695000Y-80048333D01*
X134733095Y-80086428D01*
X134809285Y-80124523D01*
X134885476Y-80124523D01*
X134999761Y-80086428D01*
X135456904Y-79629285D01*
X135456904Y-80124523D01*
X135380714Y-80467380D02*
X135418809Y-80505476D01*
X135456904Y-80467380D01*
X135418809Y-80429285D01*
X135380714Y-80467380D01*
X135456904Y-80467380D01*
X134733095Y-80810238D02*
X134695000Y-80848333D01*
X134656904Y-80924523D01*
X134656904Y-81115000D01*
X134695000Y-81191190D01*
X134733095Y-81229285D01*
X134809285Y-81267380D01*
X134885476Y-81267380D01*
X134999761Y-81229285D01*
X135456904Y-80772142D01*
X135456904Y-81267380D01*
X134923571Y-81953095D02*
X135456904Y-81953095D01*
X134923571Y-81610238D02*
X135342619Y-81610238D01*
X135418809Y-81648333D01*
X135456904Y-81724523D01*
X135456904Y-81838809D01*
X135418809Y-81915000D01*
X135380714Y-81953095D01*
X135533095Y-82143571D02*
X135533095Y-82753095D01*
X135380714Y-83400714D02*
X135418809Y-83362619D01*
X135456904Y-83248333D01*
X135456904Y-83172142D01*
X135418809Y-83057857D01*
X135342619Y-82981666D01*
X135266428Y-82943571D01*
X135114047Y-82905476D01*
X134999761Y-82905476D01*
X134847380Y-82943571D01*
X134771190Y-82981666D01*
X134695000Y-83057857D01*
X134656904Y-83172142D01*
X134656904Y-83248333D01*
X134695000Y-83362619D01*
X134733095Y-83400714D01*
X134923571Y-84086428D02*
X135456904Y-84086428D01*
X134618809Y-83895952D02*
X135190238Y-83705476D01*
X135190238Y-84200714D01*
X143617904Y-84290095D02*
X143617904Y-83832952D01*
X143617904Y-84061523D02*
X142817904Y-84061523D01*
X142932190Y-83985333D01*
X143008380Y-83909142D01*
X143046476Y-83832952D01*
X142817904Y-84785333D02*
X142817904Y-84861523D01*
X142856000Y-84937714D01*
X142894095Y-84975809D01*
X142970285Y-85013904D01*
X143122666Y-85052000D01*
X143313142Y-85052000D01*
X143465523Y-85013904D01*
X143541714Y-84975809D01*
X143579809Y-84937714D01*
X143617904Y-84861523D01*
X143617904Y-84785333D01*
X143579809Y-84709142D01*
X143541714Y-84671047D01*
X143465523Y-84632952D01*
X143313142Y-84594857D01*
X143122666Y-84594857D01*
X142970285Y-84632952D01*
X142894095Y-84671047D01*
X142856000Y-84709142D01*
X142817904Y-84785333D01*
X143617904Y-85394857D02*
X142817904Y-85394857D01*
X143313142Y-85471047D02*
X143617904Y-85699619D01*
X143084571Y-85699619D02*
X143389333Y-85394857D01*
X143694095Y-85852000D02*
X143694095Y-86461523D01*
X143617904Y-87109142D02*
X143236952Y-86842476D01*
X143617904Y-86652000D02*
X142817904Y-86652000D01*
X142817904Y-86956761D01*
X142856000Y-87032952D01*
X142894095Y-87071047D01*
X142970285Y-87109142D01*
X143084571Y-87109142D01*
X143160761Y-87071047D01*
X143198857Y-87032952D01*
X143236952Y-86956761D01*
X143236952Y-86652000D01*
X142817904Y-87375809D02*
X142817904Y-87871047D01*
X143122666Y-87604380D01*
X143122666Y-87718666D01*
X143160761Y-87794857D01*
X143198857Y-87832952D01*
X143275047Y-87871047D01*
X143465523Y-87871047D01*
X143541714Y-87832952D01*
X143579809Y-87794857D01*
X143617904Y-87718666D01*
X143617904Y-87490095D01*
X143579809Y-87413904D01*
X143541714Y-87375809D01*
X128085904Y-68427857D02*
X128085904Y-68504047D01*
X128124000Y-68580238D01*
X128162095Y-68618333D01*
X128238285Y-68656428D01*
X128390666Y-68694523D01*
X128581142Y-68694523D01*
X128733523Y-68656428D01*
X128809714Y-68618333D01*
X128847809Y-68580238D01*
X128885904Y-68504047D01*
X128885904Y-68427857D01*
X128847809Y-68351666D01*
X128809714Y-68313571D01*
X128733523Y-68275476D01*
X128581142Y-68237380D01*
X128390666Y-68237380D01*
X128238285Y-68275476D01*
X128162095Y-68313571D01*
X128124000Y-68351666D01*
X128085904Y-68427857D01*
X128809714Y-69037380D02*
X128847809Y-69075476D01*
X128885904Y-69037380D01*
X128847809Y-68999285D01*
X128809714Y-69037380D01*
X128885904Y-69037380D01*
X128885904Y-69837380D02*
X128885904Y-69380238D01*
X128885904Y-69608809D02*
X128085904Y-69608809D01*
X128200190Y-69532619D01*
X128276380Y-69456428D01*
X128314476Y-69380238D01*
X128352571Y-70523095D02*
X128885904Y-70523095D01*
X128352571Y-70180238D02*
X128771619Y-70180238D01*
X128847809Y-70218333D01*
X128885904Y-70294523D01*
X128885904Y-70408809D01*
X128847809Y-70485000D01*
X128809714Y-70523095D01*
X128962095Y-70713571D02*
X128962095Y-71323095D01*
X128809714Y-71970714D02*
X128847809Y-71932619D01*
X128885904Y-71818333D01*
X128885904Y-71742142D01*
X128847809Y-71627857D01*
X128771619Y-71551666D01*
X128695428Y-71513571D01*
X128543047Y-71475476D01*
X128428761Y-71475476D01*
X128276380Y-71513571D01*
X128200190Y-71551666D01*
X128124000Y-71627857D01*
X128085904Y-71742142D01*
X128085904Y-71818333D01*
X128124000Y-71932619D01*
X128162095Y-71970714D01*
X128428761Y-72427857D02*
X128390666Y-72351666D01*
X128352571Y-72313571D01*
X128276380Y-72275476D01*
X128238285Y-72275476D01*
X128162095Y-72313571D01*
X128124000Y-72351666D01*
X128085904Y-72427857D01*
X128085904Y-72580238D01*
X128124000Y-72656428D01*
X128162095Y-72694523D01*
X128238285Y-72732619D01*
X128276380Y-72732619D01*
X128352571Y-72694523D01*
X128390666Y-72656428D01*
X128428761Y-72580238D01*
X128428761Y-72427857D01*
X128466857Y-72351666D01*
X128504952Y-72313571D01*
X128581142Y-72275476D01*
X128733523Y-72275476D01*
X128809714Y-72313571D01*
X128847809Y-72351666D01*
X128885904Y-72427857D01*
X128885904Y-72580238D01*
X128847809Y-72656428D01*
X128809714Y-72694523D01*
X128733523Y-72732619D01*
X128581142Y-72732619D01*
X128504952Y-72694523D01*
X128466857Y-72656428D01*
X128428761Y-72580238D01*
X133273571Y-73328571D02*
X133273571Y-73861904D01*
X133464047Y-73023809D02*
X133654523Y-73595238D01*
X133159285Y-73595238D01*
X132854523Y-73785714D02*
X132816428Y-73823809D01*
X132854523Y-73861904D01*
X132892619Y-73823809D01*
X132854523Y-73785714D01*
X132854523Y-73861904D01*
X132549761Y-73061904D02*
X132016428Y-73061904D01*
X132359285Y-73861904D01*
X131711666Y-73861904D02*
X131711666Y-73061904D01*
X131635476Y-73557142D02*
X131406904Y-73861904D01*
X131406904Y-73328571D02*
X131711666Y-73633333D01*
X131254523Y-73938095D02*
X130645000Y-73938095D01*
X129997380Y-73861904D02*
X130264047Y-73480952D01*
X130454523Y-73861904D02*
X130454523Y-73061904D01*
X130149761Y-73061904D01*
X130073571Y-73100000D01*
X130035476Y-73138095D01*
X129997380Y-73214285D01*
X129997380Y-73328571D01*
X130035476Y-73404761D01*
X130073571Y-73442857D01*
X130149761Y-73480952D01*
X130454523Y-73480952D01*
X129730714Y-73061904D02*
X129197380Y-73061904D01*
X129540238Y-73861904D01*
D10*
X148558000Y-94592380D02*
X149129428Y-94592380D01*
X148843714Y-94592380D02*
X148843714Y-93592380D01*
X148938952Y-93735238D01*
X149034190Y-93830476D01*
X149129428Y-93878095D01*
X147938952Y-93592380D02*
X147843714Y-93592380D01*
X147748476Y-93640000D01*
X147700857Y-93687619D01*
X147653238Y-93782857D01*
X147605619Y-93973333D01*
X147605619Y-94211428D01*
X147653238Y-94401904D01*
X147700857Y-94497142D01*
X147748476Y-94544761D01*
X147843714Y-94592380D01*
X147938952Y-94592380D01*
X148034190Y-94544761D01*
X148081809Y-94497142D01*
X148129428Y-94401904D01*
X148177047Y-94211428D01*
X148177047Y-93973333D01*
X148129428Y-93782857D01*
X148081809Y-93687619D01*
X148034190Y-93640000D01*
X147938952Y-93592380D01*
X147177047Y-93925714D02*
X147177047Y-94592380D01*
X147177047Y-94020952D02*
X147129428Y-93973333D01*
X147034190Y-93925714D01*
X146891333Y-93925714D01*
X146796095Y-93973333D01*
X146748476Y-94068571D01*
X146748476Y-94592380D01*
X146510380Y-94687619D02*
X145748476Y-94687619D01*
X144938952Y-94497142D02*
X144986571Y-94544761D01*
X145129428Y-94592380D01*
X145224666Y-94592380D01*
X145367523Y-94544761D01*
X145462761Y-94449523D01*
X145510380Y-94354285D01*
X145558000Y-94163809D01*
X145558000Y-94020952D01*
X145510380Y-93830476D01*
X145462761Y-93735238D01*
X145367523Y-93640000D01*
X145224666Y-93592380D01*
X145129428Y-93592380D01*
X144986571Y-93640000D01*
X144938952Y-93687619D01*
X144558000Y-93687619D02*
X144510380Y-93640000D01*
X144415142Y-93592380D01*
X144177047Y-93592380D01*
X144081809Y-93640000D01*
X144034190Y-93687619D01*
X143986571Y-93782857D01*
X143986571Y-93878095D01*
X144034190Y-94020952D01*
X144605619Y-94592380D01*
X143986571Y-94592380D01*
D11*
X139266904Y-80695952D02*
X139266904Y-80238809D01*
X139266904Y-80467380D02*
X138466904Y-80467380D01*
X138581190Y-80391190D01*
X138657380Y-80315000D01*
X138695476Y-80238809D01*
X138733571Y-81381666D02*
X139266904Y-81381666D01*
X138733571Y-81038809D02*
X139152619Y-81038809D01*
X139228809Y-81076904D01*
X139266904Y-81153095D01*
X139266904Y-81267380D01*
X139228809Y-81343571D01*
X139190714Y-81381666D01*
X139343095Y-81572142D02*
X139343095Y-82181666D01*
X139190714Y-82829285D02*
X139228809Y-82791190D01*
X139266904Y-82676904D01*
X139266904Y-82600714D01*
X139228809Y-82486428D01*
X139152619Y-82410238D01*
X139076428Y-82372142D01*
X138924047Y-82334047D01*
X138809761Y-82334047D01*
X138657380Y-82372142D01*
X138581190Y-82410238D01*
X138505000Y-82486428D01*
X138466904Y-82600714D01*
X138466904Y-82676904D01*
X138505000Y-82791190D01*
X138543095Y-82829285D01*
X138466904Y-83515000D02*
X138466904Y-83362619D01*
X138505000Y-83286428D01*
X138543095Y-83248333D01*
X138657380Y-83172142D01*
X138809761Y-83134047D01*
X139114523Y-83134047D01*
X139190714Y-83172142D01*
X139228809Y-83210238D01*
X139266904Y-83286428D01*
X139266904Y-83438809D01*
X139228809Y-83515000D01*
X139190714Y-83553095D01*
X139114523Y-83591190D01*
X138924047Y-83591190D01*
X138847857Y-83553095D01*
X138809761Y-83515000D01*
X138771666Y-83438809D01*
X138771666Y-83286428D01*
X138809761Y-83210238D01*
X138847857Y-83172142D01*
X138924047Y-83134047D01*
D10*
X133548380Y-69858095D02*
X132548380Y-69858095D01*
X132548380Y-70239047D01*
X132596000Y-70334285D01*
X132643619Y-70381904D01*
X132738857Y-70429523D01*
X132881714Y-70429523D01*
X132976952Y-70381904D01*
X133024571Y-70334285D01*
X133072190Y-70239047D01*
X133072190Y-69858095D01*
X132548380Y-71048571D02*
X132548380Y-71239047D01*
X132596000Y-71334285D01*
X132691238Y-71429523D01*
X132881714Y-71477142D01*
X133215047Y-71477142D01*
X133405523Y-71429523D01*
X133500761Y-71334285D01*
X133548380Y-71239047D01*
X133548380Y-71048571D01*
X133500761Y-70953333D01*
X133405523Y-70858095D01*
X133215047Y-70810476D01*
X132881714Y-70810476D01*
X132691238Y-70858095D01*
X132596000Y-70953333D01*
X132548380Y-71048571D01*
X133548380Y-72429523D02*
X133548380Y-71858095D01*
X133548380Y-72143809D02*
X132548380Y-72143809D01*
X132691238Y-72048571D01*
X132786476Y-71953333D01*
X132834095Y-71858095D01*
X133730714Y-78685714D02*
X133730714Y-79352380D01*
X133968809Y-78304761D02*
X134206904Y-79019047D01*
X133587857Y-79019047D01*
X133206904Y-79257142D02*
X133159285Y-79304761D01*
X133206904Y-79352380D01*
X133254523Y-79304761D01*
X133206904Y-79257142D01*
X133206904Y-79352380D01*
X132825952Y-78352380D02*
X132159285Y-78352380D01*
X132587857Y-79352380D01*
X131778333Y-79352380D02*
X131778333Y-78352380D01*
X131683095Y-78971428D02*
X131397380Y-79352380D01*
X131397380Y-78685714D02*
X131778333Y-79066666D01*
X131206904Y-79447619D02*
X130445000Y-79447619D01*
X129635476Y-79352380D02*
X129968809Y-78876190D01*
X130206904Y-79352380D02*
X130206904Y-78352380D01*
X129825952Y-78352380D01*
X129730714Y-78400000D01*
X129683095Y-78447619D01*
X129635476Y-78542857D01*
X129635476Y-78685714D01*
X129683095Y-78780952D01*
X129730714Y-78828571D01*
X129825952Y-78876190D01*
X130206904Y-78876190D01*
X128778333Y-78352380D02*
X128968809Y-78352380D01*
X129064047Y-78400000D01*
X129111666Y-78447619D01*
X129206904Y-78590476D01*
X129254523Y-78780952D01*
X129254523Y-79161904D01*
X129206904Y-79257142D01*
X129159285Y-79304761D01*
X129064047Y-79352380D01*
X128873571Y-79352380D01*
X128778333Y-79304761D01*
X128730714Y-79257142D01*
X128683095Y-79161904D01*
X128683095Y-78923809D01*
X128730714Y-78828571D01*
X128778333Y-78780952D01*
X128873571Y-78733333D01*
X129064047Y-78733333D01*
X129159285Y-78780952D01*
X129206904Y-78828571D01*
X129254523Y-78923809D01*
X133889428Y-98352380D02*
X133794190Y-98352380D01*
X133698952Y-98400000D01*
X133651333Y-98447619D01*
X133603714Y-98542857D01*
X133556095Y-98733333D01*
X133556095Y-98971428D01*
X133603714Y-99161904D01*
X133651333Y-99257142D01*
X133698952Y-99304761D01*
X133794190Y-99352380D01*
X133889428Y-99352380D01*
X133984666Y-99304761D01*
X134032285Y-99257142D01*
X134079904Y-99161904D01*
X134127523Y-98971428D01*
X134127523Y-98733333D01*
X134079904Y-98542857D01*
X134032285Y-98447619D01*
X133984666Y-98400000D01*
X133889428Y-98352380D01*
X133127523Y-99257142D02*
X133079904Y-99304761D01*
X133127523Y-99352380D01*
X133175142Y-99304761D01*
X133127523Y-99257142D01*
X133127523Y-99352380D01*
X132127523Y-99352380D02*
X132698952Y-99352380D01*
X132413238Y-99352380D02*
X132413238Y-98352380D01*
X132508476Y-98495238D01*
X132603714Y-98590476D01*
X132698952Y-98638095D01*
X131270380Y-98685714D02*
X131270380Y-99352380D01*
X131698952Y-98685714D02*
X131698952Y-99209523D01*
X131651333Y-99304761D01*
X131556095Y-99352380D01*
X131413238Y-99352380D01*
X131318000Y-99304761D01*
X131270380Y-99257142D01*
X131032285Y-99447619D02*
X130270380Y-99447619D01*
X129460857Y-99257142D02*
X129508476Y-99304761D01*
X129651333Y-99352380D01*
X129746571Y-99352380D01*
X129889428Y-99304761D01*
X129984666Y-99209523D01*
X130032285Y-99114285D01*
X130079904Y-98923809D01*
X130079904Y-98780952D01*
X130032285Y-98590476D01*
X129984666Y-98495238D01*
X129889428Y-98400000D01*
X129746571Y-98352380D01*
X129651333Y-98352380D01*
X129508476Y-98400000D01*
X129460857Y-98447619D01*
X128984666Y-99352380D02*
X128794190Y-99352380D01*
X128698952Y-99304761D01*
X128651333Y-99257142D01*
X128556095Y-99114285D01*
X128508476Y-98923809D01*
X128508476Y-98542857D01*
X128556095Y-98447619D01*
X128603714Y-98400000D01*
X128698952Y-98352380D01*
X128889428Y-98352380D01*
X128984666Y-98400000D01*
X129032285Y-98447619D01*
X129079904Y-98542857D01*
X129079904Y-98780952D01*
X129032285Y-98876190D01*
X128984666Y-98923809D01*
X128889428Y-98971428D01*
X128698952Y-98971428D01*
X128603714Y-98923809D01*
X128556095Y-98876190D01*
X128508476Y-98780952D01*
D11*
X144668571Y-80229285D02*
X144640000Y-80257857D01*
X144611428Y-80315000D01*
X144611428Y-80457857D01*
X144640000Y-80515000D01*
X144668571Y-80543571D01*
X144725714Y-80572142D01*
X144782857Y-80572142D01*
X144868571Y-80543571D01*
X145211428Y-80200714D01*
X145211428Y-80572142D01*
X145154285Y-80829285D02*
X145182857Y-80857857D01*
X145211428Y-80829285D01*
X145182857Y-80800714D01*
X145154285Y-80829285D01*
X145211428Y-80829285D01*
X144668571Y-81086428D02*
X144640000Y-81115000D01*
X144611428Y-81172142D01*
X144611428Y-81315000D01*
X144640000Y-81372142D01*
X144668571Y-81400714D01*
X144725714Y-81429285D01*
X144782857Y-81429285D01*
X144868571Y-81400714D01*
X145211428Y-81057857D01*
X145211428Y-81429285D01*
X144811428Y-81943571D02*
X145211428Y-81943571D01*
X144811428Y-81686428D02*
X145125714Y-81686428D01*
X145182857Y-81715000D01*
X145211428Y-81772142D01*
X145211428Y-81857857D01*
X145182857Y-81915000D01*
X145154285Y-81943571D01*
X145268571Y-82086428D02*
X145268571Y-82543571D01*
X145154285Y-83029285D02*
X145182857Y-83000714D01*
X145211428Y-82915000D01*
X145211428Y-82857857D01*
X145182857Y-82772142D01*
X145125714Y-82715000D01*
X145068571Y-82686428D01*
X144954285Y-82657857D01*
X144868571Y-82657857D01*
X144754285Y-82686428D01*
X144697142Y-82715000D01*
X144640000Y-82772142D01*
X144611428Y-82857857D01*
X144611428Y-82915000D01*
X144640000Y-83000714D01*
X144668571Y-83029285D01*
X144611428Y-83572142D02*
X144611428Y-83286428D01*
X144897142Y-83257857D01*
X144868571Y-83286428D01*
X144840000Y-83343571D01*
X144840000Y-83486428D01*
X144868571Y-83543571D01*
X144897142Y-83572142D01*
X144954285Y-83600714D01*
X145097142Y-83600714D01*
X145154285Y-83572142D01*
X145182857Y-83543571D01*
X145211428Y-83486428D01*
X145211428Y-83343571D01*
X145182857Y-83286428D01*
X145154285Y-83257857D01*
D10*
X133095714Y-65030714D02*
X133095714Y-65697380D01*
X133333809Y-64649761D02*
X133571904Y-65364047D01*
X132952857Y-65364047D01*
X132571904Y-65602142D02*
X132524285Y-65649761D01*
X132571904Y-65697380D01*
X132619523Y-65649761D01*
X132571904Y-65602142D01*
X132571904Y-65697380D01*
X132190952Y-64697380D02*
X131524285Y-64697380D01*
X131952857Y-65697380D01*
X131143333Y-65697380D02*
X131143333Y-64697380D01*
X131048095Y-65316428D02*
X130762380Y-65697380D01*
X130762380Y-65030714D02*
X131143333Y-65411666D01*
X130571904Y-65792619D02*
X129810000Y-65792619D01*
X129000476Y-65697380D02*
X129333809Y-65221190D01*
X129571904Y-65697380D02*
X129571904Y-64697380D01*
X129190952Y-64697380D01*
X129095714Y-64745000D01*
X129048095Y-64792619D01*
X129000476Y-64887857D01*
X129000476Y-65030714D01*
X129048095Y-65125952D01*
X129095714Y-65173571D01*
X129190952Y-65221190D01*
X129571904Y-65221190D01*
X128095714Y-64697380D02*
X128571904Y-64697380D01*
X128619523Y-65173571D01*
X128571904Y-65125952D01*
X128476666Y-65078333D01*
X128238571Y-65078333D01*
X128143333Y-65125952D01*
X128095714Y-65173571D01*
X128048095Y-65268809D01*
X128048095Y-65506904D01*
X128095714Y-65602142D01*
X128143333Y-65649761D01*
X128238571Y-65697380D01*
X128476666Y-65697380D01*
X128571904Y-65649761D01*
X128619523Y-65602142D01*
X141239523Y-89557619D02*
X141191904Y-89510000D01*
X141096666Y-89462380D01*
X140858571Y-89462380D01*
X140763333Y-89510000D01*
X140715714Y-89557619D01*
X140668095Y-89652857D01*
X140668095Y-89748095D01*
X140715714Y-89890952D01*
X141287142Y-90462380D01*
X140668095Y-90462380D01*
X140239523Y-90367142D02*
X140191904Y-90414761D01*
X140239523Y-90462380D01*
X140287142Y-90414761D01*
X140239523Y-90367142D01*
X140239523Y-90462380D01*
X139810952Y-89557619D02*
X139763333Y-89510000D01*
X139668095Y-89462380D01*
X139430000Y-89462380D01*
X139334761Y-89510000D01*
X139287142Y-89557619D01*
X139239523Y-89652857D01*
X139239523Y-89748095D01*
X139287142Y-89890952D01*
X139858571Y-90462380D01*
X139239523Y-90462380D01*
X138810952Y-89795714D02*
X138810952Y-90462380D01*
X138810952Y-89890952D02*
X138763333Y-89843333D01*
X138668095Y-89795714D01*
X138525238Y-89795714D01*
X138430000Y-89843333D01*
X138382380Y-89938571D01*
X138382380Y-90462380D01*
X138144285Y-90557619D02*
X137382380Y-90557619D01*
X136572857Y-90367142D02*
X136620476Y-90414761D01*
X136763333Y-90462380D01*
X136858571Y-90462380D01*
X137001428Y-90414761D01*
X137096666Y-90319523D01*
X137144285Y-90224285D01*
X137191904Y-90033809D01*
X137191904Y-89890952D01*
X137144285Y-89700476D01*
X137096666Y-89605238D01*
X137001428Y-89510000D01*
X136858571Y-89462380D01*
X136763333Y-89462380D01*
X136620476Y-89510000D01*
X136572857Y-89557619D01*
X136239523Y-89462380D02*
X135620476Y-89462380D01*
X135953809Y-89843333D01*
X135810952Y-89843333D01*
X135715714Y-89890952D01*
X135668095Y-89938571D01*
X135620476Y-90033809D01*
X135620476Y-90271904D01*
X135668095Y-90367142D01*
X135715714Y-90414761D01*
X135810952Y-90462380D01*
X136096666Y-90462380D01*
X136191904Y-90414761D01*
X136239523Y-90367142D01*
D12*
X102093500Y-83295258D02*
X102093500Y-82820742D01*
X103138500Y-83295258D02*
X103138500Y-82820742D01*
X106567500Y-82693742D02*
X106567500Y-83168258D01*
X105522500Y-82693742D02*
X105522500Y-83168258D01*
X102884500Y-78977258D02*
X102884500Y-78502742D01*
X101839500Y-78977258D02*
X101839500Y-78502742D01*
X105395500Y-78977258D02*
X105395500Y-78502742D01*
X106440500Y-78977258D02*
X106440500Y-78502742D01*
X108710000Y-83071580D02*
X108710000Y-82790420D01*
X109730000Y-83071580D02*
X109730000Y-82790420D01*
X109742500Y-78977258D02*
X109742500Y-78502742D01*
X108697500Y-78977258D02*
X108697500Y-78502742D01*
X144892500Y-89772258D02*
X144892500Y-89297742D01*
X145937500Y-89772258D02*
X145937500Y-89297742D01*
X144020000Y-71260580D02*
X144020000Y-70979420D01*
X143000000Y-71260580D02*
X143000000Y-70979420D01*
X122950500Y-103742258D02*
X122950500Y-103267742D01*
X121905500Y-103742258D02*
X121905500Y-103267742D01*
X125501400Y-105130600D02*
X125501400Y-101879400D01*
X128752600Y-101879400D02*
X128752600Y-105130600D01*
X126212600Y-101104700D02*
G75*
G03*
X126212600Y-101104700I-76200J0D01*
G01*
X134380500Y-103742258D02*
X134380500Y-103267742D01*
X133335500Y-103742258D02*
X133335500Y-103267742D01*
X136015000Y-81774420D02*
X136015000Y-82055580D01*
X137035000Y-81774420D02*
X137035000Y-82055580D01*
X145937500Y-85962258D02*
X145937500Y-85487742D01*
X144892500Y-85962258D02*
X144892500Y-85487742D01*
X130685000Y-70344420D02*
X130685000Y-70625580D01*
X129665000Y-70344420D02*
X129665000Y-70625580D01*
X131682258Y-74407500D02*
X131207742Y-74407500D01*
X131682258Y-75452500D02*
X131207742Y-75452500D01*
X144639420Y-93220000D02*
X144920580Y-93220000D01*
X144639420Y-92200000D02*
X144920580Y-92200000D01*
X140845000Y-81774420D02*
X140845000Y-82055580D01*
X139825000Y-81774420D02*
X139825000Y-82055580D01*
D14*
X134246000Y-72820000D02*
X134246000Y-69420000D01*
X140074000Y-69420000D02*
X140074000Y-72820000D01*
D13*
X134772190Y-68759460D02*
G75*
G03*
X134772190Y-68759460I-100000J0D01*
G01*
D12*
X131207742Y-76947500D02*
X131682258Y-76947500D01*
X131207742Y-77992500D02*
X131682258Y-77992500D01*
X131458580Y-99820000D02*
X131177420Y-99820000D01*
X131458580Y-100840000D02*
X131177420Y-100840000D01*
X144020000Y-82055580D02*
X144020000Y-81774420D01*
X143000000Y-82055580D02*
X143000000Y-81774420D01*
X131047258Y-67197500D02*
X130572742Y-67197500D01*
X131047258Y-66152500D02*
X130572742Y-66152500D01*
X138570580Y-90930000D02*
X138289420Y-90930000D01*
X138570580Y-91950000D02*
X138289420Y-91950000D01*
%LPC*%
D15*
X117983000Y-96012000D03*
D16*
X120523000Y-96012000D03*
X123063000Y-96012000D03*
X125603000Y-96012000D03*
X128143000Y-96012000D03*
X130683000Y-96012000D03*
X133223000Y-96012000D03*
X135763000Y-96012000D03*
X138303000Y-96012000D03*
X140843000Y-96012000D03*
X143383000Y-96012000D03*
X145923000Y-96012000D03*
D15*
X117983000Y-111252000D03*
D16*
X120523000Y-111252000D03*
D15*
X130683000Y-111252000D03*
D16*
X133223000Y-111252000D03*
X135763000Y-111252000D03*
X138303000Y-111252000D03*
X140843000Y-111252000D03*
X143383000Y-111252000D03*
X145923000Y-111252000D03*
D15*
X97155000Y-71120000D03*
X97155000Y-76835000D03*
X97155000Y-83820000D03*
D17*
X130810000Y-88265000D03*
D15*
X150876000Y-66294000D03*
D16*
X150876000Y-68834000D03*
X150876000Y-71374000D03*
X150876000Y-73914000D03*
X150876000Y-76454000D03*
X150876000Y-78994000D03*
X150876000Y-81534000D03*
D18*
X96774000Y-65532000D03*
D19*
X96774000Y-65532000D03*
D18*
X96774000Y-93218000D03*
D19*
X96774000Y-93218000D03*
X146812000Y-65278000D03*
D18*
X146812000Y-65278000D03*
D15*
X97155000Y-88900000D03*
D20*
X102616000Y-83883000D03*
X102616000Y-82233000D03*
D21*
X106045000Y-82106000D03*
X106045000Y-83756000D03*
D20*
X102362000Y-79565000D03*
X102362000Y-77915000D03*
X105918000Y-79565000D03*
X105918000Y-77915000D03*
D22*
X109220000Y-83706000D03*
X109220000Y-82156000D03*
D20*
X109220000Y-79565000D03*
X109220000Y-77915000D03*
X145415000Y-90360000D03*
X145415000Y-88710000D03*
D22*
X143510000Y-71895000D03*
X143510000Y-70345000D03*
D20*
X122428000Y-104330000D03*
X122428000Y-102680000D03*
D23*
X126136400Y-102082600D03*
X127127000Y-102082600D03*
X128117600Y-102082600D03*
X128117600Y-104927400D03*
X127127000Y-104927400D03*
X126136400Y-104927400D03*
D24*
X127127000Y-103505000D03*
D20*
X133858000Y-104330000D03*
X133858000Y-102680000D03*
D25*
X136525000Y-81140000D03*
X136525000Y-82690000D03*
D20*
X145415000Y-86550000D03*
X145415000Y-84900000D03*
D25*
X130175000Y-69710000D03*
X130175000Y-71260000D03*
D26*
X132270000Y-74930000D03*
X130620000Y-74930000D03*
D27*
X144005000Y-92710000D03*
X145555000Y-92710000D03*
D25*
X140335000Y-81140000D03*
X140335000Y-82690000D03*
D28*
X134760000Y-69925000D03*
X135560000Y-69925000D03*
X136360000Y-69925000D03*
X137160000Y-69925000D03*
X137960000Y-69925000D03*
X138760000Y-69925000D03*
X139560000Y-69925000D03*
D29*
X139560000Y-72315000D03*
X138760000Y-72315000D03*
X137960000Y-72315000D03*
X137160000Y-72315000D03*
X136360000Y-72315000D03*
X135560000Y-72315000D03*
X134760000Y-72315000D03*
D30*
X130620000Y-77470000D03*
X132270000Y-77470000D03*
D31*
X132093000Y-100330000D03*
X130543000Y-100330000D03*
D22*
X143510000Y-82690000D03*
X143510000Y-81140000D03*
D26*
X131635000Y-66675000D03*
X129985000Y-66675000D03*
D31*
X139205000Y-91440000D03*
X137655000Y-91440000D03*
M02*
