%TF.GenerationSoftware,KiCad,Pcbnew,(6.0.9)*%
%TF.CreationDate,2024-01-25T22:47:47-06:00*%
%TF.ProjectId,AD8232_Heart_Rate_Monitor_v4.0,41443832-3332-45f4-9865-6172745f5261,rev?*%
%TF.SameCoordinates,Original*%
%TF.FileFunction,Paste,Bot*%
%TF.FilePolarity,Positive*%
%FSLAX46Y46*%
G04 Gerber Fmt 4.6, Leading zero omitted, Abs format (unit mm)*
G04 Created by KiCad (PCBNEW (6.0.9)) date 2024-01-25 22:47:47*
%MOMM*%
%LPD*%
G01*
G04 APERTURE LIST*
G04 Aperture macros list*
%AMRoundRect*
0 Rectangle with rounded corners*
0 $1 Rounding radius*
0 $2 $3 $4 $5 $6 $7 $8 $9 X,Y pos of 4 corners*
0 Add a 4 corners polygon primitive as box body*
4,1,4,$2,$3,$4,$5,$6,$7,$8,$9,$2,$3,0*
0 Add four circle primitives for the rounded corners*
1,1,$1+$1,$2,$3*
1,1,$1+$1,$4,$5*
1,1,$1+$1,$6,$7*
1,1,$1+$1,$8,$9*
0 Add four rect primitives between the rounded corners*
20,1,$1+$1,$2,$3,$4,$5,0*
20,1,$1+$1,$4,$5,$6,$7,0*
20,1,$1+$1,$6,$7,$8,$9,0*
20,1,$1+$1,$8,$9,$2,$3,0*%
G04 Aperture macros list end*
%ADD10RoundRect,0.200000X0.275000X-0.200000X0.275000X0.200000X-0.275000X0.200000X-0.275000X-0.200000X0*%
%ADD11RoundRect,0.200000X-0.275000X0.200000X-0.275000X-0.200000X0.275000X-0.200000X0.275000X0.200000X0*%
%ADD12RoundRect,0.225000X0.250000X-0.225000X0.250000X0.225000X-0.250000X0.225000X-0.250000X-0.225000X0*%
%ADD13R,0.406400X0.762000*%
%ADD14R,2.489200X1.600200*%
%ADD15RoundRect,0.225000X-0.250000X0.225000X-0.250000X-0.225000X0.250000X-0.225000X0.250000X0.225000X0*%
%ADD16RoundRect,0.200000X0.200000X0.275000X-0.200000X0.275000X-0.200000X-0.275000X0.200000X-0.275000X0*%
%ADD17RoundRect,0.225000X-0.225000X-0.250000X0.225000X-0.250000X0.225000X0.250000X-0.225000X0.250000X0*%
%ADD18RoundRect,0.040000X-0.160000X0.380000X-0.160000X-0.380000X0.160000X-0.380000X0.160000X0.380000X0*%
%ADD19RoundRect,0.040000X0.160000X-0.380000X0.160000X0.380000X-0.160000X0.380000X-0.160000X-0.380000X0*%
%ADD20RoundRect,0.200000X-0.200000X-0.275000X0.200000X-0.275000X0.200000X0.275000X-0.200000X0.275000X0*%
%ADD21RoundRect,0.225000X0.225000X0.250000X-0.225000X0.250000X-0.225000X-0.250000X0.225000X-0.250000X0*%
G04 APERTURE END LIST*
D10*
X102616000Y-83883000D03*
X102616000Y-82233000D03*
D11*
X106045000Y-82106000D03*
X106045000Y-83756000D03*
D10*
X102362000Y-79565000D03*
X102362000Y-77915000D03*
X105918000Y-79565000D03*
X105918000Y-77915000D03*
D12*
X109220000Y-83706000D03*
X109220000Y-82156000D03*
D10*
X109220000Y-79565000D03*
X109220000Y-77915000D03*
X145415000Y-90360000D03*
X145415000Y-88710000D03*
D12*
X143510000Y-71895000D03*
X143510000Y-70345000D03*
D10*
X122428000Y-104330000D03*
X122428000Y-102680000D03*
D13*
X126136400Y-102082600D03*
X127127000Y-102082600D03*
X128117600Y-102082600D03*
X128117600Y-104927400D03*
X127127000Y-104927400D03*
X126136400Y-104927400D03*
D14*
X127127000Y-103505000D03*
D10*
X133858000Y-104330000D03*
X133858000Y-102680000D03*
D15*
X136525000Y-81140000D03*
X136525000Y-82690000D03*
D10*
X145415000Y-86550000D03*
X145415000Y-84900000D03*
D15*
X130175000Y-69710000D03*
X130175000Y-71260000D03*
D16*
X132270000Y-74930000D03*
X130620000Y-74930000D03*
D17*
X144005000Y-92710000D03*
X145555000Y-92710000D03*
D15*
X140335000Y-81140000D03*
X140335000Y-82690000D03*
D18*
X134760000Y-69925000D03*
X135560000Y-69925000D03*
X136360000Y-69925000D03*
X137160000Y-69925000D03*
X137960000Y-69925000D03*
X138760000Y-69925000D03*
X139560000Y-69925000D03*
D19*
X139560000Y-72315000D03*
X138760000Y-72315000D03*
X137960000Y-72315000D03*
X137160000Y-72315000D03*
X136360000Y-72315000D03*
X135560000Y-72315000D03*
X134760000Y-72315000D03*
D20*
X130620000Y-77470000D03*
X132270000Y-77470000D03*
D21*
X132093000Y-100330000D03*
X130543000Y-100330000D03*
D12*
X143510000Y-82690000D03*
X143510000Y-81140000D03*
D16*
X131635000Y-66675000D03*
X129985000Y-66675000D03*
D21*
X139205000Y-91440000D03*
X137655000Y-91440000D03*
M02*
